<svg width="60" height="60" viewBox="0 0 60 60" fill="none" xmlns="http://www.w3.org/2000/svg">
<rect width="60" height="60" rx="15" fill="var(--icon-bg-color)"/>
<path d="M40.6666 33C42.3235 33 43.6666 31.6569 43.6666 30C43.6666 28.3431 42.3235 27 40.6666 27C39.0098 27 37.6666 28.3431 37.6666 30C37.6666 31.6569 39.0098 33 40.6666 33Z" fill="var(--icon-fill-color)"/>
<path d="M40.6666 22.3334C42.3235 22.3334 43.6666 20.9902 43.6666 19.3334C43.6666 17.6765 42.3235 16.3334 40.6666 16.3334C39.0098 16.3334 37.6666 17.6765 37.6666 19.3334C37.6666 20.9902 39.0098 22.3334 40.6666 22.3334Z" fill="var(--icon-fill-color)"/>
<path d="M40.6666 43.6666C42.3235 43.6666 43.6666 42.3235 43.6666 40.6666C43.6666 39.0098 42.3235 37.6666 40.6666 37.6666C39.0098 37.6666 37.6666 39.0098 37.6666 40.6666C37.6666 42.3235 39.0098 43.6666 40.6666 43.6666Z" fill="var(--icon-fill-color)"/>
<path d="M19.3334 33C20.9902 33 22.3334 31.6569 22.3334 30C22.3334 28.3431 20.9902 27 19.3334 27C17.6765 27 16.3334 28.3431 16.3334 30C16.3334 31.6569 17.6765 33 19.3334 33Z" fill="var(--icon-fill-color)"/>
<path d="M39.3333 31C39.88 31 40.3333 30.5467 40.3333 30C40.3333 29.4534 39.88 29 39.3333 29H29.6666V23.3334C29.6666 21.2267 30.56 20.3334 32.6666 20.3334H39.3333C39.88 20.3334 40.3333 19.88 40.3333 19.3334C40.3333 18.7867 39.88 18.3334 39.3333 18.3334H32.6666C29.44 18.3334 27.6666 20.1067 27.6666 23.3334V29H20.6666C20.12 29 19.6666 29.4534 19.6666 30C19.6666 30.5467 20.12 31 20.6666 31H27.6666V36.6667C27.6666 39.8934 29.44 41.6667 32.6666 41.6667H39.3333C39.88 41.6667 40.3333 41.2134 40.3333 40.6667C40.3333 40.12 39.88 39.6667 39.3333 39.6667H32.6666C30.56 39.6667 29.6666 38.7734 29.6666 36.6667V31H39.3333Z" fill="var(--icon-fill-color)"/>
</svg>