<svg width="60" height="60" viewBox="0 0 60 60" fill="none" xmlns="http://www.w3.org/2000/svg">
<rect width="60" height="60" rx="15" fill="var(--icon-bg-color)"/>
<path d="M35.3334 16.6267H24.6667C19.3334 16.6267 16.6667 19.2934 16.6667 24.6267V31.2934C16.6667 37.96 19.3334 39.2934 24.6667 39.2934H25.3334C25.7067 39.2934 26.1867 39.5334 26.4001 39.8267L28.4001 42.4934C29.2801 43.6667 30.7201 43.6667 31.6001 42.4934L33.6001 39.8267C33.8534 39.4934 34.2534 39.2934 34.6667 39.2934H35.3334C40.6667 39.2934 43.3334 36.6267 43.3334 31.2934V24.6267C43.3334 19.2934 40.6667 16.6267 35.3334 16.6267ZM25.3734 30.2267C25.7601 30.6134 25.7601 31.2534 25.3734 31.64C25.1734 31.84 24.9201 31.9334 24.6667 31.9334C24.4134 31.9334 24.1601 31.84 23.9601 31.64L21.2934 28.9734C20.9067 28.5867 20.9067 27.9467 21.2934 27.56L23.9601 24.8934C24.3467 24.5067 24.9867 24.5067 25.3734 24.8934C25.7601 25.28 25.7601 25.92 25.3734 26.3067L23.4134 28.2667L25.3734 30.2267ZM32.2534 25.5467L29.5867 31.7734C29.4267 32.1467 29.0534 32.3734 28.6667 32.3734C28.5334 32.3734 28.4001 32.3467 28.2667 32.2934C27.7601 32.08 27.5201 31.4934 27.7467 30.9734L30.4134 24.7467C30.6267 24.24 31.2134 24 31.7334 24.2267C32.2401 24.4534 32.4667 25.04 32.2534 25.5467ZM38.7067 28.9734L36.0401 31.64C35.8401 31.84 35.5867 31.9334 35.3334 31.9334C35.0801 31.9334 34.8267 31.84 34.6267 31.64C34.2401 31.2534 34.2401 30.6134 34.6267 30.2267L36.5867 28.2667L34.6267 26.3067C34.2401 25.92 34.2401 25.28 34.6267 24.8934C35.0134 24.5067 35.6534 24.5067 36.0401 24.8934L38.7067 27.56C39.0934 27.9467 39.0934 28.5867 38.7067 28.9734Z" fill="var(--icon-fill-color)"/>
</svg>