<svg width="136" height="14" viewBox="0 0 136 14" fill="none" xmlns="http://www.w3.org/2000/svg">
<g clip-path="url(#clip0_300_12324)">
<path d="M123.693 0.223089C123.583 0.0806916 123.402 0 123.199 0H121.246C120.984 0 120.735 0.177996 120.667 0.412951L116.757 13.2311C116.701 13.4257 116.733 13.6226 116.848 13.7722C116.96 13.9169 117.139 14 117.337 14H119.312C119.561 14 119.826 13.8101 119.892 13.587L123.781 0.768944C123.84 0.569588 123.808 0.370232 123.696 0.223089H123.693Z" fill="#FCB300"/>
<path d="M135.313 9.65206H133.196C133.746 9.03026 134.313 8.37761 134.768 7.84125C135.374 7.12926 136 6.39592 136 5.32557C136 4.03688 135.059 2.65088 132.991 2.65088C131.448 2.65088 130.47 3.81141 130.37 3.9372C130.164 4.17927 130.182 4.55188 130.409 4.77497L130.81 5.17131C130.935 5.29234 131.093 5.3588 131.262 5.3588C131.428 5.3588 131.59 5.29234 131.724 5.15944C132.005 4.86278 132.443 4.51153 132.925 4.51153C133.92 4.51153 133.971 5.23064 133.971 5.37541C133.971 5.57951 133.868 6.03993 133.167 6.80887C132.888 7.13401 132.57 7.50424 132.242 7.89109C131.558 8.698 130.781 9.60935 130.189 10.2715L130.086 10.3854V10.8387C130.086 11.1805 130.375 11.4558 130.729 11.4558H135.313C135.658 11.4558 135.949 11.1686 135.949 10.8316V10.2762C135.949 9.93686 135.658 9.65206 135.313 9.65206Z" fill="black"/>
<path d="M3.06329 3.14893H0.330044C0.151576 3.14893 0 3.30082 0 3.48119V10.6794C0 10.8597 0.151576 11.0116 0.330044 11.0116H3.06329C5.3027 11.0116 7.12405 9.24352 7.12405 7.06959C7.12405 4.89566 5.3027 3.14893 3.06329 3.14893ZM5.00688 7.06959C5.00688 8.25623 4.12432 9.15096 2.95083 9.15096H2.00471V4.99771H2.95083C4.12188 4.99771 5.00688 5.8877 5.00688 7.06959Z" fill="black"/>
<path d="M18.8468 3.14893H17.5046C17.3156 3.14893 17.1624 3.29768 17.1624 3.48119V10.6794C17.1624 10.8629 17.3156 11.0116 17.5046 11.0116H18.8468C19.0358 11.0116 19.1891 10.8629 19.1891 10.6794V3.48119C19.1891 3.29768 19.0358 3.14893 18.8468 3.14893Z" fill="black"/>
<path d="M50.6336 6.8465H48.382C48.1864 6.8465 48.0397 6.9889 48.0397 7.17876V8.25623C48.0397 8.4366 48.1889 8.57663 48.382 8.57663H48.959V8.99432C48.6949 9.08451 48.4113 9.1296 48.0911 9.1296C46.9396 9.1296 46.0032 8.21589 46.0032 7.09095C46.0032 5.96601 46.9347 5.01907 48.0813 5.01907C48.6509 5.01907 49.0885 5.17334 49.4724 5.51509C49.6142 5.61714 49.8048 5.61002 49.9466 5.48898L50.8292 4.57764C50.8977 4.51119 50.9319 4.42338 50.927 4.33319C50.9221 4.24301 50.8732 4.1552 50.7999 4.10061C50.0175 3.44084 48.9638 3.04688 47.9835 3.04688C45.6952 3.04688 43.8323 4.86006 43.8323 7.0862C43.8323 9.31234 45.6561 11.1042 47.9835 11.1042C49.6264 11.1042 50.7828 10.4088 50.839 10.3732C50.9172 10.3162 50.9808 10.1928 50.9808 10.0979L50.9686 7.17402C50.9686 6.99365 50.817 6.84176 50.6385 6.84176L50.6336 6.8465Z" fill="black"/>
<path d="M61.921 3.04004C59.6327 3.04004 57.7698 4.85797 57.7698 7.09123C57.7698 9.32449 59.5936 11.1187 61.921 11.1187C64.2484 11.1187 66.082 9.34823 66.082 7.09123C66.082 4.83424 64.2142 3.04004 61.921 3.04004ZM61.921 5.03122C63.0847 5.03122 64.0333 5.95443 64.0333 7.09123C64.0333 8.22804 63.0871 9.12988 61.921 9.12988C60.7548 9.12988 59.8209 8.21617 59.8209 7.09123C59.8209 5.9663 60.7622 5.03122 61.921 5.03122Z" fill="black"/>
<path d="M79.6603 3.14928H78.3157C78.1274 3.14928 77.9734 3.2988 77.9734 3.48154V7.05808L73.6755 3.04248H73.343C73.1572 3.04248 73.0007 3.18962 73.0007 3.36287L73.013 10.6797C73.013 10.8553 73.1719 11.012 73.3552 11.012H74.6876C74.8759 11.012 75.0299 10.8624 75.0299 10.6797V6.91568L79.2447 11.0286C79.2936 11.076 79.4182 11.1188 79.4818 11.1188H79.6603C79.8461 11.1188 80.0025 10.9716 80.0025 10.7984V3.48154C80.0025 3.30592 79.8436 3.14928 79.6603 3.14928Z" fill="black"/>
<path d="M108.015 9.16283H105.477V3.48119C105.477 3.30556 105.318 3.14893 105.135 3.14893H103.802C103.614 3.14893 103.46 3.29844 103.46 3.48119V10.6794C103.46 10.8621 103.614 11.0116 103.802 11.0116H108.015C108.203 11.0116 108.357 10.8621 108.357 10.6794V9.49509C108.357 9.31234 108.203 9.16283 108.015 9.16283Z" fill="black"/>
<path d="M33.2636 3.17526C33.1854 3.02337 33.0167 2.91895 32.8456 2.91895H32.7331C32.562 2.91895 32.3957 3.021 32.3126 3.18001L28.8068 10.4968C28.7384 10.6416 28.7481 10.8006 28.8313 10.9264C28.9144 11.0522 29.0635 11.1281 29.2273 11.1281H30.4595C30.748 11.1281 30.9851 10.9739 31.0951 10.7223L31.4301 9.99845H34.1486L34.486 10.7176C34.5911 10.9312 34.7378 11.1305 35.107 11.1305H36.3489C36.5152 11.1305 36.6619 11.0546 36.745 10.9288C36.8281 10.803 36.8379 10.6416 36.7694 10.4992L33.2612 3.17526H33.2636ZM33.9433 8.65992H31.6354L32.782 5.69569L33.9433 8.65992Z" fill="black"/>
<path d="M91.5737 3.17526C91.4955 3.02337 91.3268 2.91895 91.1556 2.91895H91.0432C90.872 2.91895 90.7058 3.021 90.6227 3.18001L87.1169 10.4968C87.0484 10.6416 87.0582 10.8006 87.1413 10.9264C87.2244 11.0522 87.3736 11.1281 87.5374 11.1281H88.7695C89.058 11.1281 89.2952 10.9739 89.4052 10.7223L89.7401 9.99845H92.4587L92.7961 10.7176C92.9012 10.9312 93.0479 11.1305 93.417 11.1305H94.6614C94.8277 11.1305 94.9744 11.0546 95.0575 10.9288C95.1406 10.803 95.1504 10.6416 95.0819 10.4992L91.5737 3.17526ZM92.2533 8.65992H89.9455L91.0921 5.69569L92.2533 8.65992Z" fill="black"/>
</g>
<defs>
<clipPath id="clip0_300_12324">
<rect width="136" height="14" fill="white"/>
</clipPath>
</defs>
</svg>



