<svg width="60" height="60" viewBox="0 0 60 60" fill="none" xmlns="http://www.w3.org/2000/svg">
<rect width="60" height="60" rx="15" fill="var(--icon-bg-color)"/>
<path d="M41.9734 28.2667C41.6801 23.0667 37.8268 18.7333 32.6801 17.8533C32.6001 16.8267 31.7468 16 30.6934 16H29.3601C28.3068 16 27.4668 16.8133 27.3734 17.84C22.2001 18.6933 18.3201 23.04 18.0268 28.2667C17.0801 28.4267 16.3601 29.24 16.3601 30.2267V31.56C16.3601 32.6667 17.2534 33.56 18.3601 33.56H19.6934C20.8001 33.56 21.6934 32.6667 21.6934 31.56V30.2267C21.6934 29.24 20.9734 28.4267 20.0268 28.2667C20.3068 24.1067 23.3601 20.6533 27.4401 19.8533C27.6668 20.7067 28.4401 21.3333 29.3601 21.3333H30.6934C31.6134 21.3333 32.3734 20.7067 32.6134 19.8667C36.6668 20.68 39.6934 24.1333 39.9734 28.2667C39.0268 28.4267 38.3068 29.24 38.3068 30.2267V31.56C38.3068 32.6667 39.2001 33.56 40.3068 33.56H41.6401C42.7468 33.56 43.6401 32.6667 43.6401 31.56V30.2267C43.6401 29.24 42.9201 28.4133 41.9734 28.2667Z" fill="var(--icon-fill-color)"/>
<path d="M35.0267 36.0666L32.84 38H27.1734L24.9867 36.0666C23.72 35.0266 23.72 34.2266 24.68 33L28.5334 28.12C28.8 27.7866 29.1067 27.56 29.4534 27.44C29.8134 27.32 30.2 27.32 30.5734 27.44C30.9067 27.56 31.2134 27.7866 31.4934 28.12L35.3334 32.9866C36.3067 34.2133 36.2534 34.9733 35.0267 36.0666Z" fill="var(--icon-fill-color)"/>
<path d="M31.7601 43.3333H28.3067C27.0801 43.3333 26.1601 42.3333 26.4001 41.2666L26.8134 39.4133C26.8934 39.04 27.2267 38.7866 27.6001 38.7866H32.4667C32.8401 38.7866 33.1601 39.04 33.2534 39.4133L33.6667 41.2666C33.9201 42.4 33.0667 43.3333 31.7601 43.3333Z" fill="var(--icon-fill-color)"/>
</svg>