<svg width="159" height="54" viewBox="0 0 159 54" fill="none" xmlns="http://www.w3.org/2000/svg">
<path d="M30.8248 34.5026C29.7356 36.2486 28.3468 37.1217 26.6857 37.1217C23.4452 37.1217 21.0217 34.5844 21.0217 31.2014C21.0217 28.255 22.9006 25.2812 26.4679 25.2812C29.2454 25.2812 30.2529 27.0545 30.8248 28.0367L30.9065 28.2004H36.8973L36.7611 27.7912C34.9094 22.2529 30.0623 20.2885 26.4679 20.2885C23.7175 20.2885 20.9672 21.4071 18.9249 23.3714C16.8009 25.4176 15.63 28.2004 15.63 31.1742C15.63 37.9674 21.2668 42.1689 26.4951 42.1689C31.2333 42.1689 35.0728 39.4134 36.7339 34.83L36.8973 34.3935H30.9065L30.8248 34.5026ZM49.3145 20.2613C43.2693 20.2613 38.4494 25.1448 38.4494 31.2014C38.4494 37.2035 43.2693 42.1416 49.2601 42.1416C55.3053 42.1416 60.1796 37.2308 60.1796 31.2014C60.1796 25.1175 55.3053 20.2613 49.3145 20.2613ZM49.369 36.9307C46.2919 36.9307 43.8411 34.4753 43.8411 31.3924C43.8411 28.3095 46.2919 25.8541 49.369 25.8541C52.3916 25.8541 54.8969 28.3095 54.8969 31.3924C54.8969 34.4753 52.3916 36.9307 49.369 36.9307ZM78.3154 22.4711C77.09 21.4344 75.0205 20.2613 72.4608 20.2613C66.5517 20.2613 61.9769 25.1448 61.9769 31.2014C61.9769 37.2035 66.8512 42.1416 72.842 42.1416C78.8872 42.1416 83.7616 37.2308 83.7616 31.2014V11.8311H78.3154V22.4711ZM72.8148 36.9307C69.7377 36.9307 67.2869 34.4753 67.2869 31.3924C67.2869 28.3095 69.7377 25.8541 72.8148 25.8541C75.8918 25.8541 78.3426 28.3095 78.3426 31.3924C78.3426 34.4753 75.8918 36.9307 72.8148 36.9307ZM100.155 36.8761C97.4587 38.022 94.2727 37.2581 92.5027 35.021L107.806 28.5278L107.207 27.1091C104.838 21.489 99.0653 18.788 93.0745 21.3253C87.0837 23.8625 84.524 30.0829 86.8931 35.703C89.2622 41.3231 95.9338 43.6421 101.952 41.0776C104.729 39.9045 106.989 37.8037 108.215 35.3756L103.776 33.1112C103.014 35.0482 101.816 36.1941 100.155 36.8761ZM94.8717 25.554C97.1319 24.5991 99.3648 25.2539 100.835 26.6726L91.2228 30.7376C91.3317 28.5005 92.6388 26.5089 94.8717 25.554ZM138.877 33.1385C138.142 35.0482 136.916 36.1668 135.282 36.8761C132.586 38.022 129.4 37.2581 127.63 35.021L142.934 28.5278L142.335 27.1091C139.966 21.489 134.193 18.788 128.202 21.3253C122.212 23.8625 119.652 30.0829 122.021 35.703C124.39 41.3231 131.062 43.6421 137.08 41.0776C139.857 39.9045 142.117 37.8037 143.343 35.3756L138.877 33.1385ZM129.972 25.554C132.232 24.5991 134.465 25.2539 135.936 26.6726L126.323 30.7376C126.46 28.5005 127.767 26.5089 129.972 25.554ZM110.475 30.1374V41.8415H115.867V30.7922C115.867 27.4911 117.746 25.8814 120.387 25.8814V20.9979C114.26 20.9979 110.475 25.1721 110.475 30.1374Z" fill="white"/>
</svg>
