<svg width="295" height="100" viewBox="0 0 295 100" fill="none" xmlns="http://www.w3.org/2000/svg">
<path d="M57.1908 63.8937C55.1699 67.1272 52.5932 68.7439 49.5113 68.7439C43.4991 68.7439 39.0026 64.0453 39.0026 57.7805C39.0026 52.3241 42.4887 46.8171 49.1072 46.8171C54.2605 46.8171 56.1298 50.1011 57.1908 51.9199L57.3424 52.223H68.4573L68.2047 51.4652C64.7692 41.2091 55.7761 37.5714 49.1072 37.5714C44.0044 37.5714 38.9016 39.6429 35.1124 43.2805C31.1716 47.0697 28.9991 52.223 28.9991 57.73C28.9991 70.3101 39.4573 78.0906 49.1577 78.0906C57.9486 78.0906 65.0723 72.9878 68.1542 64.5L68.4573 63.6917H57.3424L57.1908 63.8937ZM91.4957 37.5209C80.2796 37.5209 71.3371 46.5645 71.3371 57.7805C71.3371 68.8955 80.2796 78.0401 91.3946 78.0401C102.611 78.0401 111.654 68.946 111.654 57.7805C111.654 46.514 102.611 37.5209 91.4957 37.5209ZM91.5967 68.3903C85.8876 68.3903 81.3406 63.8432 81.3406 58.1342C81.3406 52.4251 85.8876 47.8781 91.5967 47.8781C97.2047 47.8781 101.853 52.4251 101.853 58.1342C101.853 63.8432 97.2047 68.3903 91.5967 68.3903ZM145.302 41.6133C143.029 39.6934 139.189 37.5209 134.44 37.5209C123.477 37.5209 114.989 46.5645 114.989 57.7805C114.989 68.8955 124.032 78.0401 135.147 78.0401C146.363 78.0401 155.407 68.946 155.407 57.7805V21.9094H145.302V41.6133ZM135.097 68.3903C129.388 68.3903 124.841 63.8432 124.841 58.1342C124.841 52.4251 129.388 47.8781 135.097 47.8781C140.806 47.8781 145.353 52.4251 145.353 58.1342C145.353 63.8432 140.806 68.3903 135.097 68.3903ZM185.821 68.2892C180.82 70.4112 174.909 68.9965 171.625 64.8537L200.018 52.8293L198.907 50.2021C194.511 39.7944 183.801 34.7927 172.686 39.4913C161.571 44.1899 156.821 55.7091 161.217 66.1167C165.612 76.5244 177.99 80.8188 189.156 76.0697C194.309 73.8972 198.503 70.007 200.776 65.5105L192.541 61.3171C191.126 64.9042 188.903 67.0261 185.821 68.2892ZM176.02 47.3223C180.213 45.554 184.356 46.7666 187.085 49.3937L169.25 56.9216C169.452 52.7788 171.877 49.0906 176.02 47.3223ZM257.665 61.3676C256.301 64.9042 254.027 66.9756 250.996 68.2892C245.994 70.4112 240.083 68.9965 236.799 64.8537L265.193 52.8293L264.081 50.2021C259.686 39.7944 248.975 34.7927 237.86 39.4913C226.745 44.1899 221.996 55.7091 226.391 66.1167C230.787 76.5244 243.165 80.8188 254.33 76.0697C259.483 73.8972 263.677 70.007 265.95 65.5105L257.665 61.3676ZM241.144 47.3223C245.337 45.554 249.48 46.7666 252.208 49.3937L234.374 56.9216C234.626 52.7788 237.051 49.0906 241.144 47.3223ZM204.97 55.8101V77.4843H214.973V57.0227C214.973 50.9094 218.459 47.9286 223.36 47.9286V38.885C211.992 38.885 204.97 46.615 204.97 55.8101Z" fill="#344049"/>
</svg>
