<svg width="222" height="34" viewBox="0 0 222 34" fill="none" xmlns="http://www.w3.org/2000/svg">
<path d="M188.806 7.32233C188.653 7.11659 188.4 7 188.116 7H185.388C185.022 7 184.674 7.25718 184.578 7.59666L179.117 26.1171C179.038 26.3983 179.083 26.6829 179.243 26.899C179.4 27.1081 179.65 27.2281 179.926 27.2281H182.686C183.034 27.2281 183.403 26.9538 183.495 26.6315L188.929 8.11102C189.011 7.82298 188.967 7.53494 188.81 7.32233H188.806Z" fill="white"/>
<path d="M205.04 20.9459H202.082C202.851 20.0474 203.643 19.1044 204.279 18.3295C205.126 17.3008 206 16.2412 206 14.6947C206 12.8327 204.685 10.8301 201.796 10.8301C199.64 10.8301 198.274 12.5069 198.134 12.6886C197.847 13.0384 197.871 13.5768 198.189 13.8991L198.749 14.4718C198.923 14.6466 199.145 14.7427 199.381 14.7427C199.613 14.7427 199.838 14.6466 200.026 14.4546C200.419 14.026 201.03 13.5185 201.703 13.5185C203.093 13.5185 203.165 14.5575 203.165 14.7667C203.165 15.0616 203.022 15.7268 202.041 16.8378C201.652 17.3076 201.208 17.8425 200.75 18.4015C199.794 19.5674 198.708 20.8841 197.881 21.8409L197.738 22.0054V22.6604C197.738 23.1542 198.141 23.552 198.636 23.552H205.04C205.522 23.552 205.928 23.137 205.928 22.6501V21.8477C205.928 21.3574 205.522 20.9459 205.04 20.9459Z" fill="white"/>
<path d="M20.2796 11.5503H16.4611C16.2118 11.5503 16 11.7698 16 12.0304V22.4308C16 22.6914 16.2118 22.9108 16.4611 22.9108H20.2796C23.4082 22.9108 25.9527 20.3562 25.9527 17.2151C25.9527 14.0741 23.4082 11.5503 20.2796 11.5503ZM22.9949 17.2151C22.9949 18.9297 21.7619 20.2224 20.1225 20.2224H18.8007V14.2215H20.1225C21.7585 14.2215 22.9949 15.5075 22.9949 17.2151Z" fill="white"/>
<path d="M42.3299 11.5503H40.4548C40.1907 11.5503 39.9767 11.7652 39.9767 12.0304V22.4308C39.9767 22.6959 40.1907 22.9108 40.4548 22.9108H42.3299C42.594 22.9108 42.8081 22.6959 42.8081 22.4308V12.0304C42.8081 11.7652 42.594 11.5503 42.3299 11.5503Z" fill="white"/>
<path d="M86.7382 16.8928H83.5925C83.3193 16.8928 83.1144 17.0985 83.1144 17.3729V18.9297C83.1144 19.1903 83.3227 19.3926 83.5925 19.3926H84.3986V19.9961C84.0297 20.1264 83.6335 20.1916 83.1861 20.1916C81.5774 20.1916 80.2693 18.8714 80.2693 17.246C80.2693 15.6206 81.5706 14.2524 83.1724 14.2524C83.9682 14.2524 84.5796 14.4753 85.1158 14.9691C85.3139 15.1165 85.5803 15.1062 85.7784 14.9314L87.0114 13.6146C87.1071 13.5186 87.1549 13.3917 87.148 13.2614C87.1412 13.1311 87.0729 13.0042 86.9704 12.9253C85.8775 11.9721 84.4054 11.4028 83.0358 11.4028C79.8389 11.4028 77.2363 14.0226 77.2363 17.2391C77.2363 20.4556 79.7843 23.0446 83.0358 23.0446C85.331 23.0446 86.9465 22.0398 87.0251 21.9884C87.1344 21.9061 87.2232 21.7278 87.2232 21.5906L87.2061 17.366C87.2061 17.1054 86.9943 16.8859 86.745 16.8859L86.7382 16.8928Z" fill="white"/>
<path d="M102.507 11.3926C99.3106 11.3926 96.708 14.0193 96.708 17.246C96.708 20.4728 99.2559 23.0652 102.507 23.0652C105.759 23.0652 108.321 20.5071 108.321 17.246C108.321 13.985 105.711 11.3926 102.507 11.3926ZM102.507 14.2696C104.133 14.2696 105.458 15.6035 105.458 17.246C105.458 18.8885 104.137 20.1916 102.507 20.1916C100.878 20.1916 99.5736 18.8714 99.5736 17.246C99.5736 15.6206 100.889 14.2696 102.507 14.2696Z" fill="white"/>
<path d="M127.29 11.5503H125.412C125.149 11.5503 124.934 11.7663 124.934 12.0304V17.198L118.929 11.396H118.465C118.205 11.396 117.986 11.6086 117.986 11.8589L118.004 22.4308C118.004 22.6845 118.226 22.9108 118.482 22.9108H120.343C120.606 22.9108 120.821 22.6948 120.821 22.4308V16.9923L126.71 22.9349C126.778 23.0034 126.952 23.0652 127.041 23.0652H127.29C127.55 23.0652 127.768 22.8526 127.768 22.6022V12.0304C127.768 11.7766 127.546 11.5503 127.29 11.5503Z" fill="white"/>
<path d="M166.903 20.2396H163.358V12.0304C163.358 11.7766 163.136 11.5503 162.88 11.5503H161.018C160.755 11.5503 160.54 11.7663 160.54 12.0304V22.4308C160.54 22.6948 160.755 22.9108 161.018 22.9108H166.903C167.166 22.9108 167.381 22.6948 167.381 22.4308V20.7197C167.381 20.4556 167.166 20.2396 166.903 20.2396Z" fill="white"/>
<path d="M62.4711 11.5881C62.3618 11.3687 62.1261 11.2178 61.8871 11.2178H61.7299C61.4909 11.2178 61.2586 11.3652 61.1425 11.595L56.2447 22.1668C56.149 22.376 56.1627 22.6057 56.2788 22.7875C56.395 22.9692 56.6033 23.079 56.8321 23.079H58.5535C58.9566 23.079 59.2879 22.8561 59.4416 22.4926L59.9095 21.4467H63.7075L64.1789 22.4857C64.3257 22.7943 64.5307 23.0824 65.0464 23.0824H66.7815C67.0137 23.0824 67.2186 22.9727 67.3348 22.7909C67.4509 22.6092 67.4645 22.376 67.3689 22.1703L62.4677 11.5881H62.4711ZM63.4206 19.5127H60.1964L61.7983 15.2298L63.4206 19.5127Z" fill="white"/>
<path d="M143.934 11.5881C143.824 11.3687 143.589 11.2178 143.35 11.2178H143.193C142.954 11.2178 142.721 11.3652 142.605 11.595L137.707 22.1668C137.612 22.376 137.625 22.6057 137.742 22.7875C137.858 22.9692 138.066 23.079 138.295 23.079H140.016C140.419 23.079 140.751 22.8561 140.904 22.4926L141.372 21.4467H145.17L145.642 22.4857C145.788 22.7943 145.993 23.0824 146.509 23.0824H148.248C148.48 23.0824 148.685 22.9727 148.801 22.7909C148.917 22.6092 148.931 22.376 148.835 22.1703L143.934 11.5881ZM144.883 19.5127H141.659L143.261 15.2298L144.883 19.5127Z" fill="white"/>
</svg>
