<svg width="295" height="100" viewBox="0 0 295 100" fill="none" xmlns="http://www.w3.org/2000/svg">
<g clip-path="url(#clip0_271_8634)">
<path d="M255.2 36.4462C254.988 36.1614 254.638 36 254.245 36H250.468C249.962 36 249.48 36.356 249.348 36.8259L241.788 62.4621C241.679 62.8513 241.741 63.2453 241.963 63.5443C242.18 63.8339 242.525 64 242.908 64H246.728C247.211 64 247.721 63.6203 247.849 63.1741L255.371 37.5379C255.484 37.1392 255.423 36.7405 255.205 36.4462H255.2Z" fill="#FCB300"/>
<path d="M277.671 55.3043H273.577C274.641 54.0607 275.738 52.7553 276.617 51.6826C277.79 50.2587 279 48.792 279 46.6513C279 44.0739 277.18 41.3019 273.18 41.3019C270.197 41.3019 268.306 43.623 268.112 43.8745C267.715 44.3587 267.748 45.1039 268.188 45.5501L268.963 46.3427C269.204 46.5848 269.511 46.7177 269.838 46.7177C270.159 46.7177 270.471 46.5848 270.731 46.319C271.275 45.7257 272.121 45.0232 273.053 45.0232C274.977 45.0232 275.076 46.4614 275.076 46.7509C275.076 47.1591 274.877 48.08 273.521 49.6179C272.982 50.2681 272.367 51.0086 271.733 51.7823C270.41 53.3961 268.906 55.2188 267.762 56.5431L267.564 56.7709V57.6775C267.564 58.361 268.121 58.9116 268.807 58.9116H277.671C278.338 58.9116 278.901 58.3373 278.901 57.6633V56.5526C278.901 55.8738 278.338 55.3043 277.671 55.3043Z" fill="black"/>
<path d="M21.9239 42.2987H16.6382C16.2931 42.2987 16 42.6025 16 42.9632V57.3596C16 57.7203 16.2931 58.0241 16.6382 58.0241H21.9239C26.2545 58.0241 29.7767 54.4879 29.7767 50.14C29.7767 45.7922 26.2545 42.2987 21.9239 42.2987ZM25.6824 50.14C25.6824 52.5133 23.9757 54.3028 21.7064 54.3028H19.8768V45.9963H21.7064C23.971 45.9963 25.6824 47.7762 25.6824 50.14Z" fill="black"/>
<path d="M52.4462 42.2987H49.8507C49.4851 42.2987 49.1888 42.5962 49.1888 42.9632V57.3596C49.1888 57.7266 49.4851 58.0241 49.8507 58.0241H52.4462C52.8118 58.0241 53.1081 57.7266 53.1081 57.3596V42.9632C53.1081 42.5962 52.8118 42.2987 52.4462 42.2987Z" fill="black"/>
<path d="M113.916 49.6939H109.562C109.184 49.6939 108.9 49.9787 108.9 50.3584V52.5133C108.9 52.8741 109.189 53.1541 109.562 53.1541H110.678V53.9895C110.167 54.1699 109.619 54.2601 109 54.2601C106.773 54.2601 104.962 52.4326 104.962 50.1828C104.962 47.9329 106.763 46.039 108.981 46.039C110.082 46.039 110.928 46.3475 111.671 47.031C111.945 47.2351 112.314 47.2209 112.588 46.9788L114.295 45.1561C114.427 45.0232 114.493 44.8476 114.484 44.6672C114.474 44.4869 114.38 44.3113 114.238 44.2021C112.725 42.8825 110.687 42.0946 108.792 42.0946C104.366 42.0946 100.764 45.721 100.764 50.1733C100.764 54.6255 104.291 58.2092 108.792 58.2092C111.969 58.2092 114.205 56.8185 114.314 56.7473C114.465 56.6333 114.588 56.3865 114.588 56.1967L114.564 50.3489C114.564 49.9881 114.271 49.6844 113.926 49.6844L113.916 49.6939Z" fill="black"/>
<path d="M135.744 42.0803C131.319 42.0803 127.717 45.7162 127.717 50.1827C127.717 54.6492 131.244 58.2376 135.744 58.2376C140.245 58.2376 143.791 54.6967 143.791 50.1827C143.791 45.6687 140.179 42.0803 135.744 42.0803ZM135.744 46.0627C137.995 46.0627 139.829 47.9091 139.829 50.1827C139.829 52.4563 138 54.26 135.744 54.26C133.489 54.26 131.683 52.4326 131.683 50.1827C131.683 47.9328 133.503 46.0627 135.744 46.0627Z" fill="black"/>
<path d="M170.049 42.2987H167.449C167.085 42.2987 166.787 42.5977 166.787 42.9632V50.1163L158.475 42.0851H157.833C157.473 42.0851 157.171 42.3794 157.171 42.7259L157.194 57.3595C157.194 57.7108 157.502 58.0241 157.856 58.0241H160.433C160.797 58.0241 161.095 57.725 161.095 57.3595V49.8315L169.245 58.0573C169.34 58.1522 169.581 58.2376 169.704 58.2376H170.049C170.408 58.2376 170.711 57.9434 170.711 57.5969V42.9632C170.711 42.612 170.404 42.2987 170.049 42.2987Z" fill="black"/>
<path d="M224.881 54.3265H219.974V42.9632C219.974 42.612 219.667 42.2987 219.312 42.2987H216.736C216.372 42.2987 216.074 42.5977 216.074 42.9632V57.3596C216.074 57.725 216.372 58.0241 216.736 58.0241H224.881C225.246 58.0241 225.543 57.725 225.543 57.3596V54.991C225.543 54.6255 225.246 54.3265 224.881 54.3265Z" fill="black"/>
<path d="M80.3258 42.3509C80.1745 42.0471 79.8483 41.8383 79.5173 41.8383H79.2998C78.9689 41.8383 78.6474 42.0424 78.4867 42.3604L71.7071 56.994C71.5747 57.2836 71.5936 57.6016 71.7543 57.8532C71.9151 58.1047 72.2035 58.2566 72.5202 58.2566H74.903C75.4609 58.2566 75.9195 57.9481 76.1322 57.445L76.7799 55.9973H82.0372L82.6896 57.4355C82.8929 57.8627 83.1766 58.2614 83.8905 58.2614H86.2922C86.6137 58.2614 86.8973 58.1095 87.0581 57.8579C87.2188 57.6064 87.2377 57.2836 87.1053 56.9988L80.321 42.3509H80.3258ZM81.6401 53.3202H77.1771L79.3944 47.3917L81.6401 53.3202Z" fill="black"/>
<path d="M193.087 42.3509C192.936 42.0471 192.61 41.8383 192.279 41.8383H192.061C191.73 41.8383 191.409 42.0424 191.248 42.3604L184.469 56.994C184.336 57.2836 184.355 57.6016 184.516 57.8532C184.677 58.1047 184.965 58.2566 185.282 58.2566H187.665C188.222 58.2566 188.681 57.9481 188.894 57.445L189.542 55.9973H194.799L195.451 57.4355C195.655 57.8627 195.938 58.2614 196.652 58.2614H199.059C199.38 58.2614 199.664 58.1095 199.824 57.8579C199.985 57.6064 200.004 57.2836 199.872 56.9988L193.087 42.3509ZM194.402 53.3202H189.939L192.156 47.3917L194.402 53.3202Z" fill="black"/>
</g>
<defs>
<clipPath id="clip0_271_8634">
<rect width="263" height="28" fill="white" transform="translate(16 36)"/>
</clipPath>
</defs>
</svg>
