<svg width="202" height="50" viewBox="0 0 202 50" fill="none" xmlns="http://www.w3.org/2000/svg">
<path d="M139.129 25.0325C139.129 30.6135 134.827 35.7848 127.025 39.5903C119.524 43.2518 109.568 45.2705 99.0056 45.2705C88.4437 45.2705 78.4912 43.2518 70.9898 39.5903C63.1864 35.7848 58.8881 30.6098 58.8881 25.0325C58.8881 19.4552 63.1827 14.2801 70.9898 10.4746C78.4912 6.81319 88.4474 4.79443 99.0094 4.79443C109.571 4.79443 119.524 6.81319 127.029 10.4746C134.834 14.2801 139.132 19.4552 139.132 25.0325M126.755 39.0421C134.339 35.3433 138.514 30.3684 138.514 25.0325C138.514 19.6965 134.339 14.7198 126.755 11.0247C119.331 7.40253 109.476 5.41185 99 5.41185C88.5243 5.41185 78.6712 7.40815 71.2448 11.0247C63.6759 14.7198 59.4958 19.6965 59.4958 25.0325C59.4958 30.3684 63.6759 35.3433 71.2617 39.0402C78.6862 42.6624 88.5412 44.6531 99.0169 44.6531C109.493 44.6531 119.336 42.6624 126.761 39.0402L126.755 39.0421Z" fill="white"/>
<path d="M99.0075 6.104C120.443 6.104 137.827 14.5775 137.827 25.0342C137.827 35.491 120.443 43.9664 99.0075 43.9664C77.5722 43.9664 60.1877 35.491 60.1877 25.0342C60.1877 14.5775 77.5628 6.104 99.0075 6.104ZM65.3055 25.0324C65.3055 34.563 80.3927 42.2881 99.0075 42.2881C117.622 42.2881 132.708 34.5742 132.708 25.0324C132.708 15.4905 117.618 7.77476 99.0075 7.77476C80.3965 7.77476 65.3037 15.4999 65.3037 25.0324" fill="white"/>
<path d="M128.169 19.4629L125.09 30.9411L120.627 30.9505L121.787 26.6361L117.607 26.6342L116.446 30.943L112.032 30.9542L115.074 19.4517L119.601 19.4666L118.384 23.3208L122.665 23.3264L123.822 19.4554L128.169 19.4629Z" fill="white"/>
<path d="M85.9193 19.4292L82.84 30.9524L78.3767 30.9393L79.5375 26.6267L75.3592 26.6249L74.1984 30.9561L69.7838 30.943L72.8256 19.4647L77.3527 19.4554L76.1338 23.3114L80.4377 23.2946L81.5723 19.4442L85.9193 19.4292Z" fill="white"/>
<path d="M96.6821 19.4478L98.5574 30.9466H94.0809L93.9684 29.5378H89.5407L88.6556 30.956L83.7215 30.941L91.883 19.4571L96.6821 19.4478ZM91.5436 26.3272H93.6946L93.5071 23.1129L91.5436 26.3272Z" fill="white"/>
<path d="M108.63 23.4161C108.581 22.6134 108.238 21.9867 107.366 21.6705C105.974 21.1653 104.146 22.2224 103.739 24.3347C103.445 25.8483 102.929 27.8895 105.003 28.5238C106.141 28.8736 107.518 28.2525 108.129 26.4489H112.096C111.647 27.7118 110.89 28.926 109.764 29.7605C106.897 31.8896 101.543 31.4013 100.024 29.3152C98.126 26.6958 98.8049 22.2711 102.109 20.1475C104.885 18.3683 110.207 18.415 111.977 20.9539C112.352 21.4778 112.583 22.3852 112.602 23.4067H108.63" fill="white"/>
<path d="M143.106 16.4825C143.106 16.9908 142.955 17.4877 142.671 17.9102C142.388 18.3327 141.985 18.6619 141.514 18.8561C141.044 19.0504 140.525 19.1011 140.026 19.0017C139.526 18.9023 139.067 18.6573 138.707 18.2977C138.347 17.9381 138.102 17.48 138.002 16.9814C137.903 16.4828 137.954 15.966 138.149 15.4964C138.344 15.0268 138.675 14.6254 139.098 14.343C139.522 14.0606 140.02 13.9099 140.53 13.9099C140.863 13.9052 141.195 13.9662 141.505 14.0894C141.815 14.2126 142.098 14.3956 142.338 14.6279C142.577 14.8602 142.768 15.1373 142.9 15.4433C143.032 15.7493 143.102 16.0783 143.106 16.4114V16.4825ZM138.354 16.4825C138.361 16.9101 138.495 17.3262 138.738 17.6784C138.981 18.0306 139.323 18.3032 139.722 18.462C140.12 18.6209 140.556 18.6588 140.975 18.5711C141.395 18.4834 141.779 18.2739 142.08 17.969C142.381 17.6642 142.584 17.2774 142.665 16.8574C142.747 16.4374 142.701 16.0029 142.536 15.6084C142.37 15.2139 142.091 14.877 141.734 14.6401C141.377 14.4031 140.958 14.2767 140.53 14.2766C140.24 14.2738 139.953 14.3291 139.685 14.4394C139.418 14.5497 139.175 14.7127 138.972 14.9186C138.769 15.1244 138.61 15.369 138.504 15.6377C138.397 15.9064 138.347 16.1937 138.354 16.4825ZM139.961 17.9661H139.596V14.9951H140.734C141.405 14.9951 141.704 15.2851 141.704 15.8183C141.704 16.3515 141.357 16.5667 140.953 16.6471L141.839 17.9568H141.407L140.569 16.6471H139.954L139.961 17.9661ZM140.447 16.3365C140.897 16.3365 141.342 16.3234 141.342 15.8183C141.342 15.4029 140.995 15.3131 140.633 15.3131H139.961V16.3422L140.447 16.3365Z" fill="white"/>
</svg>
