<svg width="192" height="65" viewBox="0 0 192 65" fill="none" xmlns="http://www.w3.org/2000/svg">
<path d="M130.593 35.2918C138.554 35.2918 145.008 28.8465 145.008 20.8959C145.008 12.9453 138.554 6.5 130.593 6.5C122.632 6.5 116.178 12.9453 116.178 20.8959C116.178 28.8465 122.632 35.2918 130.593 35.2918Z" fill="white"/>
<path d="M96 35.2918C103.961 35.2918 110.415 28.8465 110.415 20.8959C110.415 12.9453 103.961 6.5 96 6.5C88.0389 6.5 81.5853 12.9453 81.5853 20.8959C81.5853 28.8465 88.0389 35.2918 96 35.2918Z" fill="white"/>
<path d="M61.4103 35.2918C69.3713 35.2918 75.8249 28.8465 75.8249 20.8959C75.8249 12.9453 69.3713 6.5 61.4103 6.5C53.4492 6.5 46.9956 12.9453 46.9956 20.8959C46.9956 28.8465 53.4492 35.2918 61.4103 35.2918Z" fill="white"/>
<path d="M48.8004 53.2097H51.4489C51.6045 55.1883 53.1397 56.2242 55.1209 56.2242C56.746 56.2242 58.1947 55.5336 58.1947 53.959C58.1947 52.9231 57.5689 52.2324 55.8332 51.8871L53.6756 51.4417C51.0928 50.9099 49.1324 49.9741 49.1324 47.1081C49.1324 44.3456 51.6495 42.4844 54.7648 42.4844C58.0806 42.4844 60.5078 44.3732 60.6185 47.3739H57.9699C57.8144 45.6854 56.4348 44.7289 54.6749 44.7289C53.119 44.7289 51.8258 45.6163 51.8258 46.9078C51.8258 47.8194 52.3617 48.4858 53.8762 48.8173L56.7909 49.4423C59.9027 50.1088 60.8882 51.6627 60.8882 53.6447C60.8882 56.7111 58.2396 58.4791 55.076 58.4791C51.5388 58.4998 48.8454 56.4763 48.8004 53.2097Z" fill="white"/>
<path d="M73.5533 53.21H64.9093C65.1099 54.9883 66.1783 56.3005 68.1145 56.3005C69.6047 56.3005 70.4726 55.565 70.7388 54.574H73.4357C73.1211 56.7978 71.0535 58.4863 68.0696 58.4863C64.5082 58.4863 62.2608 55.9069 62.2608 52.5297C62.2608 49.1526 64.5359 46.6284 68.0869 46.6284C71.4061 46.6284 73.5879 49.0076 73.5879 52.1534C73.5982 52.5643 73.574 52.9855 73.5533 53.21ZM65.0269 51.2763H70.9497C70.5487 49.5497 69.5218 48.828 68.0765 48.828C66.4307 48.828 65.383 49.8294 65.0269 51.2763Z" fill="white"/>
<path d="M75.002 52.5436C75.002 49.1837 77.2944 46.6284 80.9007 46.6284C83.8604 46.6284 86.132 48.4275 86.3533 51.0069H83.646C83.4005 49.7638 82.3978 48.8729 80.8626 48.8729C78.7881 48.8729 77.5883 50.4959 77.5883 52.5436C77.5883 54.5912 78.8054 56.2556 80.8799 56.2556C82.4151 56.2556 83.4385 55.344 83.6633 54.0767H86.3533C85.9557 56.6769 83.8604 58.5001 80.9007 58.5001C77.291 58.5001 75.002 55.8792 75.002 52.5436Z" fill="white"/>
<path d="M87.7744 53.2304V46.8491H90.3122V52.9645C90.3122 55.0364 91.0937 56.3002 92.8743 56.3002C94.8106 56.3002 95.7234 54.698 95.7234 52.6296V46.8491H98.2612V58.2961H95.7476V57.0046C95.3227 57.5007 94.791 57.8945 94.1922 58.1564C93.5935 58.4183 92.9432 58.5416 92.29 58.5171C89.1781 58.4998 87.7744 56.5005 87.7744 53.2304Z" fill="white"/>
<path d="M100.329 58.2964V46.8667H102.867V48.5138C103.69 47.1119 105.028 46.8667 106.431 46.8667H106.777V49.2839H106.532C104.326 49.2839 102.856 49.9745 102.856 52.6851V58.2964H100.329Z" fill="white"/>
<path d="M108.098 43.8485C108.117 43.4422 108.292 43.059 108.587 42.7782C108.881 42.4975 109.273 42.3408 109.68 42.3408C110.087 42.3408 110.479 42.4975 110.773 42.7782C111.068 43.059 111.243 43.4422 111.262 43.8485C111.272 44.0621 111.238 44.2756 111.163 44.476C111.088 44.6764 110.973 44.8594 110.826 45.0142C110.678 45.1689 110.5 45.2921 110.303 45.3763C110.106 45.4605 109.894 45.5038 109.68 45.5038C109.466 45.5038 109.254 45.4605 109.057 45.3763C108.86 45.2921 108.682 45.1689 108.534 45.0142C108.386 44.8594 108.272 44.6764 108.197 44.476C108.122 44.2756 108.088 44.0621 108.098 43.8485ZM108.409 58.2789V46.8492H110.961V58.2962L108.409 58.2789Z" fill="white"/>
<path d="M118.384 58.2965C116.068 58.2965 114.443 57.1155 114.443 54.4704V49.0284H112.462V46.8495H114.443V43.6934H116.981V46.8495H119.83V49.0284H116.981V54.2771C116.981 55.0333 117.326 56.0554 118.561 56.0554H120.009V58.2965H118.384Z" fill="white"/>
<path d="M121.144 55.0781C121.144 52.4987 123.218 51.4524 126.019 51.4524H128.823V50.8757C128.823 49.5635 127.844 48.6519 126.42 48.6519C125.172 48.6519 124.214 49.2977 123.999 50.2749H121.417C121.683 47.8577 123.837 46.6284 126.537 46.6284C129.452 46.6284 131.323 48.317 131.323 51.1623V55.1437C131.323 55.7653 131.634 56.1209 132.235 56.1209H132.502V58.2964H131.464C130.396 58.2964 129.39 58.0271 129.193 56.7598C128.235 58.0512 126.831 58.5174 125.341 58.5174C122.945 58.5001 121.144 57.3882 121.144 55.0781ZM128.823 53.7418V53.2963H125.749C124.75 53.2963 123.726 53.7659 123.726 54.9434C123.726 56.1209 124.66 56.5664 125.773 56.5664C127.689 56.5699 128.823 55.4545 128.823 53.7418Z" fill="white"/>
<path d="M133.387 54.5427L135.835 54.522C136.035 55.7444 137.035 56.4765 138.504 56.4765C139.486 56.4765 140.665 56.1312 140.665 54.9882C140.665 54.2078 140.108 53.8763 138.86 53.6553L136.858 53.31C135.454 53.0683 133.608 52.4882 133.608 50.2885C133.608 48.3099 135.41 46.6421 138.262 46.6421C141.599 46.6421 142.982 48.821 143.002 50.3783H140.554C140.33 49.2872 139.396 48.6518 138.172 48.6518C136.858 48.6518 136.098 49.3424 136.098 50.0745C136.098 50.7202 136.589 50.9861 137.367 51.1104L139.88 51.5765C142.041 51.9771 143.199 53.0199 143.199 54.7534C143.199 57.357 140.862 58.4896 138.435 58.4896C135.945 58.5 133.629 57.2983 133.387 54.5427Z" fill="white"/>
</svg>
