<svg width="295" height="100" viewBox="0 0 295 100" fill="none" xmlns="http://www.w3.org/2000/svg">
<path d="M200.651 54.2951C212.883 54.2951 222.798 44.3793 222.798 32.1476C222.798 19.9158 212.883 10 200.651 10C188.419 10 178.503 19.9158 178.503 32.1476C178.503 44.3793 188.419 54.2951 200.651 54.2951Z" fill="#FC273F"/>
<path d="M147.5 54.2951C159.732 54.2951 169.648 44.3793 169.648 32.1476C169.648 19.9158 159.732 10 147.5 10C135.268 10 125.352 19.9158 125.352 32.1476C125.352 44.3793 135.268 54.2951 147.5 54.2951Z" fill="#FC273F"/>
<path d="M94.3544 54.2951C106.586 54.2951 116.502 44.3793 116.502 32.1476C116.502 19.9158 106.586 10 94.3544 10C82.1226 10 72.2068 19.9158 72.2068 32.1476C72.2068 44.3793 82.1226 54.2951 94.3544 54.2951Z" fill="#FC273F"/>
<path d="M74.9799 81.8613H79.0492C79.2883 84.9053 81.647 86.499 84.691 86.499C87.1879 86.499 89.4138 85.4365 89.4138 83.0141C89.4138 81.4203 88.4522 80.3579 85.7854 79.8266L82.4704 79.1413C78.502 78.3232 75.4899 76.8835 75.4899 72.4742C75.4899 68.2242 79.3573 65.3608 84.1438 65.3608C89.2385 65.3608 92.9678 68.2667 93.1378 72.8833H89.0685C88.8294 70.2855 86.7098 68.8139 84.0057 68.8139C81.6151 68.8139 79.6283 70.1792 79.6283 72.1661C79.6283 73.5686 80.4517 74.5939 82.7785 75.1039L87.2569 76.0654C92.0381 77.0907 93.5522 79.4813 93.5522 82.5306C93.5522 87.2481 89.4828 89.9681 84.622 89.9681C79.1873 89.9999 75.049 86.8868 74.9799 81.8613Z" fill="#031F30"/>
<path d="M113.012 81.8613H99.7306C100.039 84.5973 101.68 86.616 104.655 86.616C106.945 86.616 108.278 85.4844 108.687 83.9598H112.831C112.348 87.381 109.171 89.9788 104.586 89.9788C99.1143 89.9788 95.6612 86.0104 95.6612 80.8148C95.6612 75.6192 99.1568 71.7358 104.613 71.7358C109.713 71.7358 113.065 75.3961 113.065 80.2357C113.081 80.8679 113.044 81.516 113.012 81.8613ZM99.9112 78.8864H109.011C108.395 76.2302 106.817 75.1199 104.597 75.1199C102.068 75.1199 100.458 76.6605 99.9112 78.8864Z" fill="#031F30"/>
<path d="M115.238 80.836C115.238 75.667 118.76 71.7358 124.301 71.7358C128.848 71.7358 132.338 74.5036 132.678 78.472H128.519C128.141 76.5595 126.601 75.1889 124.242 75.1889C121.055 75.1889 119.211 77.6858 119.211 80.836C119.211 83.9863 121.081 86.5469 124.269 86.5469C126.627 86.5469 128.2 85.1444 128.545 83.1948H132.678C132.067 87.195 128.848 90 124.301 90C118.754 90 115.238 85.9679 115.238 80.836Z" fill="#031F30"/>
<path d="M134.862 81.8933V72.0759H138.761V81.4843C138.761 84.6717 139.962 86.6161 142.698 86.6161C145.673 86.6161 147.075 84.1511 147.075 80.9689V72.0759H150.974V89.6867H147.112V87.6998C146.459 88.463 145.642 89.0687 144.722 89.4717C143.803 89.8746 142.803 90.0643 141.8 90.0267C137.019 90.0001 134.862 86.9242 134.862 81.8933Z" fill="#031F30"/>
<path d="M154.151 89.6865V72.1023H158.051V74.6363C159.315 72.4795 161.371 72.1023 163.528 72.1023H164.059V75.821H163.682C160.292 75.821 158.035 76.8835 158.035 81.0538V89.6865H154.151Z" fill="#031F30"/>
<path d="M166.088 67.4593C166.117 66.8344 166.386 66.2447 166.839 65.8128C167.291 65.3809 167.893 65.1399 168.519 65.1399C169.144 65.1399 169.746 65.3809 170.198 65.8128C170.651 66.2447 170.92 66.8344 170.949 67.4593C170.964 67.7881 170.913 68.1165 170.798 68.4248C170.683 68.733 170.506 69.0147 170.279 69.2528C170.052 69.4909 169.778 69.6804 169.476 69.8098C169.173 69.9393 168.848 70.0061 168.519 70.0061C168.19 70.0061 167.864 69.9393 167.561 69.8098C167.259 69.6804 166.986 69.4909 166.758 69.2528C166.531 69.0147 166.355 68.733 166.24 68.4248C166.124 68.1165 166.073 67.7881 166.088 67.4593ZM166.566 89.66V72.0758H170.487V89.6866L166.566 89.66Z" fill="#031F30"/>
<path d="M181.893 89.6865C178.333 89.6865 175.837 87.8697 175.837 83.8003V75.4279H172.792V72.0758H175.837V67.2202H179.736V72.0758H184.113V75.4279H179.736V83.5028C179.736 84.6663 180.267 86.2387 182.164 86.2387H184.39V89.6865H181.893Z" fill="#031F30"/>
<path d="M186.132 84.7354C186.132 80.767 189.32 79.1573 193.623 79.1573H197.931V78.2701C197.931 76.2514 196.428 74.8489 194.239 74.8489C192.321 74.8489 190.849 75.8424 190.52 77.3458H186.552C186.961 73.6271 190.27 71.7358 194.419 71.7358C198.898 71.7358 201.772 74.3336 201.772 78.7111V84.8363C201.772 85.7925 202.25 86.3397 203.174 86.3397H203.583V89.6866H201.99C200.348 89.6866 198.802 89.2722 198.499 87.3225C197.028 89.3094 194.871 90.0266 192.581 90.0266C188.9 90 186.132 88.2894 186.132 84.7354ZM197.931 82.6795V81.9942H193.208C191.673 81.9942 190.1 82.7166 190.1 84.5282C190.1 86.3397 191.535 87.025 193.245 87.025C196.188 87.0304 197.931 85.3144 197.931 82.6795Z" fill="#031F30"/>
<path d="M204.943 83.9119L208.705 83.8801C209.013 85.7607 210.548 86.8869 212.806 86.8869C214.315 86.8869 216.126 86.3557 216.126 84.5972C216.126 83.3966 215.271 82.8866 213.353 82.5466L210.277 82.0154C208.12 81.6435 205.283 80.751 205.283 77.367C205.283 74.323 208.051 71.7571 212.434 71.7571C217.56 71.7571 219.685 75.1092 219.717 77.5051H215.956C215.611 75.8264 214.176 74.8489 212.296 74.8489C210.277 74.8489 209.108 75.9114 209.108 77.0376C209.108 78.0311 209.863 78.4401 211.058 78.6314L214.92 79.3486C218.24 79.9648 220.02 81.5692 220.02 84.236C220.02 88.2416 216.429 89.9841 212.7 89.9841C208.875 90 205.315 88.1513 204.943 83.9119Z" fill="#031F30"/>
</svg>
