<svg width="295" height="100" viewBox="0 0 295 100" fill="none" xmlns="http://www.w3.org/2000/svg">
<path d="M64.1529 46.5869C63.3707 45.3611 62.3005 44.3451 61.0358 43.6276C59.9238 43.0182 58.6736 42.7057 57.4057 42.7201C54.6831 42.7201 52.7497 44.0616 52.7497 45.9556C52.7497 47.8496 53.6572 48.1258 56.4981 48.7965L60.4439 49.7041C62.4564 50.0482 64.3689 50.8294 66.0469 51.9926C66.8837 52.66 67.5519 53.5149 67.9974 54.4882C68.4429 55.4615 68.6533 56.5259 68.6116 57.5955C68.6116 62.6066 64.3107 66 57.9581 66C54.7195 66.1838 51.516 65.2506 48.8829 63.3563C47.8025 62.5476 46.8683 61.5601 46.1208 60.4365L50.0666 57.4772C50.9226 58.9025 52.2068 60.021 53.7361 60.6732C55.097 61.2482 56.5596 61.5435 58.037 61.5413C60.9963 61.5413 62.9297 60.1603 62.9297 57.9901C62.9297 55.82 61.7065 55.2281 58.5894 54.5573L55.1566 53.8076C49.7115 52.6634 47.2651 50.4143 47.2651 46.3896C47.2651 41.5758 51.2108 38.3008 57.1689 38.3008C60.1442 38.2287 63.0498 39.2066 65.3761 41.0629C66.2678 41.8273 67.0867 42.6727 67.8224 43.5881L64.1529 46.5869Z" fill="#333333"/>
<path d="M78.0024 65.2109H73.1886V39.0901H82.6978C88.8137 39.0901 92.5227 42.3256 92.5227 47.6918C92.549 49.1453 92.1996 50.5809 91.5084 51.8597C90.8171 53.1386 89.8074 54.2173 88.577 54.9914C86.8969 56.0937 84.8985 56.6072 82.8951 56.4514H78.0024V65.2109ZM81.9481 52.2689C85.6966 52.2689 87.5116 50.73 87.5116 47.4945C87.5116 44.259 85.8939 43.2331 82.3427 43.2331H78.0024V52.2689H81.9481Z" fill="#333333"/>
<path d="M101.559 65.211H96.7448V39.0901H106.727C108.181 38.9069 109.657 39.0767 111.03 39.5849C112.404 40.0932 113.635 40.925 114.619 42.01C115.828 43.5546 116.493 45.4545 116.513 47.4157C116.538 48.5288 116.309 49.6331 115.845 50.6448C115.38 51.6565 114.691 52.5493 113.83 53.2554C113.053 53.8467 112.205 54.3372 111.305 54.7153L117.026 65.211H111.581L106.412 55.5044H101.559V65.211ZM106.215 51.3614C109.49 51.3614 111.383 49.8226 111.383 47.1789C111.383 44.5353 109.529 43.2332 106.333 43.2332H101.559V51.3614H106.215Z" fill="#333333"/>
<path d="M127.798 39.0901H122.866V65.2109H127.798V39.0901Z" fill="#333333"/>
<path d="M155.023 65.2109H150.644L139.635 47.2972V65.2109H134.979V39.0901H139.635L150.407 56.7276V39.0901H155.023V65.2109Z" fill="#333333"/>
<path d="M184.34 65.2108H180.395V62.9617C179.707 63.6058 178.953 64.1745 178.145 64.6584C176.548 65.5308 174.758 65.9919 172.937 65.9999C171.225 65.9479 169.542 65.546 167.992 64.8189C166.441 64.0919 165.056 63.0551 163.921 61.7725C162.786 60.4898 161.926 58.9884 161.393 57.3607C160.86 55.7331 160.667 54.0136 160.824 52.3082C160.66 50.5471 160.863 48.7713 161.419 47.0923C161.975 45.4134 162.872 43.8675 164.054 42.552C165.236 41.2365 166.678 40.1797 168.288 39.4481C169.898 38.7165 171.642 38.3259 173.411 38.3008C174.979 38.2761 176.537 38.5634 177.993 39.146C179.449 39.7285 180.775 40.5947 181.894 41.6941C182.999 42.8895 183.845 44.2999 184.38 45.8372L179.882 47.6917C179.53 46.218 178.685 44.9091 177.486 43.983C176.287 43.0569 174.807 42.5694 173.292 42.6016C168.873 42.6016 166.032 46.3106 166.032 51.9925C166.032 57.6744 168.952 61.4229 173.489 61.4229C174.321 61.4439 175.149 61.2982 175.924 60.9944C176.698 60.6905 177.404 60.2346 178 59.6536C178.596 59.0726 179.069 58.3782 179.392 57.6114C179.716 56.8445 179.882 56.0207 179.882 55.1886H173.371V50.9666H184.34V65.2108Z" fill="#333333"/>
<path d="M208.488 43.391H195.546V49.9803H206.713V53.9261H195.546V65.2109H190.93V39.0901H208.686L208.488 43.391Z" fill="#333333"/>
<path d="M217.84 39.0901H213.026V65.2109H217.84V39.0901Z" fill="#333333"/>
<path d="M243.132 43.391H229.401V49.5858H242.224V53.7683H229.598V60.9101H244.434V65.2109H224.705V39.0901H243.25L243.132 43.391Z" fill="#333333"/>
<path d="M254.062 60.9101H264.873V65.2109H249.09V39.0901H254.062V60.9101Z" fill="#333333"/>
<path d="M268.621 39.0901H276.513C279.12 38.8783 281.736 39.3688 284.089 40.5105C285.194 41.1211 286.172 41.9382 286.969 42.9174C289.053 45.5898 290.104 48.924 289.928 52.3083C290.158 54.5728 289.742 56.8559 288.73 58.8945C287.718 60.933 286.15 62.6439 284.207 63.8299C281.828 64.8894 279.233 65.3759 276.631 65.2504H268.74L268.621 39.0901ZM276.197 60.91C280.577 60.91 282.51 60.1998 283.615 58.148C284.533 56.2322 284.94 54.1121 284.799 51.9927C284.799 45.7189 282.392 43.2726 276.197 43.2726H273.435V60.91H276.197Z" fill="#333333"/>
<path d="M47.5018 46.2317C47.5018 50.1775 49.8693 52.5055 55.3933 53.6892L58.8261 54.4389C61.9827 55.1097 63.1664 56.0961 63.1664 57.8322C63.1664 59.5684 61.2725 61.4229 58.2737 61.4229C56.8088 61.4285 55.3583 61.133 54.0123 60.5548C52.4862 59.8812 51.195 58.7686 50.3033 57.3588L46.1603 60.2786C46.9042 61.4163 47.8385 62.4174 48.9223 63.2379C51.4936 65.0752 54.6029 66.0052 57.7608 65.8816C64.1134 65.8816 68.4537 62.4882 68.4537 57.4771C68.4776 56.435 68.2665 55.4008 67.8362 54.4514C67.4059 53.5019 66.7673 52.6615 65.9679 51.9925C64.2648 50.7725 62.3097 49.95 60.2466 49.5856L56.3008 48.6781C53.5783 48.0468 52.8286 47.3366 52.8286 45.7977C52.8286 44.2589 54.762 42.6017 57.4846 42.6017C58.7589 42.5994 60.0159 42.8967 61.1541 43.4697C62.4064 44.1898 63.4631 45.2059 64.2318 46.429L68.1775 43.4697C67.4194 42.5614 66.588 41.7168 65.6917 40.9444C63.3793 39.0587 60.4674 38.0647 57.4846 38.143C51.5265 38.143 47.5018 41.4574 47.5018 46.2317Z" fill="#333333"/>
<path d="M77.9235 43.1146H82.2244C85.7361 43.1146 87.3539 44.4562 87.3539 47.376C87.3539 50.2959 85.5388 51.9925 81.8298 51.9925H77.8841L77.9235 43.1146ZM73.1097 38.9321V65.0924H77.9235V56.3329H82.9346C84.9499 56.4827 86.9589 55.97 88.656 54.8729C89.8785 54.0904 90.882 53.0099 91.5722 51.733C92.2624 50.4561 92.6167 49.0247 92.6017 47.5733C92.6017 42.2071 88.9322 38.9321 82.8163 38.9321H73.1097Z" fill="#333333"/>
<path d="M101.519 43.1146H106.254C109.489 43.1146 111.304 44.5351 111.304 47.0603C111.304 49.5856 109.45 51.2428 106.136 51.2428H101.519V43.1146ZM96.6658 38.9321V65.0924H101.519V55.3859H106.333L111.502 65.0924H116.947L111.186 54.5967C112.096 54.2226 112.947 53.7175 113.711 53.0973C114.583 52.4073 115.283 51.5242 115.755 50.5177C116.228 49.5111 116.46 48.4087 116.434 47.2971C116.42 45.3349 115.754 43.4331 114.54 41.8914C113.56 40.7994 112.331 39.9601 110.957 39.4448C109.583 38.9296 108.105 38.7537 106.648 38.9321H96.6658Z" fill="#333333"/>
<path d="M127.798 38.9321H122.787V65.0924H127.798V38.9321Z" fill="#333333"/>
<path d="M150.367 38.9321V56.6091L139.635 38.9321H134.9V65.0924H139.635V47.1787L150.762 65.0924H155.142V38.9321H150.367Z" fill="#333333"/>
<path d="M160.587 51.9927C160.43 53.7001 160.624 55.4215 161.156 57.0513C161.688 58.6812 162.548 60.1851 163.682 61.4709C164.816 62.7566 166.201 63.7971 167.752 64.5284C169.303 65.2598 170.987 65.6666 172.7 65.7239C174.521 65.7159 176.311 65.2548 177.909 64.3823C178.717 63.8985 179.471 63.3297 180.158 62.6857V64.9347H184.104V50.809H173.332V55.0704H179.842C179.844 55.9198 179.671 56.7606 179.336 57.5411C179.001 58.3216 178.51 59.0253 177.892 59.6091C177.275 60.1929 176.546 60.6445 175.748 60.936C174.95 61.2276 174.101 61.353 173.253 61.3047C168.676 61.3047 165.795 57.6746 165.795 51.8349C165.795 45.9952 168.636 42.4834 173.055 42.4834C174.57 42.4512 176.05 42.9387 177.249 43.8648C178.448 44.7909 179.294 46.0998 179.645 47.5735L184.143 45.6795C183.595 44.2071 182.749 42.8637 181.657 41.7338C180.542 40.6272 179.217 39.7537 177.761 39.1644C176.304 38.575 174.745 38.2815 173.174 38.301C171.434 38.3291 169.719 38.7109 168.131 39.4232C166.544 40.1354 165.118 41.1633 163.94 42.4441C162.763 43.725 161.858 45.2321 161.282 46.8736C160.705 48.5152 160.469 50.2569 160.587 51.9927Z" fill="#333333"/>
<path d="M190.693 38.9321V65.0924H195.546V54.0049H206.713V50.0591H195.546V43.2724H208.488V38.9321H190.693Z" fill="#333333"/>
<path d="M217.8 38.9321H212.986V65.0924H217.8V38.9321Z" fill="#333333"/>
<path d="M224.547 38.9321V65.0924H244.276V60.7521H229.401V53.6103H242.224V49.6646H229.598V43.2724H243.329V38.9321H224.547Z" fill="#333333"/>
<path d="M249.129 38.9321V65.0924H264.912V60.7521H254.062V38.9321H249.129Z" fill="#333333"/>
<path d="M273.435 43.2724H276.197C282.392 43.2724 284.799 45.6793 284.799 51.9531C284.925 54.0461 284.518 56.1368 283.615 58.0295C282.51 60.0418 280.577 60.7521 276.197 60.7521H273.435V43.2724ZM268.621 38.9321V65.0924H276.513C279.141 65.2864 281.778 64.8536 284.207 63.8297C286.224 62.6364 287.851 60.8817 288.888 58.7797C289.925 56.6778 290.327 54.3195 290.047 51.9925C290.223 48.6201 289.172 45.298 287.088 42.6411C286.29 41.6618 285.312 40.8447 284.207 40.2342C281.865 39.0579 279.243 38.5527 276.631 38.7743H268.74" fill="#333333"/>
<path d="M19.4081 35.6178H20.5523H21.5388C21.6873 35.5005 21.786 35.3313 21.815 35.1443C21.8264 35.0409 21.8061 34.9364 21.7568 34.8448C21.7074 34.7532 21.6314 34.6787 21.5388 34.6313C20.7474 34.3255 19.9001 34.191 19.0529 34.2368H19.0135C18.8575 34.259 18.7088 34.3168 18.5788 34.4057C18.4488 34.4947 18.341 34.6124 18.2638 34.7497C18.2638 35.0654 18.2638 35.3416 18.2638 35.4599C18.4282 35.5754 18.6178 35.6499 18.8168 35.6774C19.0158 35.7048 19.2185 35.6844 19.4081 35.6178Z" fill="#333333"/>
<path d="M15.8569 40.1555L18.54 39.8003C20.3551 39.5636 23.1171 39.169 23.4327 39.2085C24.0428 39.2829 24.6613 39.173 25.2083 38.8928C25.3002 38.8701 25.3831 38.8203 25.4464 38.75C25.5097 38.6797 25.5504 38.592 25.5634 38.4982C25.6221 38.3891 25.6529 38.2671 25.6529 38.1431C25.6529 38.0192 25.6221 37.8972 25.5634 37.788L23.4327 38.222C22.8409 38.222 22.4463 38.0248 22.3279 37.788C22.2096 37.5513 23.0382 37.0778 23.3144 36.9594C23.5906 36.841 23.7484 36.9594 23.6695 36.4465C23.5906 35.9335 23.3144 36.1308 23.0382 36.1308C21.7918 36.6494 20.4333 36.8396 19.0924 36.6832C18.7128 36.6313 18.3278 36.6313 17.9481 36.6832C17.3168 36.7621 17.3168 36.9594 17.3168 37.1172C17.3168 37.2751 17.6719 37.6302 17.7903 37.7091H18.3427C19.3374 37.8669 20.3149 38.1179 21.2626 38.4588C19.5759 38.8057 17.8541 38.9514 16.1331 38.8928L16.5671 38.5377C16.8828 38.301 17.3168 37.9458 17.0406 37.5513C16.9257 37.4081 16.7664 37.3071 16.5879 37.2643C16.4093 37.2214 16.2216 37.2391 16.0542 37.3145C15.6255 37.4747 15.2466 37.7451 14.9557 38.0984C14.6647 38.4517 14.472 38.8754 14.397 39.3269C14.397 40.1555 15.4623 40.1555 15.8569 40.1555Z" fill="#333333"/>
<path d="M23.196 43.4304C23.196 43.6671 23.196 44.0222 25.6819 44.0222C27.434 43.8027 29.0748 43.0444 30.3773 41.8521C30.45 41.7261 30.4883 41.5832 30.4883 41.4377C30.4883 41.2923 30.45 41.1494 30.3773 41.0234C30.3251 40.8909 30.2395 40.774 30.1289 40.6842C30.0183 40.5943 29.8864 40.5345 29.746 40.5105C29.5019 40.5772 29.2911 40.7318 29.1541 40.9445C28.1286 42.0446 26.7111 42.6967 25.2084 42.7596C23.6301 42.9174 23.196 42.9569 23.196 43.4304Z" fill="#333333"/>
<path d="M23.63 40.7078L19.0135 41.3392H18.5795L18.3822 41.7337C18.3822 41.7337 18.3822 41.7337 18.6979 41.7337H20.1578H23.1566L25.2083 41.7732C26.9839 41.4575 27.1812 41.2602 27.1812 40.9446C27.1812 40.6289 26.7077 40.4316 26.5499 40.3922C25.5655 40.2521 24.5617 40.3606 23.63 40.7078Z" fill="#333333"/>
<path d="M12.3847 41.8915C13.3062 42.3826 14.3087 42.7034 15.344 42.8385H16.0937C16.316 42.8726 16.5422 42.8726 16.7645 42.8385C17.1985 42.8385 17.3169 42.8385 17.3564 42.8385C17.3945 42.7725 17.4145 42.6977 17.4145 42.6215C17.4145 42.5453 17.3945 42.4705 17.3564 42.4045C17.3564 42.4045 17.3564 41.9704 16.2516 41.7732C15.6061 41.6245 14.9729 41.4266 14.3576 41.1813C14.0421 41.0288 13.7115 40.9097 13.3712 40.8262C12.3453 40.8262 12.1874 41.1024 12.148 41.2207C12.1094 41.3431 12.1116 41.4747 12.1543 41.5957C12.197 41.7166 12.2779 41.8205 12.3847 41.8915Z" fill="#333333"/>
<path d="M12.2268 43.7065L12.7792 44.1011C12.8071 44.2775 12.871 44.4463 12.967 44.597C13.0629 44.7476 13.1888 44.8769 13.3368 44.9768C13.4849 45.0767 13.6519 45.1451 13.8275 45.1778C14.003 45.2104 14.1835 45.2066 14.3575 45.1665C14.8564 45.2036 15.3478 45.3099 15.8174 45.4821C16.648 45.8183 17.5274 46.0181 18.4216 46.074C18.7228 46.1146 19.028 46.1146 19.3292 46.074H20.0394V48.1652C19.6436 48.4356 19.3624 48.8434 19.2502 49.3095C19.1665 49.4461 19.1222 49.6031 19.1222 49.7633C19.1222 49.9234 19.1665 50.0805 19.2502 50.217C19.4408 50.2899 19.6515 50.2899 19.8421 50.217H20.0789C20.0789 50.217 20.434 50.217 21.0653 49.4673C21.6966 48.7176 23.5117 47.3761 24.2613 47.3761H24.9716C25.2732 47.4087 25.5775 47.4087 25.8791 47.3761C26.1158 47.3761 26.392 47.3761 27.0628 46.7053C28.1943 45.7618 29.5559 45.1355 31.0086 44.8903C31.7188 44.8903 32.3896 44.8903 32.7052 44.6141C32.8021 44.5594 32.8869 44.4858 32.9547 44.3977C33.0225 44.3096 33.0718 44.2087 33.0998 44.1011C32.8236 43.5487 32.1528 43.6276 31.2848 43.8249H30.0616C29.3755 43.9047 28.7225 44.1633 28.1676 44.5746C27.0115 45.3871 25.635 45.8276 24.2219 45.8372C23.4104 45.9808 22.6254 46.2469 21.8939 46.6264L21.2626 46.8631C21.1946 46.6313 21.1946 46.3848 21.2626 46.1529C21.445 45.4442 21.8623 44.8183 22.4463 44.3773V44.1011C22.5128 43.9946 22.548 43.8716 22.548 43.746C22.548 43.6204 22.5128 43.4974 22.4463 43.3909C22.2096 43.0358 21.6966 43.1147 21.4993 43.1147C21.0245 43.2423 20.5721 43.4419 20.1578 43.7065C19.635 44.082 19.0226 44.3133 18.3822 44.3773C16.6336 44.244 14.9295 43.761 13.3711 42.9569C12.5819 42.5228 12.069 42.2466 11.635 42.5623C11.3982 42.7596 11.3982 42.9569 11.635 43.0358C11.8717 43.1147 11.7928 43.5487 12.2268 43.7065Z" fill="#333333"/>
<path d="M11.5167 46.5081C12.0401 46.6296 12.5543 46.7878 13.0555 46.9816C13.7802 47.2638 14.5348 47.4624 15.3046 47.5734C15.3793 47.606 15.4599 47.6229 15.5413 47.6229C15.6228 47.6229 15.7034 47.606 15.7781 47.5734C15.8342 47.485 15.864 47.3823 15.864 47.2775C15.864 47.1727 15.8342 47.0701 15.7781 46.9816C14.5947 46.1644 13.2488 45.6126 11.8323 45.3638C10.7612 45.027 9.7188 44.6048 8.7152 44.1012C8.47845 44.1012 8.20225 43.7461 7.96551 44.1012C7.91751 44.1634 7.89148 44.2397 7.89148 44.3182C7.89148 44.3967 7.91751 44.4731 7.96551 44.5352C8.88369 45.5859 10.1395 46.2836 11.5167 46.5081Z" fill="#333333"/>
<path d="M31.5216 46.6658C30.1026 46.7131 28.7296 47.1799 27.5758 48.0073C27.0629 48.323 26.55 48.6781 26.3132 48.5992C25.6256 48.4872 24.9225 48.5133 24.2451 48.6759C23.5677 48.8385 22.9294 49.1343 22.3675 49.5462C22.301 49.6527 22.2657 49.7757 22.2657 49.9013C22.2657 50.0268 22.301 50.1499 22.3675 50.2564C22.3675 50.4537 22.6042 50.651 22.841 50.6904C22.9698 50.7277 23.1066 50.7277 23.2355 50.6904C23.8212 50.2941 24.5025 50.0624 25.2084 50.0197H25.8003C27.931 49.7435 28.6412 49.6645 28.9174 49.191C28.946 49.0878 28.946 48.9787 28.9174 48.8754C29.7575 48.3473 30.7267 48.0606 31.7189 48.0468C33.3366 48.3624 33.4945 48.0468 33.5734 48.0468C33.6279 47.9724 33.6573 47.8825 33.6573 47.7903C33.6573 47.6981 33.6279 47.6082 33.5734 47.5338C32.9643 47.1724 32.2692 46.9816 31.561 46.9814L31.5216 46.6658Z" fill="#333333"/>
<path d="M7.53137 47.5733C8.20215 47.5733 8.59672 47.8101 8.67564 47.9285C8.67564 48.2441 8.67564 48.2836 13.0554 50.4143C14.831 51.2823 17.0012 52.2688 17.1985 52.545C17.2543 52.57 17.3148 52.583 17.376 52.583C17.4372 52.583 17.4977 52.57 17.5536 52.545H17.7509C18.0665 52.545 18.1454 51.9926 18.1454 50.7694C17.3563 47.7706 16.8828 47.7706 16.646 47.7312C16.527 47.7177 16.4068 47.7407 16.3011 47.7971C16.1954 47.8534 16.1093 47.9405 16.0542 48.0468C15.8569 48.5598 16.0542 49.0727 16.5277 49.5068C17.0012 49.9408 17.1195 50.3354 16.9617 50.6116C16.2368 50.2834 15.5377 49.9009 14.8705 49.4673C11.5166 47.5339 8.63618 45.9161 7.37354 46.3107C7.37354 46.3107 6.8606 46.3107 6.8606 46.8237C6.8606 47.3366 7.09734 47.4944 7.53137 47.5733Z" fill="#333333"/>
<path d="M32.1529 49.0332C31.6296 49.2511 31.0883 49.4227 30.5351 49.5461C29.6671 49.5461 29.233 49.8618 29.233 50.2564C29.233 50.6509 29.7065 50.7693 29.9433 50.8088C30.927 50.6016 31.8389 50.1389 32.5869 49.4672V49.2305C32.5385 49.1621 32.4728 49.1079 32.3965 49.0732C32.3203 49.0385 32.2362 49.0247 32.1529 49.0332Z" fill="#333333"/>
<path d="M7.64981 50.8089H7.92601C7.92601 51.1246 8.71516 51.2824 9.81997 51.2824C10.8548 51.5037 11.843 51.9044 12.7398 52.4661C11.9112 52.4661 11.1221 52.4661 11.0037 52.9396C10.9656 53.0056 10.9455 53.0805 10.9455 53.1567C10.9455 53.2328 10.9656 53.3077 11.0037 53.3737C11.2799 53.6499 11.9507 53.7682 13.1344 53.6499C13.8772 53.8475 14.5701 54.199 15.1683 54.6816C15.7664 55.1642 16.2565 55.7672 16.6067 56.4514C16.6067 56.767 16.8434 57.3589 17.0012 57.9507C17.4353 59.8447 17.7904 61.1073 18.4217 61.423C18.5373 61.4593 18.6612 61.4593 18.7768 61.423H19.1714C19.1714 61.1073 19.1714 60.7128 18.9346 60.0814V59.5685C18.8798 59.1043 18.8008 58.6434 18.6979 58.1875C18.6979 57.7535 18.6979 57.1616 18.6979 57.0432C18.6979 55.8989 19.6054 53.0975 21.7361 53.0975C23.8668 53.0975 23.5117 53.3342 23.5512 53.4526C23.5906 53.571 24.1036 54.2023 25.3662 54.2023C28.3229 53.8054 31.2231 53.0638 34.0074 51.9927H35.3095C35.4259 51.9552 35.5307 51.8882 35.6136 51.7984C35.6966 51.7085 35.7549 51.5987 35.783 51.4797C35.7843 51.3528 35.7474 51.2285 35.677 51.1229C35.6066 51.0173 35.506 50.9354 35.3884 50.8879C35.1644 50.7901 34.9226 50.7396 34.6782 50.7396C34.4337 50.7396 34.192 50.7901 33.9679 50.8879C33.7062 50.8506 33.4405 50.8506 33.1788 50.8879H32.508C31.6692 51.0397 30.8394 51.2373 30.0222 51.4797C28.3216 51.9824 26.578 52.3258 24.8138 52.5056H24.2614C24.2614 52.2689 24.7349 51.9927 24.6165 51.6375C24.5688 51.5132 24.4889 51.4037 24.3848 51.3205C24.2808 51.2373 24.1565 51.1833 24.0247 51.1641C23.7887 51.12 23.5459 51.129 23.3139 51.1905C23.0818 51.2519 22.8664 51.3642 22.6831 51.5192C22.5897 51.6223 22.4649 51.6916 22.328 51.7165C21.9908 51.751 21.6502 51.7046 21.3345 51.581C21.0188 51.4575 20.7372 51.2605 20.5129 51.0062C20.291 50.7515 20.0049 50.5607 19.6843 50.4538C19.5838 50.3908 19.4676 50.3574 19.3489 50.3574C19.2303 50.3574 19.1141 50.3908 19.0136 50.4538C18.6584 50.8484 19.0136 51.7559 19.2503 52.2689C18.6068 52.8639 18.013 53.5105 17.4747 54.2023L17.3169 54.7941C16.4048 53.4943 15.2321 52.3986 13.8735 51.5766C12.5149 50.7547 11.0001 50.2245 9.4254 50.0198L8.51787 49.7436C7.80764 49.5068 7.17632 49.2701 6.78175 49.7436C6.6979 49.8006 6.62902 49.877 6.58094 49.9663C6.53286 50.0556 6.507 50.1551 6.50554 50.2565C6.48759 50.3578 6.49635 50.462 6.53094 50.5589C6.56554 50.6558 6.62478 50.7419 6.70283 50.8089C6.84679 50.8921 7.01009 50.9358 7.17632 50.9358C7.34255 50.9358 7.50585 50.8921 7.64981 50.8089Z" fill="#333333"/>
<path d="M6.90007 54.9519C7.25323 55.0165 7.59757 55.1224 7.92597 55.2675C9.17409 55.8 10.5148 56.0816 11.8717 56.0961H12.7003C13.1738 56.0961 13.6868 56.0961 13.8446 55.5437C13.8904 55.4733 13.9148 55.391 13.9148 55.307C13.9148 55.2229 13.8904 55.1407 13.8446 55.0703C13.6473 54.8335 13.2922 54.7546 12.5819 54.8335H11.2009H10.2934C9.65643 54.8965 9.01463 54.778 8.44212 54.4917C7.8696 54.2055 7.38973 53.7631 7.0579 53.2157C7.0579 53.2157 6.54496 52.8606 6.26875 53.0185C6.17621 53.0739 6.10351 53.1572 6.06101 53.2564C6.0185 53.3555 6.00835 53.4656 6.03201 53.5709C6.07147 54.3995 6.38713 54.9519 6.90007 54.9519Z" fill="#333333"/>
<path d="M20.9864 62.8828C21.9674 61.6088 22.4702 60.0309 22.4069 58.4241C22.4977 58.4459 22.5923 58.4459 22.6831 58.4241C23.0777 58.0296 22.6831 56.9642 22.2096 56.6486C21.8481 56.2785 21.5304 55.8681 21.2626 55.4254C20.8286 54.873 20.6313 54.5573 20.3157 54.5573C20.1948 54.5317 20.0689 54.5445 19.9557 54.5941C19.8424 54.6436 19.7476 54.7273 19.6843 54.8335C19.4081 55.2281 19.6843 55.7805 20.1578 56.6091C20.519 57.1905 20.7729 57.832 20.9075 58.5031C21.0514 59.3914 20.8872 60.3023 20.4422 61.0846C19.9973 61.8669 19.2983 62.4735 18.4612 62.8039L17.7115 63.0407L16.5672 63.3563C16.7192 63.0814 16.8906 62.8177 17.0801 62.5672C17.3958 62.0937 17.672 61.6991 17.5931 61.3045C17.5719 61.2354 17.5363 61.1716 17.4887 61.1172C17.4411 61.0628 17.3826 61.0191 17.3169 60.9889C16.8039 60.7127 16.4883 61.3045 16.0543 62.0542C15.6202 62.8039 14.9889 63.8298 14.3181 63.8298H14.1208C12.3847 63.8298 11.4772 63.8298 11.3983 64.2244C11.3567 64.2964 11.3348 64.378 11.3348 64.4611C11.3348 64.5442 11.3567 64.6259 11.3983 64.6979C11.8378 64.9957 12.3713 65.122 12.8977 65.053C13.5414 65.0968 14.1873 65.0968 14.8311 65.053C15.6707 64.8888 16.5006 64.678 17.3169 64.4217C17.924 64.2666 18.5454 64.1741 19.1714 64.1455C19.8763 64.1903 20.5759 64.2959 21.2626 64.4611C22.2491 64.6979 22.7226 64.8162 22.9593 64.4611C23.1961 64.106 22.9593 64.0271 22.9593 63.7509C22.7226 63.4604 22.4204 63.2302 22.0774 63.0793C21.7344 62.9284 21.3605 62.8611 20.9864 62.8828Z" fill="#333333"/>
<path d="M12.5425 59.2528H13.0555C15.2256 59.6868 16.291 59.8052 16.5277 59.2528C16.582 59.1283 16.6101 58.994 16.6101 58.8582C16.6101 58.7224 16.582 58.5881 16.5277 58.4636C16.3875 58.3247 16.2212 58.2148 16.0383 58.1404C15.8555 58.0659 15.6598 58.0282 15.4624 58.0296C14.6348 57.9716 13.8041 57.9716 12.9766 58.0296C12.0358 57.8989 11.1105 57.6742 10.2145 57.3588C9.57518 57.2192 8.97101 56.9507 8.43895 56.5696C7.3736 55.9383 6.6239 55.5043 6.15041 55.9383C6.09154 56.0403 6.06055 56.156 6.06055 56.2737C6.06055 56.3915 6.09154 56.5071 6.15041 56.6091C7.00564 57.5668 8.16001 58.2065 9.42538 58.4241H9.81996C8.51786 58.8187 7.88654 59.0555 7.84708 59.5684C7.80763 60.0814 7.84708 59.963 8.24166 60.1208C8.42303 60.1659 8.61269 60.1659 8.79406 60.1208C9.89097 60.0079 10.9667 59.7423 11.9901 59.3317L12.5425 59.2528Z" fill="#333333"/>
<path d="M36.0592 58.7792C35.8619 58.3846 35.3884 58.4241 34.2047 58.5425C33.2585 58.5973 32.3099 58.5973 31.3637 58.5425C30.4373 58.6705 29.4945 58.4903 28.6806 58.0295C28.3248 57.8064 27.9397 57.6338 27.5364 57.5166C26.9445 57.5166 25.8792 57.2404 25.5635 57.7928C25.2478 58.3452 25.5635 58.3846 25.9186 58.8581C28.1473 59.5221 30.4588 59.8675 32.7842 59.884H34.3231C35.6646 59.884 35.8619 59.5289 35.9803 59.3711C36.0666 59.3012 36.123 59.201 36.1377 59.0909C36.1523 58.9808 36.1243 58.8692 36.0592 58.7792Z" fill="#333333"/>
<path d="M29.8643 56.9642C29.8643 56.9642 29.4303 57.5166 29.8643 57.7928H30.1405C30.3772 57.7928 30.6929 57.7928 31.4426 57.0431C31.8429 56.695 32.2249 56.3262 32.5869 55.9383C33.251 55.6374 33.9369 55.3868 34.6386 55.1886C34.749 55.1249 34.8403 55.0327 34.9027 54.9216C34.9652 54.8105 34.9967 54.6847 34.9938 54.5573C34.9843 54.4326 34.938 54.3135 34.8607 54.2151C34.7834 54.1168 34.6787 54.0436 34.5597 54.0049C33.0998 53.3735 29.9037 56.9247 29.8643 56.9642Z" fill="#333333"/>
<path d="M29.5092 63.8298C29.0782 63.7577 28.6382 63.7577 28.2071 63.8298C27.0994 63.9192 25.9894 63.6862 25.0111 63.159C24.2219 62.5671 24.1035 61.2256 24.577 59.016C25.0263 57.9771 25.7621 57.0876 26.6985 56.4517C27.6349 55.8158 28.733 55.4598 29.8643 55.4253C30.5746 55.4253 30.9691 55.4253 31.0481 54.8729C31.127 54.3205 30.7324 54.2416 30.4562 54.1232C30.18 54.0049 29.2725 54.1232 28.0887 54.6362C26.905 55.1491 25.7608 55.6226 25.4846 55.2675L24.8138 54.5573V55.5043C24.6952 56.2941 24.3529 57.0335 23.8273 57.635C23.5697 57.9814 23.3451 58.3513 23.1566 58.7398C22.8053 59.5075 22.6234 60.3419 22.6234 61.1861C22.6234 62.0304 22.8053 62.8648 23.1566 63.6325C23.2798 63.885 23.4567 64.1075 23.6747 64.2847C23.8928 64.4619 24.1468 64.5894 24.4192 64.6584C25.7231 64.8922 27.0414 65.0372 28.3649 65.0924C29.5092 65.0924 29.6276 64.8557 29.667 64.6978C29.7065 64.54 29.9038 64.2244 29.5092 63.8298Z" fill="#333333"/>
</svg>
