<svg width="173" height="59" viewBox="0 0 173 59" fill="none" xmlns="http://www.w3.org/2000/svg">
<path d="M37.6221 27.4862C37.1634 26.7629 36.5358 26.1635 35.7941 25.7402C35.142 25.3807 34.4088 25.1962 33.6653 25.2048C32.0686 25.2048 30.9348 25.9963 30.9348 27.1137C30.9348 28.2311 31.467 28.3941 33.1331 28.7899L35.447 29.3253C36.6272 29.5284 37.7488 29.9893 38.7328 30.6755C39.2236 31.0693 39.6154 31.5737 39.8767 32.1479C40.138 32.7222 40.2614 33.3502 40.2369 33.9813C40.2369 36.9378 37.7147 38.9399 33.9892 38.9399C32.09 39.0484 30.2113 38.4978 28.6671 37.3802C28.0336 36.903 27.4857 36.3204 27.0474 35.6574L29.3613 33.9114C29.8633 34.7524 30.6164 35.4123 31.5133 35.7971C32.3114 36.1364 33.1691 36.3106 34.0355 36.3093C35.771 36.3093 36.9048 35.4945 36.9048 34.2141C36.9048 32.9337 36.1875 32.5845 34.3594 32.1887L32.3463 31.7464C29.1531 31.0713 27.7184 29.7443 27.7184 27.3698C27.7184 24.5296 30.0324 22.5974 33.5264 22.5974C35.2712 22.5548 36.9752 23.1318 38.3394 24.227C38.8624 24.678 39.3426 25.1768 39.7741 25.7169L37.6221 27.4862Z" fill="white"/>
<path d="M45.744 38.4743H42.921V23.063H48.4976C52.0842 23.063 54.2593 24.9719 54.2593 28.138C54.2748 28.9956 54.0699 29.8426 53.6645 30.5971C53.2591 31.3516 52.667 31.988 51.9454 32.4448C50.9601 33.0951 49.7882 33.3981 48.6133 33.3061H45.744V38.4743ZM48.058 30.8385C50.2562 30.8385 51.3206 29.9306 51.3206 28.0216C51.3206 26.1127 50.3719 25.5074 48.2894 25.5074H45.744V30.8385H48.058Z" fill="white"/>
<path d="M59.5583 38.474H56.7353V23.0627H62.5896C63.4418 22.9547 64.3073 23.0548 65.1129 23.3547C65.9185 23.6545 66.6404 24.1453 67.2175 24.7854C67.9262 25.6968 68.3166 26.8177 68.3282 27.9748C68.3428 28.6316 68.2088 29.2831 67.9362 29.88C67.6636 30.4769 67.2595 31.0036 66.7547 31.4202C66.2992 31.7691 65.8016 32.0585 65.2738 32.2816L68.629 38.474H65.4357L62.4045 32.7472H59.5583V38.474ZM62.2888 30.3028C64.2093 30.3028 65.32 29.3949 65.32 27.8351C65.32 26.2754 64.2325 25.5071 62.3582 25.5071H59.5583V30.3028H62.2888Z" fill="white"/>
<path d="M74.9461 23.063H72.0536V38.4743H74.9461V23.063Z" fill="white"/>
<path d="M90.9123 38.4743H88.3438L81.8879 27.9052V38.4743H79.1574V23.063H81.8879L88.2049 33.4691V23.063H90.9123V38.4743Z" fill="white"/>
<path d="M108.105 38.4739H105.791V37.147C105.388 37.527 104.946 37.8626 104.472 38.148C103.535 38.6628 102.485 38.9348 101.418 38.9395C100.414 38.9088 99.4267 38.6717 98.5174 38.2428C97.608 37.8138 96.7956 37.2021 96.1301 36.4453C95.4646 35.6886 94.9601 34.8027 94.6477 33.8424C94.3354 32.8821 94.2217 31.8676 94.3138 30.8614C94.2179 29.8224 94.3367 28.7747 94.6628 27.7841C94.9888 26.7935 95.5149 25.8814 96.2082 25.1053C96.9014 24.3291 97.7468 23.7056 98.691 23.274C99.6353 22.8423 100.658 22.6119 101.695 22.5971C102.615 22.5825 103.528 22.752 104.382 23.0957C105.237 23.4394 106.014 23.9504 106.67 24.5991C107.318 25.3044 107.814 26.1366 108.128 27.0435L105.49 28.1377C105.284 27.2682 104.788 26.496 104.085 25.9496C103.382 25.4031 102.514 25.1155 101.626 25.1346C99.0342 25.1346 97.3682 27.3229 97.3682 30.6752C97.3682 34.0275 99.0805 36.2391 101.742 36.2391C102.229 36.2515 102.715 36.1656 103.169 35.9863C103.623 35.807 104.037 35.538 104.387 35.1952C104.736 34.8524 105.014 34.4427 105.203 33.9903C105.393 33.5379 105.49 33.0518 105.49 32.5609H101.672V30.0699H108.105V38.4739Z" fill="white"/>
<path d="M122.266 25.6005H114.676V29.4882H121.225V31.8162H114.676V38.4743H111.969V23.063H122.382L122.266 25.6005Z" fill="white"/>
<path d="M127.75 23.063H124.927V38.4743H127.75V23.063Z" fill="white"/>
<path d="M142.583 25.6005H134.53V29.2554H142.05V31.7231H134.646V35.9368H143.346V38.4743H131.777V23.063H142.652L142.583 25.6005Z" fill="white"/>
<path d="M148.992 35.9368H155.332V38.4743H146.077V23.063H148.992V35.9368Z" fill="white"/>
<path d="M157.531 23.063H162.159C163.687 22.9381 165.222 23.2275 166.601 23.9011C167.25 24.2613 167.823 24.7434 168.291 25.3212C169.513 26.8979 170.129 28.865 170.026 30.8618C170.161 32.1978 169.917 33.5449 169.323 34.7476C168.73 35.9504 167.81 36.9598 166.671 37.6595C165.275 38.2846 163.754 38.5717 162.228 38.4976H157.6L157.531 23.063ZM161.974 35.9368C164.542 35.9368 165.676 35.5178 166.324 34.3072C166.862 33.1769 167.101 31.926 167.018 30.6756C167.018 26.9741 165.606 25.5307 161.974 25.5307H160.354V35.9368H161.974Z" fill="white"/>
<path d="M27.8572 27.2764C27.8572 29.6044 29.2456 30.9779 32.4851 31.6763L34.4983 32.1186C36.3494 32.5144 37.0436 33.0964 37.0436 34.1207C37.0436 35.145 35.9329 36.2391 34.1743 36.2391C33.3152 36.2425 32.4646 36.0681 31.6752 35.727C30.7803 35.3295 30.0231 34.6731 29.5001 33.8413L27.0705 35.564C27.5068 36.2353 28.0547 36.8259 28.6903 37.31C30.1982 38.394 32.0216 38.9427 33.8735 38.8698C37.5989 38.8698 40.1443 36.8677 40.1443 33.9112C40.1583 33.2963 40.0345 32.6861 39.7821 32.126C39.5298 31.5658 39.1553 31.07 38.6865 30.6752C37.6877 29.9554 36.5412 29.4701 35.3313 29.2552L33.0173 28.7197C31.4207 28.3473 30.9811 27.9282 30.9811 27.0203C30.9811 26.1124 32.1149 25.1346 33.7115 25.1346C34.4588 25.1333 35.196 25.3087 35.8635 25.6468C36.5979 26.0716 37.2176 26.6711 37.6684 27.3928L39.9823 25.6468C39.5377 25.1109 39.0502 24.6125 38.5245 24.1569C37.1685 23.0443 35.4608 22.4578 33.7115 22.504C30.2175 22.504 27.8572 24.4595 27.8572 27.2764Z" fill="white"/>
<path d="M45.6978 25.4374H48.22C50.2794 25.4374 51.2281 26.2289 51.2281 27.9516C51.2281 29.6743 50.1637 30.6754 47.9886 30.6754H45.6746L45.6978 25.4374ZM42.8748 22.9697V38.4043H45.6978V33.2362H48.6365C49.8183 33.3245 50.9965 33.0221 51.9917 32.3748C52.7086 31.9131 53.2971 31.2756 53.7019 30.5223C54.1067 29.7689 54.3144 28.9244 54.3057 28.068C54.3057 24.902 52.1537 22.9697 48.5671 22.9697H42.8748Z" fill="white"/>
<path d="M59.5351 25.4372H62.3119C64.2093 25.4372 65.2737 26.2753 65.2737 27.7652C65.2737 29.2551 64.1862 30.2329 62.2424 30.2329H59.5351V25.4372ZM56.689 22.9696V38.4041H59.5351V32.6773H62.3581L65.3894 38.4041H68.5827L65.2043 32.2117C65.7381 31.991 66.2371 31.6929 66.6852 31.3271C67.1965 30.9199 67.6069 30.3989 67.8839 29.8051C68.161 29.2112 68.2972 28.5607 68.2818 27.9049C68.2738 26.7472 67.883 25.6252 67.1712 24.7156C66.5964 24.0713 65.8756 23.5761 65.0698 23.2721C64.2641 22.9681 63.3974 22.8643 62.5433 22.9696H56.689Z" fill="white"/>
<path d="M74.946 22.9697H72.0073V38.4043H74.946V22.9697Z" fill="white"/>
<path d="M88.1818 22.9697V33.3991L81.8879 22.9697H79.1112V38.4043H81.8879V27.8352L88.4132 38.4043H90.9817V22.9697H88.1818Z" fill="white"/>
<path d="M94.175 30.6753C94.083 31.6827 94.1965 32.6983 94.5087 33.6599C94.8208 34.6216 95.3249 35.5089 95.9901 36.2675C96.6553 37.0261 97.4675 37.6399 98.3769 38.0714C99.2864 38.5029 100.274 38.7429 101.279 38.7767C102.346 38.772 103.396 38.5 104.333 37.9852C104.807 37.6998 105.249 37.3642 105.652 36.9842V38.3111H107.966V29.9769H101.649V32.4912H105.467C105.468 32.9924 105.367 33.4884 105.17 33.9489C104.974 34.4094 104.686 34.8246 104.324 35.169C103.962 35.5135 103.534 35.7799 103.066 35.9519C102.598 36.1239 102.1 36.1979 101.603 36.1694C98.9185 36.1694 97.2294 34.0276 97.2294 30.5822C97.2294 27.1368 98.8954 25.0649 101.487 25.0649C102.375 25.0458 103.243 25.3335 103.946 25.8799C104.649 26.4263 105.145 27.1985 105.351 28.068L107.989 26.9506C107.668 26.0818 107.172 25.2892 106.531 24.6226C105.877 23.9697 105.1 23.4544 104.246 23.1066C103.392 22.7589 102.478 22.5857 101.556 22.5972C100.536 22.6138 99.5301 22.8391 98.5992 23.2593C97.6683 23.6796 96.8321 24.286 96.1416 25.0417C95.4511 25.7974 94.9206 26.6866 94.5825 27.6551C94.2444 28.6236 94.1058 29.6512 94.175 30.6753Z" fill="white"/>
<path d="M111.83 22.9697V38.4043H114.677V31.8626H121.225V29.5347H114.677V25.5305H122.266V22.9697H111.83Z" fill="white"/>
<path d="M127.727 22.9697H124.904V38.4043H127.727V22.9697Z" fill="white"/>
<path d="M131.684 22.9697V38.4043H143.254V35.8435H134.53V31.6299H142.05V29.3019H134.646V25.5305H142.698V22.9697H131.684Z" fill="white"/>
<path d="M146.1 22.9697V38.4043H155.356V35.8435H148.992V22.9697H146.1Z" fill="white"/>
<path d="M160.354 25.5306H161.974C165.606 25.5306 167.018 26.9507 167.018 30.6522C167.092 31.8871 166.853 33.1206 166.324 34.2373C165.676 35.4246 164.542 35.8436 161.974 35.8436H160.354V25.5306ZM157.531 22.9698V38.4044H162.159C163.7 38.5189 165.247 38.2635 166.671 37.6594C167.854 36.9554 168.808 35.9201 169.416 34.6799C170.024 33.4398 170.26 32.0484 170.096 30.6755C170.199 28.6858 169.582 26.7257 168.36 25.1581C167.893 24.5804 167.319 24.0983 166.671 23.7381C165.297 23.0441 163.76 22.7459 162.228 22.8767H157.6" fill="white"/>
<path d="M11.3819 21.0143H12.053H12.6314C12.7185 20.9451 12.7764 20.8453 12.7934 20.7349C12.8001 20.6739 12.7882 20.6123 12.7593 20.5582C12.7303 20.5042 12.6858 20.4603 12.6314 20.4323C12.1673 20.2518 11.6705 20.1725 11.1737 20.1995H11.1505C11.0591 20.2126 10.9718 20.2467 10.8956 20.2992C10.8193 20.3517 10.7561 20.4211 10.7109 20.5021C10.7109 20.6884 10.7109 20.8513 10.7109 20.9212C10.8073 20.9893 10.9185 21.0333 11.0352 21.0495C11.1519 21.0657 11.2708 21.0536 11.3819 21.0143Z" fill="white"/>
<path d="M9.29937 23.6915L10.8729 23.482C11.9373 23.3423 13.557 23.1095 13.7421 23.1328C14.0999 23.1767 14.4626 23.1118 14.7834 22.9465C14.8373 22.9331 14.8859 22.9037 14.923 22.8622C14.9601 22.8207 14.9841 22.769 14.9917 22.7137C15.0261 22.6493 15.0441 22.5773 15.0441 22.5042C15.0441 22.4311 15.0261 22.3591 14.9917 22.2947L13.7421 22.5508C13.3951 22.5508 13.1637 22.4344 13.0942 22.2947C13.0248 22.155 13.5107 21.8756 13.6727 21.8058C13.8347 21.736 13.9273 21.8058 13.881 21.5032C13.8347 21.2005 13.6727 21.3169 13.5107 21.3169C12.7798 21.6229 11.9831 21.7351 11.1968 21.6428C10.9742 21.6122 10.7484 21.6122 10.5258 21.6428C10.1555 21.6894 10.1555 21.8058 10.1555 21.8989C10.1555 21.992 10.3638 22.2016 10.4332 22.2481H10.7572C11.3404 22.3412 11.9137 22.4893 12.4695 22.6904C11.4804 22.8951 10.4706 22.9811 9.46134 22.9465L9.71588 22.737C9.90099 22.5973 10.1555 22.3878 9.99355 22.155C9.92614 22.0705 9.83274 22.011 9.72804 21.9857C9.62333 21.9604 9.51324 21.9708 9.41506 22.0153C9.16366 22.1099 8.94146 22.2694 8.77084 22.4778C8.60023 22.6862 8.48722 22.9362 8.44321 23.2026C8.44321 23.6915 9.06797 23.6915 9.29937 23.6915Z" fill="white"/>
<path d="M13.6033 25.6236C13.6033 25.7633 13.6033 25.9728 15.0611 25.9728C16.0887 25.8433 17.0509 25.3959 17.8147 24.6924C17.8574 24.6181 17.8798 24.5338 17.8798 24.448C17.8798 24.3621 17.8574 24.2778 17.8147 24.2035C17.7841 24.1253 17.7339 24.0564 17.6691 24.0033C17.6042 23.9503 17.5269 23.915 17.4445 23.9009C17.3014 23.9403 17.1777 24.0315 17.0974 24.157C16.496 24.806 15.6647 25.1907 14.7834 25.2278C13.8579 25.321 13.6033 25.3442 13.6033 25.6236Z" fill="white"/>
<path d="M13.8579 24.0172L11.1505 24.3897H10.896L10.7803 24.6225C10.7803 24.6225 10.7803 24.6225 10.9654 24.6225H11.8216H13.5802L14.7834 24.6457C15.8247 24.4595 15.9404 24.3431 15.9404 24.1569C15.9404 23.9706 15.6627 23.8542 15.5702 23.831C14.9929 23.7483 14.4042 23.8123 13.8579 24.0172Z" fill="white"/>
<path d="M7.26314 24.716C7.80352 25.0057 8.39142 25.195 8.9986 25.2747H9.43825C9.56861 25.2948 9.70126 25.2948 9.83162 25.2747C10.0862 25.2747 10.1556 25.2747 10.1787 25.2747C10.2011 25.2357 10.2128 25.1916 10.2128 25.1466C10.2128 25.1017 10.2011 25.0575 10.1787 25.0186C10.1787 25.0186 10.1787 24.7625 9.53081 24.6461C9.15226 24.5584 8.78095 24.4417 8.42011 24.2969C8.2351 24.2069 8.04121 24.1367 7.84163 24.0874C7.24 24.0874 7.14744 24.2504 7.1243 24.3202C7.10168 24.3924 7.10299 24.47 7.12803 24.5414C7.15307 24.6128 7.20049 24.674 7.26314 24.716Z" fill="white"/>
<path d="M7.17053 25.7866L7.49449 26.0194C7.51086 26.1235 7.54834 26.2231 7.60459 26.312C7.66085 26.4008 7.73468 26.4771 7.82149 26.5361C7.9083 26.595 8.00624 26.6354 8.10921 26.6546C8.21219 26.6739 8.318 26.6716 8.42007 26.648C8.71264 26.6699 9.00078 26.7326 9.27622 26.8342C9.7633 27.0325 10.279 27.1504 10.8034 27.1834C10.98 27.2074 11.159 27.2074 11.3356 27.1834H11.7521V28.4172C11.52 28.5768 11.3551 28.8174 11.2894 29.0924C11.2403 29.1729 11.2143 29.2656 11.2143 29.3601C11.2143 29.4546 11.2403 29.5472 11.2894 29.6278C11.4011 29.6708 11.5247 29.6708 11.6365 29.6278H11.7753C11.7753 29.6278 11.9835 29.6278 12.3538 29.1855C12.724 28.7432 13.7884 27.9516 14.2281 27.9516H14.6446C14.8215 27.9709 14.9999 27.9709 15.1768 27.9516C15.3156 27.9516 15.4776 27.9516 15.871 27.5559C16.5345 26.9992 17.333 26.6297 18.1849 26.485C18.6014 26.485 18.9948 26.485 19.1799 26.3221C19.2367 26.2898 19.2864 26.2464 19.3262 26.1944C19.3659 26.1424 19.3949 26.0829 19.4113 26.0194C19.2493 25.6935 18.856 25.7401 18.3469 25.8565H17.6296C17.2272 25.9036 16.8442 26.0561 16.5189 26.2988C15.8409 26.7782 15.0336 27.038 14.2049 27.0437C13.729 27.1284 13.2687 27.2854 12.8397 27.5093L12.4695 27.649C12.4296 27.5122 12.4296 27.3668 12.4695 27.23C12.5765 26.8118 12.8212 26.4425 13.1637 26.1824V26.0194C13.2026 25.9566 13.2233 25.884 13.2233 25.8099C13.2233 25.7358 13.2026 25.6632 13.1637 25.6004C13.0248 25.3909 12.724 25.4374 12.6083 25.4374C12.3299 25.5127 12.0645 25.6305 11.8216 25.7866C11.515 26.0081 11.1559 26.1446 10.7803 26.1824C9.75484 26.1037 8.75552 25.8187 7.84158 25.3443C7.37879 25.0882 7.07798 24.9253 6.82344 25.1115C6.68461 25.2279 6.68461 25.3443 6.82344 25.3909C6.96228 25.4374 6.916 25.6935 7.17053 25.7866Z" fill="white"/>
<path d="M6.75408 27.4395C7.06104 27.5111 7.3626 27.6045 7.65652 27.7188C8.08153 27.8853 8.52405 28.0025 8.97547 28.068C9.01926 28.0872 9.06653 28.0972 9.11431 28.0972C9.16209 28.0972 9.20935 28.0872 9.25314 28.068C9.28607 28.0158 9.30355 27.9553 9.30355 27.8934C9.30355 27.8316 9.28607 27.771 9.25314 27.7188C8.55917 27.2367 7.76985 26.9111 6.9392 26.7643C6.31104 26.5656 5.69974 26.3165 5.11118 26.0194C4.97235 26.0194 4.81037 25.8099 4.67153 26.0194C4.64339 26.0561 4.62812 26.1011 4.62812 26.1474C4.62812 26.1938 4.64339 26.2388 4.67153 26.2755C5.20999 26.8954 5.94645 27.307 6.75408 27.4395Z" fill="white"/>
<path d="M18.4858 27.5327C17.6536 27.5606 16.8484 27.8361 16.1718 28.3242C15.871 28.5105 15.5702 28.72 15.4314 28.6734C15.0281 28.6074 14.6158 28.6228 14.2185 28.7187C13.8213 28.8146 13.4469 28.9892 13.1174 29.2321C13.0784 29.295 13.0578 29.3676 13.0578 29.4417C13.0578 29.5157 13.0784 29.5883 13.1174 29.6512C13.1174 29.7676 13.2563 29.884 13.3951 29.9073C13.4707 29.9293 13.5509 29.9293 13.6265 29.9073C13.9699 29.6734 14.3695 29.5367 14.7835 29.5115H15.1306C16.3801 29.3485 16.7966 29.302 16.9586 29.0226C16.9753 28.9617 16.9753 28.8973 16.9586 28.8364C17.4512 28.5248 18.0196 28.3557 18.6015 28.3475C19.5502 28.5338 19.6427 28.3475 19.689 28.3475C19.721 28.3036 19.7382 28.2506 19.7382 28.1962C19.7382 28.1418 19.721 28.0888 19.689 28.0449C19.3319 27.8317 18.9242 27.7191 18.5089 27.719L18.4858 27.5327Z" fill="white"/>
<path d="M4.41694 28.0678C4.81031 28.0678 5.0417 28.2075 5.08798 28.2773C5.08798 28.4636 5.08798 28.4868 7.65646 29.7439C8.69774 30.2561 9.97041 30.8381 10.0861 31.0011C10.1189 31.0158 10.1543 31.0235 10.1902 31.0235C10.2261 31.0235 10.2616 31.0158 10.2944 31.0011H10.4101C10.5952 31.0011 10.6415 30.6751 10.6415 29.9535C10.1787 28.1842 9.90099 28.1842 9.76215 28.1609C9.69236 28.153 9.62182 28.1665 9.55985 28.1998C9.49788 28.233 9.44739 28.2844 9.41506 28.3472C9.29936 28.6498 9.41506 28.9524 9.69273 29.2085C9.97041 29.4646 10.0398 29.6974 9.94727 29.8603C9.52214 29.6667 9.11217 29.4411 8.72088 29.1852C6.75402 28.0445 5.06484 27.09 4.32438 27.3228C4.32438 27.3228 4.02357 27.3228 4.02357 27.6255C4.02357 27.9281 4.1624 28.0212 4.41694 28.0678Z" fill="white"/>
<path d="M18.856 28.9292C18.5491 29.0577 18.2317 29.159 17.9073 29.2318C17.3982 29.2318 17.1437 29.418 17.1437 29.6508C17.1437 29.8836 17.4213 29.9535 17.5602 29.9768C18.1371 29.8545 18.6718 29.5815 19.1105 29.1852V29.0456C19.0821 29.0052 19.0436 28.9732 18.9989 28.9528C18.9542 28.9323 18.9049 28.9242 18.856 28.9292Z" fill="white"/>
<path d="M4.48639 29.9769H4.64837C4.64837 30.1631 5.11116 30.2562 5.75906 30.2562C6.36594 30.3868 6.94545 30.6232 7.47138 30.9546C6.98545 30.9546 6.52266 30.9546 6.45325 31.234C6.43091 31.2729 6.41914 31.3171 6.41914 31.362C6.41914 31.407 6.43091 31.4511 6.45325 31.4901C6.61522 31.653 7.00859 31.7229 7.70278 31.653C8.13836 31.7696 8.54472 31.977 8.89551 32.2617C9.24631 32.5465 9.5337 32.9022 9.73905 33.3059C9.73905 33.4921 9.87789 33.8413 9.97044 34.1905C10.225 35.308 10.4332 36.0529 10.8035 36.2392C10.8712 36.2606 10.9439 36.2606 11.0117 36.2392H11.2431C11.2431 36.0529 11.2431 35.8201 11.1043 35.4476V35.145C11.0721 34.8711 11.0258 34.5992 10.9654 34.3302C10.9654 34.0741 10.9654 33.7249 10.9654 33.6551C10.9654 32.98 11.4976 31.3271 12.7472 31.3271C13.9967 31.3271 13.7885 31.4668 13.8116 31.5366C13.8347 31.6065 14.1355 31.9789 14.876 31.9789C16.61 31.7448 18.3107 31.3072 19.9436 30.6753H20.7072C20.7754 30.6531 20.8369 30.6136 20.8855 30.5606C20.9341 30.5076 20.9684 30.4428 20.9848 30.3726C20.9856 30.2978 20.9639 30.2244 20.9227 30.1621C20.8814 30.0998 20.8224 30.0515 20.7534 30.0234C20.6221 29.9657 20.4803 29.936 20.3369 29.936C20.1936 29.936 20.0518 29.9657 19.9204 30.0234C19.7669 30.0014 19.6111 30.0014 19.4576 30.0234H19.0643C18.5724 30.113 18.0857 30.2296 17.6065 30.3726C16.6092 30.6692 15.5866 30.8718 14.5521 30.9779H14.2281C14.2281 30.8382 14.5058 30.6753 14.4364 30.4657C14.4084 30.3923 14.3615 30.3278 14.3005 30.2787C14.2395 30.2296 14.1666 30.1977 14.0893 30.1864C13.9509 30.1604 13.8085 30.1657 13.6724 30.202C13.5364 30.2382 13.41 30.3044 13.3025 30.3959C13.2478 30.4567 13.1745 30.4976 13.0943 30.5123C12.8965 30.5327 12.6968 30.5053 12.5116 30.4324C12.3265 30.3595 12.1614 30.2433 12.0299 30.0933C11.8997 29.943 11.7319 29.8304 11.5439 29.7673C11.485 29.7302 11.4168 29.7104 11.3472 29.7104C11.2777 29.7104 11.2095 29.7302 11.1506 29.7673C10.9423 30.0001 11.1506 30.5356 11.2894 30.8382C10.912 31.1893 10.5638 31.5708 10.2481 31.9789L10.1556 32.3281C9.62066 31.5612 8.93296 30.9148 8.13621 30.4298C7.33946 29.9448 6.45111 29.632 5.52767 29.5113L4.99546 29.3483C4.57895 29.2086 4.20872 29.0689 3.97732 29.3483C3.92815 29.3819 3.88776 29.427 3.85956 29.4797C3.83137 29.5324 3.8162 29.5911 3.81535 29.6509C3.80482 29.7107 3.80995 29.7722 3.83024 29.8293C3.85053 29.8865 3.88527 29.9373 3.93104 29.9769C4.01547 30.0259 4.11123 30.0517 4.20872 30.0517C4.3062 30.0517 4.40197 30.0259 4.48639 29.9769Z" fill="white"/>
<path d="M4.04672 32.4214C4.25383 32.4595 4.45576 32.522 4.64835 32.6076C5.38029 32.9218 6.16656 33.0879 6.96229 33.0965H7.44822C7.72589 33.0965 8.02671 33.0965 8.11927 32.7706C8.14615 32.729 8.16046 32.6805 8.16046 32.6309C8.16046 32.5813 8.14615 32.5328 8.11927 32.4912C8.00357 32.3516 7.79531 32.305 7.3788 32.3516H6.56892H6.03671C5.66316 32.3887 5.28678 32.3188 4.95104 32.1499C4.61529 31.981 4.33387 31.72 4.13928 31.3971C4.13928 31.3971 3.83846 31.1876 3.67649 31.2807C3.62222 31.3134 3.57958 31.3625 3.55466 31.4211C3.52973 31.4796 3.52378 31.5445 3.53765 31.6066C3.56079 32.0955 3.74591 32.4214 4.04672 32.4214Z" fill="white"/>
<path d="M12.3075 37.1008C12.8828 36.3491 13.1776 35.4181 13.1406 34.4702C13.1938 34.483 13.2493 34.483 13.3025 34.4702C13.5339 34.2374 13.3025 33.6088 13.0249 33.4226C12.8129 33.2042 12.6265 32.9621 12.4695 32.7009C12.215 32.375 12.0993 32.1887 11.9142 32.1887C11.8433 32.1736 11.7694 32.1812 11.703 32.2104C11.6366 32.2397 11.581 32.2891 11.5439 32.3517C11.382 32.5845 11.5439 32.9104 11.8216 33.3993C12.0334 33.7423 12.1823 34.1208 12.2613 34.5167C12.3456 35.0409 12.2493 35.5783 11.9884 36.0398C11.7275 36.5014 11.3175 36.8593 10.8266 37.0542L10.387 37.1939L9.71592 37.3802C9.80503 37.218 9.90556 37.0624 10.0167 36.9146C10.2018 36.6352 10.3638 36.4024 10.3175 36.1696C10.3051 36.1288 10.2843 36.0912 10.2563 36.0591C10.2284 36.027 10.1941 36.0012 10.1556 35.9834C9.85475 35.8204 9.66964 36.1696 9.4151 36.6119C9.16057 37.0542 8.79034 37.6595 8.39697 37.6595H8.28127C7.26313 37.6595 6.73093 37.6595 6.68465 37.8923C6.66028 37.9348 6.64745 37.983 6.64745 38.032C6.64745 38.081 6.66028 38.1292 6.68465 38.1717C6.94241 38.3474 7.25524 38.4219 7.56395 38.3812C7.94146 38.407 8.32027 38.407 8.69778 38.3812C9.19019 38.2843 9.67687 38.16 10.1556 38.0087C10.5116 37.9173 10.876 37.8627 11.2431 37.8458C11.6565 37.8722 12.0668 37.9345 12.4695 38.032C13.048 38.1717 13.3257 38.2415 13.4645 38.032C13.6033 37.8225 13.4645 37.7759 13.4645 37.613C13.3257 37.4416 13.1485 37.3058 12.9473 37.2167C12.7462 37.1277 12.5269 37.088 12.3075 37.1008Z" fill="white"/>
<path d="M7.35568 34.9587H7.6565C8.92917 35.2148 9.55393 35.2847 9.69277 34.9587C9.72462 34.8853 9.74106 34.8061 9.74106 34.7259C9.74106 34.6458 9.72462 34.5666 9.69277 34.4932C9.61052 34.4112 9.51298 34.3464 9.40577 34.3024C9.29855 34.2585 9.18377 34.2363 9.068 34.2371C8.58267 34.2029 8.09555 34.2029 7.61022 34.2371C7.0585 34.16 6.51587 34.0274 5.99046 33.8413C5.61552 33.7589 5.26121 33.6005 4.94918 33.3757C4.32441 33.0032 3.88477 32.7472 3.60709 33.0032C3.57257 33.0634 3.55439 33.1316 3.55439 33.2011C3.55439 33.2706 3.57257 33.3388 3.60709 33.399C4.10863 33.964 4.7856 34.3415 5.52767 34.4699H5.75906C4.99546 34.7027 4.62523 34.8423 4.60209 35.145C4.57895 35.4476 4.60209 35.3778 4.83348 35.4709C4.93985 35.4975 5.05107 35.4975 5.15744 35.4709C5.80071 35.4043 6.43157 35.2476 7.03173 35.0053L7.35568 34.9587Z" fill="white"/>
<path d="M21.1468 34.6793C21.0311 34.4465 20.7534 34.4697 20.0593 34.5396C19.5044 34.5719 18.9481 34.5719 18.3932 34.5396C17.8499 34.6151 17.297 34.5088 16.8197 34.2369C16.611 34.1053 16.3852 34.0034 16.1487 33.9343C15.8016 33.9343 15.1768 33.7713 14.9917 34.0973C14.8066 34.4232 14.9917 34.4465 15.2 34.7258C16.507 35.1176 17.8625 35.3213 19.2262 35.3311H20.1287C20.9154 35.3311 21.0311 35.1216 21.1005 35.0284C21.1512 34.9873 21.1842 34.9281 21.1928 34.8631C21.2014 34.7982 21.185 34.7324 21.1468 34.6793Z" fill="white"/>
<path d="M17.5139 33.6087C17.5139 33.6087 17.2593 33.9346 17.5139 34.0976H17.6758C17.8147 34.0976 17.9998 34.0976 18.4394 33.6553C18.6742 33.4499 18.8982 33.2323 19.1105 33.0034C19.5 32.8259 19.9022 32.678 20.3137 32.5611C20.3785 32.5235 20.432 32.4691 20.4686 32.4036C20.5053 32.3381 20.5237 32.2638 20.522 32.1886C20.5164 32.1151 20.4893 32.0448 20.444 31.9868C20.3986 31.9287 20.3372 31.8856 20.2675 31.8627C19.4113 31.4902 17.537 33.5854 17.5139 33.6087Z" fill="white"/>
<path d="M17.3056 37.6595C17.0529 37.6169 16.7948 37.6169 16.542 37.6595C15.8924 37.7122 15.2415 37.5747 14.6677 37.2637C14.2049 36.9145 14.1355 36.123 14.4132 34.8193C14.6766 34.2064 15.1082 33.6816 15.6573 33.3064C16.2064 32.9312 16.8504 32.7212 17.5139 32.7008C17.9304 32.7008 18.1618 32.7008 18.2081 32.3749C18.2543 32.049 18.023 32.0024 17.861 31.9326C17.699 31.8628 17.1668 31.9326 16.4726 32.2352C15.7784 32.5379 15.1074 32.8172 14.9454 32.6077L14.552 32.1887V32.7474C14.4825 33.2134 14.2817 33.6496 13.9735 34.0045C13.8225 34.2089 13.6908 34.4272 13.5802 34.6564C13.3742 35.1093 13.2675 35.6016 13.2675 36.0997C13.2675 36.5978 13.3742 37.0901 13.5802 37.5431C13.6525 37.692 13.7562 37.8233 13.884 37.9279C14.0119 38.0324 14.1609 38.1076 14.3206 38.1483C15.0853 38.2863 15.8584 38.3718 16.6346 38.4044C17.3056 38.4044 17.375 38.2647 17.3982 38.1716C17.4213 38.0785 17.537 37.8923 17.3056 37.6595Z" fill="white"/>
</svg>
