<svg width="295" height="100" viewBox="0 0 295 100" fill="none" xmlns="http://www.w3.org/2000/svg">
<path fill-rule="evenodd" clip-rule="evenodd" d="M116.726 37.6892C122.433 37.6952 125.327 37.8032 127.736 38.6505C133.809 40.771 134.662 45.1225 134.662 48.0939C134.662 51.7449 133.344 55.6198 128.377 57.0562L135.676 69.6545H140.112V74.875C138.353 74.9801 137.242 75.0808 136.072 75.1636C134.905 75.2582 133.97 75.3068 133.271 75.3068C131.836 75.3068 130.762 75.0909 130.053 74.6512C129.333 74.2246 128.694 73.477 128.136 72.3979L120.47 58.3518H116.311V66.6142H108.334V43.3566H104.95V37.6889L116.726 37.6892ZM44.1284 37.5586C45.9249 37.5586 47.146 37.9031 47.7991 38.5878C48.4517 39.2782 48.7587 40.4077 48.7587 41.9796V60.8322H52.3147V65.9586C52.3147 65.9586 48 66.5551 45.432 66.5551C44.0501 66.5551 43.0221 66.3532 42.331 65.9586C41.6445 65.5697 41.1842 64.9399 40.9528 64.0767C39.6897 65.0196 36.4528 67.1595 32.4979 67.1595C29.9264 67.1595 27.1381 66.4207 25.0523 64.4297C24.2588 63.6654 22.9281 61.5483 22.9281 57.4079V43.2768H19.3707V38.0916C20.4826 37.929 21.7043 37.806 23.0493 37.7043C24.3784 37.6021 25.4527 37.5586 26.2583 37.5586C28.0563 37.5586 29.2803 37.9031 29.9355 38.5878C30.5824 39.2782 30.9072 40.4077 30.9072 41.9796V56.2882C30.9072 57.5858 31.133 58.6426 31.8254 59.1733C33.5607 60.5137 37.173 60.0127 38.1105 59.9105C39.0507 59.8165 39.9427 59.6719 40.7826 59.4713V43.2768H37.237V38.0916C38.3526 37.929 39.5743 37.806 40.9121 37.7043C42.2507 37.6021 43.3263 37.5586 44.1284 37.5586ZM95.5293 37.5586C97.3696 37.5586 98.6025 37.9031 99.2581 38.5878C99.9141 39.2782 100.233 40.4093 100.233 41.9796V66.616H92.256V43.2784H88.4695V38.145C89.0357 38.0674 89.6511 38.0017 90.3089 37.9383C90.3089 37.9383 93.8681 37.5586 95.5293 37.5586ZM74.786 36.9675C81.2668 36.9675 83.4509 41.8794 83.4509 46.6997V60.8322H86.9287V65.9586C86.9287 65.9586 83.8582 66.3427 83.2517 66.4071C82.6403 66.4605 82.0433 66.5017 81.4757 66.5258C80.9541 66.5393 80.535 66.5464 80.1763 66.5551H80.0414C79.9604 66.5551 79.8886 66.5433 79.8071 66.5433C79.6617 66.5393 79.5198 66.538 79.3775 66.5258C78.8292 66.4986 78.347 66.4294 77.9309 66.3252C77.8924 66.3182 77.8674 66.3099 77.8346 66.2994C77.4969 66.2144 76.8461 65.9726 76.4463 65.5469C75.7889 64.8475 75.4771 63.6982 75.4771 62.1226V47.8188C75.4771 46.4855 75.167 45.517 74.5517 44.9292C74.1702 44.576 73.6722 44.3281 73.0648 44.2228C69.4687 43.5903 66.2905 44.4409 65.4855 44.6399V66.3116H57.5028V43.2768H53.5485V38.1439C54.6578 37.9494 58.4318 37.5586 60.7219 37.5586C62.1382 37.5586 63.2016 37.7545 63.9133 38.1439C64.6171 38.5382 65.1041 39.1516 65.3686 39.9766C68.7185 37.1736 73.1038 36.9675 74.786 36.9675ZM120.714 43.1975H116.311V52.966H121.027C125.141 52.966 126.7 50.283 126.7 47.9881C126.7 45.799 126.069 43.1975 120.714 43.1975ZM95.013 23.7361C96.343 23.7361 97.3587 24.0353 98.0204 24.6198C98.6568 25.1978 98.9844 26.1905 98.9844 27.5811V28.3677C98.9844 29.76 98.6651 30.7407 98.0204 31.2978C97.3587 31.863 96.3479 32.1522 95.013 32.1522H94.5934C93.2309 32.1522 92.2048 31.8689 91.5693 31.3016C90.9413 30.7462 90.6185 29.7582 90.6185 28.3677V27.5811C90.6185 26.1974 90.9413 25.1978 91.5693 24.6198C92.2179 24.0333 93.2357 23.7361 94.5934 23.7361H95.013Z" fill="black"/>
<path d="M148.152 48.901H155.282V47.4271H149.819V37.6865H148.152V48.901ZM164.707 48.901H166.437L162.031 37.6865H160.493L156.087 48.901H157.802L158.875 46.0493H163.633L164.707 48.901ZM159.436 44.5914L161.262 39.7692L163.088 44.5914H159.436ZM176.428 49.0291C179.007 49.0291 180.738 47.5392 180.738 44.9759V37.6865H179.136V45.024C179.136 46.6261 178.046 47.5392 176.428 47.5392C174.826 47.5392 173.737 46.6261 173.737 45.024V37.6865H172.134V44.9759C172.134 47.5392 173.865 49.0291 176.428 49.0291ZM183.29 48.901H184.956V40.2819L190.371 48.901H192.213V37.6865H190.547V46.3216L185.148 37.6865H183.29V48.901ZM194.972 48.901H196.639V37.6865H194.972V48.901ZM202.551 48.901H204.202L208.383 37.6865H206.701L203.369 46.8984L200.052 37.6865H198.37L202.551 48.901ZM210.108 48.901H217.478V47.4271H211.774V43.8545H216.244V42.3806H211.774V39.1604H217.301V37.6865H210.108V48.901ZM226.117 43.5821C227.111 43.0855 227.768 42.2524 227.768 41.0508C227.768 39.0483 226.39 37.6865 224.131 37.6865H219.741V48.901H221.407V44.4793H224.211C225.172 44.4793 225.829 45.1842 225.909 46.1775L226.134 48.901H227.751L227.527 46.0333C227.463 44.9439 226.935 44.0627 226.117 43.5821ZM221.407 39.1284H224.083C225.541 39.1284 226.101 40.0255 226.101 41.0508C226.101 42.0601 225.541 43.0054 224.083 43.0054H221.407V39.1284ZM234.075 49.0291C236.478 49.0291 238.208 47.8276 238.208 45.7769C238.208 41.4994 231.816 43.3098 231.816 40.5862C231.816 39.641 232.633 39.0322 233.979 39.0322C235.357 39.0322 236.254 39.7852 236.366 40.9387H237.984C237.84 38.8881 236.27 37.5583 233.979 37.5583C231.72 37.5583 230.15 38.7919 230.15 40.5862C230.15 44.7196 236.511 43.1015 236.511 45.793C236.511 47.0105 235.485 47.5552 234.075 47.5552C232.489 47.5552 231.544 46.6261 231.416 45.1842H229.798C229.926 47.5072 231.544 49.0291 234.075 49.0291ZM240.368 48.901H242.034V37.6865H240.368V48.901ZM244.792 48.901H248.236C251.36 48.901 253.891 46.9465 253.891 43.2937C253.891 39.641 251.36 37.6865 248.236 37.6865H244.792V48.901ZM246.458 47.4271V39.1604H248.14C250.222 39.1604 252.177 40.3299 252.177 43.2937C252.177 46.2576 250.222 47.4271 248.14 47.4271H246.458ZM263.317 48.901H265.047L260.641 37.6865H259.104L254.698 48.901H256.412L257.486 46.0493H262.244L263.317 48.901ZM258.046 44.5914L259.872 39.7692L261.699 44.5914H258.046ZM266.717 48.901H270.162C273.286 48.901 275.817 46.9465 275.817 43.2937C275.817 39.641 273.286 37.6865 270.162 37.6865H266.717V48.901ZM268.384 47.4271V39.1604H270.066C272.148 39.1604 274.103 40.3299 274.103 43.2937C274.103 46.2576 272.148 47.4271 270.066 47.4271H268.384ZM148.152 66.4194H155.522V64.9452H149.819V61.3727H154.289V59.8988H149.819V56.6786H155.346V55.2047H148.152V66.4194ZM157.786 66.4194H159.452V57.8001L164.867 66.4194H166.709V55.2047H165.043V63.8398L159.644 55.2047H157.786V66.4194ZM173.641 66.4194H175.307V55.2047H173.641V66.4194ZM178.064 66.4194H179.73V57.8001L185.145 66.4194H186.988V55.2047H185.322V63.8398L179.923 55.2047H178.064V66.4194ZM192.294 66.4194H193.96V56.6786H197.469V55.2047H188.786V56.6786H192.294V66.4194ZM199.145 66.4194H206.515V64.9452H200.811V61.3727H205.281V59.8988H200.811V56.6786H206.338V55.2047H199.145V66.4194ZM215.154 61.1004C216.148 60.6037 216.805 59.7707 216.805 58.5691C216.805 56.5665 215.427 55.2047 213.168 55.2047H208.778V66.4194H210.444V61.9975H213.248C214.209 61.9975 214.866 62.7024 214.946 63.6957L215.171 66.4194H216.788L216.564 63.5515C216.5 62.4621 215.972 61.581 215.154 61.1004ZM210.444 56.6466H213.12C214.578 56.6466 215.138 57.5438 215.138 58.5691C215.138 59.5784 214.578 60.5236 213.12 60.5236H210.444V56.6466ZM219.725 66.4194H221.392V57.8001L226.807 66.4194H228.649V55.2047H226.983V63.8398L221.584 55.2047H219.725V66.4194ZM231.408 66.4194H238.778V64.9452H233.074V61.3727H237.544V59.8988H233.074V56.6786H238.601V55.2047H231.408V66.4194ZM243.588 66.4194H245.255V56.6786H248.763V55.2047H240.08V56.6786H243.588V66.4194Z" fill="#1868AF"/>
</svg>
