<svg width="161" height="55" viewBox="0 0 161 55" fill="none" xmlns="http://www.w3.org/2000/svg">
<path fill-rule="evenodd" clip-rule="evenodd" d="M63.7049 20.7289C66.8195 20.7322 68.3988 20.7916 69.7134 21.2576C73.0279 22.4239 73.4937 24.8172 73.4937 26.4515C73.4937 28.4595 72.774 30.5907 70.0635 31.3807L74.047 38.3098H76.4678V41.1811C75.5079 41.2389 74.9015 41.2943 74.2631 41.3398C73.6259 41.3918 73.1158 41.4186 72.7343 41.4186C71.9511 41.4186 71.3652 41.2998 70.978 41.058C70.5853 40.8234 70.2361 40.4122 69.9321 39.8187L65.7483 32.0934H63.478V36.6377H59.1245V23.846H57.2776V20.7287L63.7049 20.7289ZM24.0836 20.6571C25.0641 20.6571 25.7305 20.8465 26.087 21.2232C26.4431 21.6028 26.6106 22.2241 26.6106 23.0886V33.4575H28.5514V36.2771C28.5514 36.2771 26.1966 36.6052 24.795 36.6052C24.0408 36.6052 23.4798 36.4941 23.1027 36.2771C22.728 36.0632 22.4768 35.7168 22.3505 35.242C21.6611 35.7606 19.8945 36.9376 17.7361 36.9376C16.3327 36.9376 14.8109 36.5312 13.6726 35.4362C13.2395 35.0158 12.5133 33.8514 12.5133 31.5742V23.8021H10.5717V20.9502C11.1786 20.8608 11.8453 20.7932 12.5794 20.7372C13.3048 20.681 13.8911 20.6571 14.3308 20.6571C15.312 20.6571 15.98 20.8465 16.3377 21.2232C16.6907 21.6028 16.868 22.2241 16.868 23.0886V30.9584C16.868 31.672 16.9912 32.2532 17.3691 32.5452C18.3161 33.2824 20.2876 33.0068 20.7993 32.9506C21.3124 32.8989 21.7992 32.8194 22.2576 32.7091V23.8021H20.3225V20.9502C20.9314 20.8608 21.5981 20.7932 22.3283 20.7372C23.0588 20.681 23.6459 20.6571 24.0836 20.6571ZM52.1363 20.6571C53.1407 20.6571 53.8135 20.8465 54.1713 21.2232C54.5294 21.6028 54.7034 22.2249 54.7034 23.0886V36.6386H50.3499V23.803H48.2833V20.9796C48.5924 20.9369 48.9282 20.9008 49.2872 20.8659C49.2872 20.8659 51.2297 20.6571 52.1363 20.6571ZM40.8153 20.332C44.3524 20.332 45.5444 23.0335 45.5444 25.6847V33.4575H47.4424V36.2771C47.4424 36.2771 45.7667 36.4883 45.4356 36.5237C45.1019 36.5531 44.7761 36.5758 44.4664 36.589C44.1817 36.5965 43.953 36.6003 43.7572 36.6052H43.6836C43.6394 36.6052 43.6002 36.5986 43.5557 36.5986C43.4764 36.5965 43.3989 36.5958 43.3212 36.589C43.022 36.5741 42.7588 36.536 42.5318 36.4787C42.5107 36.4748 42.4971 36.4703 42.4792 36.4645C42.2949 36.4178 41.9397 36.2848 41.7215 36.0507C41.3627 35.666 41.1925 35.0339 41.1925 34.1672V26.3002C41.1925 25.5669 41.0233 25.0342 40.6875 24.7109C40.4793 24.5166 40.2075 24.3803 39.876 24.3224C37.9134 23.9745 36.1788 24.4423 35.7395 24.5518V36.4712H31.3828V23.8021H29.2247V20.979C29.8301 20.872 31.8899 20.6571 33.1397 20.6571C33.9127 20.6571 34.493 20.7648 34.8814 20.979C35.2655 21.1959 35.5313 21.5332 35.6757 21.987C37.504 20.4453 39.8973 20.332 40.8153 20.332ZM65.8812 23.7584H63.478V29.1312H66.0521C68.2974 29.1312 69.1481 27.6555 69.1481 26.3933C69.1481 25.1893 68.8037 23.7584 65.8812 23.7584ZM51.8545 13.0547C52.5804 13.0547 53.1347 13.2192 53.4958 13.5407C53.8431 13.8586 54.0219 14.4046 54.0219 15.1694V15.6021C54.0219 16.3678 53.8477 16.9072 53.4958 17.2137C53.1347 17.5245 52.583 17.6836 51.8545 17.6836H51.6255C50.8819 17.6836 50.3219 17.5278 49.9751 17.2157C49.6323 16.9102 49.4562 16.3669 49.4562 15.6021V15.1694C49.4562 14.4084 49.6323 13.8586 49.9751 13.5407C50.3291 13.2182 50.8845 13.0547 51.6255 13.0547H51.8545Z" fill="black"/>
<path d="M80.856 26.8957H84.747V26.085H81.7655V20.7277H80.856V26.8957ZM89.8907 26.8957H90.8349L88.4306 20.7277H87.5911L85.1866 26.8957H86.1224L86.7079 25.3273H89.3049L89.8907 26.8957ZM87.0141 24.5254L88.0109 21.8732L89.0076 24.5254H87.0141ZM96.2879 26.9662C97.6955 26.9662 98.6398 26.1467 98.6398 24.7369V20.7277H97.7655V24.7633C97.7655 25.6445 97.1711 26.1467 96.2879 26.1467C95.4135 26.1467 94.8189 25.6445 94.8189 24.7633V20.7277H93.9445V24.7369C93.9445 26.1467 94.8889 26.9662 96.2879 26.9662ZM100.033 26.8957H100.942V22.1552L103.897 26.8957H104.903V20.7277H103.993V25.477L101.047 20.7277H100.033V26.8957ZM106.408 26.8957H107.318V20.7277H106.408V26.8957ZM110.545 26.8957H111.446L113.728 20.7277H112.81L110.991 25.7942L109.181 20.7277H108.263L110.545 26.8957ZM114.669 26.8957H118.691V26.085H115.578V24.1201H118.018V23.3094H115.578V21.5384H118.595V20.7277H114.669V26.8957ZM123.406 23.9703C123.948 23.6972 124.307 23.239 124.307 22.5781C124.307 21.4767 123.555 20.7277 122.322 20.7277H119.926V26.8957H120.836V24.4637H122.366C122.891 24.4637 123.249 24.8514 123.293 25.3977L123.415 26.8957H124.298L124.176 25.3184C124.141 24.7193 123.852 24.2346 123.406 23.9703ZM120.836 21.5207H122.296C123.092 21.5207 123.398 22.0142 123.398 22.5781C123.398 23.1332 123.092 23.6531 122.296 23.6531H120.836V21.5207ZM127.749 26.9662C129.061 26.9662 130.005 26.3053 130.005 25.1775C130.005 22.8248 126.517 23.8205 126.517 22.3226C126.517 21.8027 126.963 21.4679 127.697 21.4679C128.449 21.4679 128.939 21.882 129 22.5164H129.883C129.804 21.3886 128.947 20.6572 127.697 20.6572C126.464 20.6572 125.607 21.3357 125.607 22.3226C125.607 24.5959 129.079 23.7059 129.079 25.1863C129.079 25.8559 128.519 26.1555 127.749 26.1555C126.884 26.1555 126.368 25.6445 126.298 24.8514H125.415C125.485 26.1291 126.368 26.9662 127.749 26.9662ZM131.184 26.8957H132.093V20.7277H131.184V26.8957ZM133.598 26.8957H135.478C137.183 26.8957 138.564 25.8207 138.564 23.8117C138.564 21.8027 137.183 20.7277 135.478 20.7277H133.598V26.8957ZM134.507 26.085V21.5384H135.426C136.562 21.5384 137.629 22.1816 137.629 23.8117C137.629 25.4418 136.562 26.085 135.426 26.085H134.507ZM143.709 26.8957H144.653L142.248 20.7277H141.409L139.005 26.8957H139.94L140.526 25.3273H143.123L143.709 26.8957ZM140.832 24.5254L141.829 21.8732L142.826 24.5254H140.832ZM145.564 26.8957H147.444C149.149 26.8957 150.531 25.8207 150.531 23.8117C150.531 21.8027 149.149 20.7277 147.444 20.7277H145.564V26.8957ZM146.474 26.085V21.5384H147.392C148.528 21.5384 149.595 22.1816 149.595 23.8117C149.595 25.4418 148.528 26.085 147.392 26.085H146.474ZM80.856 36.5308H84.878V35.72H81.7655V33.7551H84.2049V32.9445H81.7655V31.1734H84.7819V30.3627H80.856V36.5308ZM86.1135 36.5308H87.0227V31.7902L89.978 36.5308H90.9835V30.3627H90.0743V35.112L87.1277 30.3627H86.1135V36.5308ZM94.7668 36.5308H95.676V30.3627H94.7668V36.5308ZM97.1809 36.5308H98.0901V31.7902L101.045 36.5308H102.051V30.3627H101.142V35.112L98.195 30.3627H97.1809V36.5308ZM104.947 36.5308H105.856V31.1734H107.771V30.3627H103.032V31.1734H104.947V36.5308ZM108.686 36.5308H112.708V35.72H109.595V33.7551H112.035V32.9445H109.595V31.1734H112.612V30.3627H108.686V36.5308ZM117.423 33.6053C117.965 33.3322 118.324 32.874 118.324 32.2131C118.324 31.1117 117.572 30.3627 116.339 30.3627H113.943V36.5308H114.853V34.0988H116.383C116.907 34.0988 117.266 34.4865 117.31 35.0328L117.432 36.5308H118.315L118.193 34.9535C118.158 34.3543 117.869 33.8697 117.423 33.6053ZM114.853 31.1558H116.313C117.108 31.1558 117.414 31.6492 117.414 32.2131C117.414 32.7683 117.108 33.2881 116.313 33.2881H114.853V31.1558ZM119.918 36.5308H120.827V31.7902L123.783 36.5308H124.788V30.3627H123.879V35.112L120.932 30.3627H119.918V36.5308ZM126.294 36.5308H130.316V35.72H127.203V33.7551H129.643V32.9445H127.203V31.1734H130.22V30.3627H126.294V36.5308ZM132.941 36.5308H133.851V31.1734H135.766V30.3627H131.027V31.1734H132.941V36.5308Z" fill="#1868AF"/>
<path fill-rule="evenodd" clip-rule="evenodd" d="M63.7049 20.7289C66.8195 20.7322 68.3988 20.7916 69.7134 21.2576C73.0279 22.4239 73.4937 24.8172 73.4937 26.4515C73.4937 28.4595 72.774 30.5907 70.0635 31.3807L74.047 38.3098H76.4678V41.1811C75.5079 41.2389 74.9015 41.2943 74.2631 41.3398C73.6259 41.3918 73.1158 41.4186 72.7343 41.4186C71.9511 41.4186 71.3652 41.2998 70.978 41.058C70.5853 40.8234 70.2361 40.4122 69.9321 39.8187L65.7483 32.0934H63.478V36.6377H59.1245V23.846H57.2776V20.7287L63.7049 20.7289ZM24.0836 20.6571C25.0641 20.6571 25.7305 20.8465 26.087 21.2232C26.4431 21.6028 26.6106 22.2241 26.6106 23.0886V33.4575H28.5514V36.2771C28.5514 36.2771 26.1966 36.6052 24.795 36.6052C24.0408 36.6052 23.4798 36.4941 23.1027 36.2771C22.728 36.0632 22.4768 35.7168 22.3505 35.242C21.6611 35.7606 19.8945 36.9376 17.7361 36.9376C16.3327 36.9376 14.8109 36.5312 13.6726 35.4362C13.2395 35.0158 12.5133 33.8514 12.5133 31.5742V23.8021H10.5717V20.9502C11.1786 20.8608 11.8453 20.7932 12.5794 20.7372C13.3048 20.681 13.8911 20.6571 14.3308 20.6571C15.312 20.6571 15.98 20.8465 16.3377 21.2232C16.6907 21.6028 16.868 22.2241 16.868 23.0886V30.9584C16.868 31.672 16.9912 32.2532 17.3691 32.5452C18.3161 33.2824 20.2876 33.0068 20.7993 32.9506C21.3124 32.8989 21.7992 32.8194 22.2576 32.7091V23.8021H20.3225V20.9502C20.9314 20.8608 21.5981 20.7932 22.3283 20.7372C23.0588 20.681 23.6459 20.6571 24.0836 20.6571ZM52.1363 20.6571C53.1407 20.6571 53.8135 20.8465 54.1713 21.2232C54.5294 21.6028 54.7034 22.2249 54.7034 23.0886V36.6386H50.3499V23.803H48.2833V20.9796C48.5924 20.9369 48.9282 20.9008 49.2872 20.8659C49.2872 20.8659 51.2297 20.6571 52.1363 20.6571ZM40.8153 20.332C44.3524 20.332 45.5444 23.0335 45.5444 25.6847V33.4575H47.4424V36.2771C47.4424 36.2771 45.7667 36.4883 45.4356 36.5237C45.1019 36.5531 44.7761 36.5758 44.4664 36.589C44.1817 36.5965 43.953 36.6003 43.7572 36.6052H43.6836C43.6394 36.6052 43.6002 36.5986 43.5557 36.5986C43.4764 36.5965 43.3989 36.5958 43.3212 36.589C43.022 36.5741 42.7588 36.536 42.5318 36.4787C42.5107 36.4748 42.4971 36.4703 42.4792 36.4645C42.2949 36.4178 41.9397 36.2848 41.7215 36.0507C41.3627 35.666 41.1925 35.0339 41.1925 34.1672V26.3002C41.1925 25.5669 41.0233 25.0342 40.6875 24.7109C40.4793 24.5166 40.2075 24.3803 39.876 24.3224C37.9134 23.9745 36.1788 24.4423 35.7395 24.5518V36.4712H31.3828V23.8021H29.2247V20.979C29.8301 20.872 31.8899 20.6571 33.1397 20.6571C33.9127 20.6571 34.493 20.7648 34.8814 20.979C35.2655 21.1959 35.5313 21.5332 35.6757 21.987C37.504 20.4453 39.8973 20.332 40.8153 20.332ZM65.8812 23.7584H63.478V29.1312H66.0521C68.2974 29.1312 69.1481 27.6555 69.1481 26.3933C69.1481 25.1893 68.8037 23.7584 65.8812 23.7584ZM51.8545 13.0547C52.5804 13.0547 53.1347 13.2192 53.4958 13.5407C53.8431 13.8586 54.0219 14.4046 54.0219 15.1694V15.6021C54.0219 16.3678 53.8477 16.9072 53.4958 17.2137C53.1347 17.5245 52.583 17.6836 51.8545 17.6836H51.6255C50.8819 17.6836 50.3219 17.5278 49.9751 17.2157C49.6323 16.9102 49.4562 16.3669 49.4562 15.6021V15.1694C49.4562 14.4084 49.6323 13.8586 49.9751 13.5407C50.3291 13.2182 50.8845 13.0547 51.6255 13.0547H51.8545Z" fill="white"/>
<path d="M80.856 26.8957H84.747V26.085H81.7655V20.7277H80.856V26.8957ZM89.8907 26.8957H90.8349L88.4306 20.7277H87.5911L85.1866 26.8957H86.1224L86.7079 25.3273H89.3049L89.8907 26.8957ZM87.0141 24.5254L88.0109 21.8732L89.0076 24.5254H87.0141ZM96.2879 26.9662C97.6955 26.9662 98.6398 26.1467 98.6398 24.7369V20.7277H97.7655V24.7633C97.7655 25.6445 97.1711 26.1467 96.2879 26.1467C95.4135 26.1467 94.8189 25.6445 94.8189 24.7633V20.7277H93.9445V24.7369C93.9445 26.1467 94.8889 26.9662 96.2879 26.9662ZM100.033 26.8957H100.942V22.1552L103.897 26.8957H104.903V20.7277H103.993V25.477L101.047 20.7277H100.033V26.8957ZM106.408 26.8957H107.318V20.7277H106.408V26.8957ZM110.545 26.8957H111.446L113.728 20.7277H112.81L110.991 25.7942L109.181 20.7277H108.263L110.545 26.8957ZM114.669 26.8957H118.691V26.085H115.578V24.1201H118.018V23.3094H115.578V21.5384H118.595V20.7277H114.669V26.8957ZM123.406 23.9703C123.948 23.6972 124.307 23.239 124.307 22.5781C124.307 21.4767 123.555 20.7277 122.322 20.7277H119.926V26.8957H120.836V24.4637H122.366C122.891 24.4637 123.249 24.8514 123.293 25.3977L123.415 26.8957H124.298L124.176 25.3184C124.141 24.7193 123.852 24.2346 123.406 23.9703ZM120.836 21.5207H122.296C123.092 21.5207 123.398 22.0142 123.398 22.5781C123.398 23.1332 123.092 23.6531 122.296 23.6531H120.836V21.5207ZM127.749 26.9662C129.061 26.9662 130.005 26.3053 130.005 25.1775C130.005 22.8248 126.517 23.8205 126.517 22.3226C126.517 21.8027 126.963 21.4679 127.697 21.4679C128.449 21.4679 128.939 21.882 129 22.5164H129.883C129.804 21.3886 128.947 20.6572 127.697 20.6572C126.464 20.6572 125.607 21.3357 125.607 22.3226C125.607 24.5959 129.079 23.7059 129.079 25.1863C129.079 25.8559 128.519 26.1555 127.749 26.1555C126.884 26.1555 126.368 25.6445 126.298 24.8514H125.415C125.485 26.1291 126.368 26.9662 127.749 26.9662ZM131.184 26.8957H132.093V20.7277H131.184V26.8957ZM133.598 26.8957H135.478C137.183 26.8957 138.564 25.8207 138.564 23.8117C138.564 21.8027 137.183 20.7277 135.478 20.7277H133.598V26.8957ZM134.507 26.085V21.5384H135.426C136.562 21.5384 137.629 22.1816 137.629 23.8117C137.629 25.4418 136.562 26.085 135.426 26.085H134.507ZM143.709 26.8957H144.653L142.248 20.7277H141.409L139.005 26.8957H139.94L140.526 25.3273H143.123L143.709 26.8957ZM140.832 24.5254L141.829 21.8732L142.826 24.5254H140.832ZM145.564 26.8957H147.444C149.149 26.8957 150.531 25.8207 150.531 23.8117C150.531 21.8027 149.149 20.7277 147.444 20.7277H145.564V26.8957ZM146.474 26.085V21.5384H147.392C148.528 21.5384 149.595 22.1816 149.595 23.8117C149.595 25.4418 148.528 26.085 147.392 26.085H146.474ZM80.856 36.5308H84.878V35.72H81.7655V33.7551H84.2049V32.9445H81.7655V31.1734H84.7819V30.3627H80.856V36.5308ZM86.1135 36.5308H87.0227V31.7902L89.978 36.5308H90.9835V30.3627H90.0743V35.112L87.1277 30.3627H86.1135V36.5308ZM94.7668 36.5308H95.676V30.3627H94.7668V36.5308ZM97.1809 36.5308H98.0901V31.7902L101.045 36.5308H102.051V30.3627H101.142V35.112L98.195 30.3627H97.1809V36.5308ZM104.947 36.5308H105.856V31.1734H107.771V30.3627H103.032V31.1734H104.947V36.5308ZM108.686 36.5308H112.708V35.72H109.595V33.7551H112.035V32.9445H109.595V31.1734H112.612V30.3627H108.686V36.5308ZM117.423 33.6053C117.965 33.3322 118.324 32.874 118.324 32.2131C118.324 31.1117 117.572 30.3627 116.339 30.3627H113.943V36.5308H114.853V34.0988H116.383C116.907 34.0988 117.266 34.4865 117.31 35.0328L117.432 36.5308H118.315L118.193 34.9535C118.158 34.3543 117.869 33.8697 117.423 33.6053ZM114.853 31.1558H116.313C117.108 31.1558 117.414 31.6492 117.414 32.2131C117.414 32.7683 117.108 33.2881 116.313 33.2881H114.853V31.1558ZM119.918 36.5308H120.827V31.7902L123.783 36.5308H124.788V30.3627H123.879V35.112L120.932 30.3627H119.918V36.5308ZM126.294 36.5308H130.316V35.72H127.203V33.7551H129.643V32.9445H127.203V31.1734H130.22V30.3627H126.294V36.5308ZM132.941 36.5308H133.851V31.1734H135.766V30.3627H131.027V31.1734H132.941V36.5308Z" fill="white"/>
</svg>
