<svg width="168" height="57" viewBox="0 0 168 57" fill="none" xmlns="http://www.w3.org/2000/svg">
<g clip-path="url(#clip0_292_10378)">
<path d="M28.6301 10.2651C38.6916 10.2651 46.845 18.43 46.845 28.5005C46.8447 38.5708 38.6915 46.7349 28.6301 46.7349C18.5688 46.7348 10.4116 38.5707 10.4114 28.5005C10.4114 18.43 18.5687 10.2652 28.6301 10.2651ZM35.1204 11.8735C31.3314 11.8869 27.1505 13.5116 24.0979 16.0376C20.9717 18.6306 18.5216 23.0031 18.5383 27.5425C18.562 34.4097 23.77 38.6842 28.7737 38.6675C34.9525 38.6474 38.6083 33.5687 38.595 28.9321C38.5782 24.299 36.0609 20.9487 30.5149 19.5952C30.5015 19.5382 30.4915 19.4145 30.4915 19.2974C30.4814 15.7965 33.1192 12.7078 36.4329 12.021C36.1216 11.9138 35.609 11.8735 35.1204 11.8735Z" fill="white"/>
<path d="M58.6105 36.0514L53.0409 22.748H56.6792L60.1536 31.5823L63.5208 22.748H66.9951L61.5895 36.0514H58.6105Z" fill="#EE3023"/>
<path d="M76.6884 29.3309C76.6884 28.7782 76.6249 28.2522 76.4943 27.753C76.3671 27.2539 76.173 26.8251 75.9152 26.4666C75.6575 26.1048 75.3462 25.82 74.978 25.6089C74.6099 25.3945 74.1781 25.2873 73.6827 25.2873C73.1873 25.2873 72.7522 25.3945 72.3874 25.6089C72.0192 25.82 71.7045 26.1048 71.4502 26.4666C71.1924 26.8251 70.9983 27.2539 70.8711 27.753C70.7406 28.2522 70.677 28.7782 70.677 29.3309C70.677 29.9038 70.7406 30.4365 70.8711 30.9256C70.9983 31.4147 71.1857 31.8435 71.4334 32.212C71.6811 32.5806 71.9957 32.872 72.374 33.0864C72.7489 33.2974 73.1873 33.4047 73.6827 33.4047C74.1781 33.4047 74.6099 33.2975 74.978 33.0864C75.3462 32.872 75.6575 32.5806 75.9152 32.212C76.173 31.8435 76.3671 31.4147 76.4943 30.9256C76.6248 30.4365 76.6884 29.9038 76.6884 29.3309ZM80.0523 29.3455C80.0523 30.2132 79.9184 31.0641 79.654 31.9017C79.3862 32.7392 78.9913 33.4862 78.4658 34.1496C77.9436 34.8129 77.2809 35.3456 76.4809 35.751C75.681 36.1563 74.7471 36.3573 73.6827 36.3573C72.615 36.3573 71.6811 36.1563 70.8845 35.751C70.0845 35.3456 69.4218 34.8129 68.8963 34.1496C68.3742 33.4863 67.9792 32.7392 67.7114 31.9017C67.447 31.0642 67.3131 30.2132 67.3131 29.3455C67.3131 28.4812 67.447 27.6369 67.7114 26.8061C67.9792 25.9786 68.3742 25.2383 68.8963 24.585C69.4218 23.9317 70.0845 23.4091 70.8845 23.0138C71.6811 22.6185 72.615 22.4175 73.6827 22.4175C74.7471 22.4175 75.6776 22.6185 76.4675 23.0138C77.2575 23.4091 77.9202 23.9317 78.4524 24.585C78.9879 25.2383 79.3862 25.9786 79.654 26.8061C79.9184 27.6369 80.0523 28.4812 80.0523 29.3455Z" fill="#EE3023"/>
<path d="M90.3247 25.6757C89.6653 25.4177 89.0527 25.2871 88.4837 25.2871C87.9013 25.2871 87.3959 25.4011 86.9775 25.6221C86.5558 25.8431 86.2077 26.1413 85.9332 26.5199C85.6587 26.8985 85.4546 27.3239 85.3173 27.7963C85.1801 28.2653 85.1098 28.7511 85.1098 29.2503C85.1098 29.8031 85.17 30.3323 85.2906 30.8416C85.4077 31.3474 85.5918 31.793 85.8395 32.1716C86.0838 32.5501 86.3951 32.855 86.77 33.0862C87.1449 33.314 87.5901 33.4312 88.1022 33.4312C88.5239 33.4312 88.9523 33.3141 89.3908 33.0862C89.8293 32.855 90.1406 32.5803 90.3247 32.2687L90.3247 25.6757ZM90.5991 36.051L90.4619 35.0326C90.1506 35.381 89.7389 35.6892 89.2235 35.9539C88.7113 36.2219 88.1055 36.3559 87.4093 36.3559C86.4955 36.3559 85.6855 36.1616 84.9927 35.7763C84.2931 35.3911 83.7074 34.8751 83.2321 34.2319C82.7568 33.5887 82.3919 32.8416 82.1442 31.994C81.8999 31.1498 81.7761 30.2654 81.7761 29.3441C81.7761 28.4798 81.9033 27.6322 82.1576 26.8047C82.4154 25.9772 82.8036 25.2368 83.3258 24.5836C83.8513 23.9303 84.504 23.4077 85.2939 23.0124C86.0805 22.617 87.0076 22.416 88.0687 22.416C88.7649 22.416 89.518 22.5466 90.3247 22.8013V17.6421H93.7421V36.051H90.5991Z" fill="#EE3023"/>
<path d="M103.368 29.8131C103 29.8325 102.619 29.8668 102.23 29.9103C101.842 29.9572 101.474 30.0175 101.123 30.0912C100.379 30.2385 99.8673 30.4899 99.5795 30.8484C99.295 31.2102 99.151 31.5988 99.151 32.0242C99.151 32.4631 99.3117 32.8182 99.6364 33.0862C99.9611 33.3509 100.416 33.4849 101.009 33.4849C101.454 33.4849 101.886 33.3944 102.301 33.2102C102.716 33.0259 103.074 32.7948 103.368 32.5201V29.8131ZM103.643 36.041L103.509 35.046C103.137 35.4547 102.669 35.7763 102.097 36.0075C101.524 36.2387 100.898 36.3559 100.215 36.3559C99.6431 36.3559 99.0908 36.2586 98.5687 36.0645C98.0398 35.8736 97.5746 35.5954 97.1696 35.237C96.7646 34.8785 96.4365 34.4396 96.1888 33.9137C95.9378 33.3877 95.814 32.7947 95.814 32.1314C95.814 31.4714 95.9411 30.8852 96.2022 30.3793C96.46 29.8734 96.8081 29.4479 97.2532 29.0962C97.6951 28.7478 98.2038 28.463 98.7762 28.2419C99.3452 28.0209 99.9477 27.8533 100.574 27.7427C101.015 27.6523 101.501 27.5852 102.026 27.5383C102.552 27.4913 102.99 27.4512 103.342 27.4143V27.2201C103.342 26.483 103.154 25.9604 102.773 25.6455C102.394 25.3339 101.872 25.1765 101.21 25.1765C100.821 25.1765 100.45 25.2234 100.098 25.3172C99.7468 25.4076 99.4356 25.5217 99.1578 25.6589C98.8799 25.7997 98.6356 25.937 98.4214 26.0744C98.2105 26.2117 98.0398 26.3356 97.9093 26.4462L96.7779 24.0475C96.9252 23.917 97.1495 23.7628 97.4541 23.5785C97.7586 23.3942 98.1235 23.2133 98.5586 23.0391C98.9904 22.8648 99.4757 22.7175 100.018 22.5969C100.56 22.4763 101.146 22.416 101.769 22.416C102.505 22.416 103.178 22.5133 103.783 22.7075C104.389 22.9018 104.915 23.2033 105.357 23.6187C105.795 24.0308 106.14 24.5534 106.391 25.1899C106.639 25.8231 106.762 26.5903 106.762 27.4914V36.041H103.643Z" fill="#EE3023"/>
<path d="M117.326 20.6774C117.216 20.624 117.001 20.5435 116.68 20.4428C116.355 20.3424 115.93 20.2921 115.395 20.2921C114.919 20.2921 114.518 20.4363 114.196 20.721C113.875 21.0057 113.714 21.4714 113.714 22.1146V22.7478H116.583V25.5083H113.741V36.0511H110.32V25.5083H108.557V22.7478H110.32V22.0308C110.32 21.1665 110.431 20.4362 110.652 19.8365C110.873 19.2402 111.181 18.7511 111.576 18.3759C111.971 17.9973 112.436 17.7192 112.968 17.545C113.504 17.3707 114.083 17.2837 114.709 17.2837C115.535 17.2837 116.218 17.3607 116.76 17.5183C117.303 17.6758 117.621 17.7796 117.711 17.8366L117.326 20.6774Z" fill="#EE3023"/>
<path d="M126.648 29.3309C126.648 28.7782 126.581 28.2522 126.454 27.753C126.326 27.2539 126.132 26.8251 125.875 26.4666C125.617 26.1048 125.306 25.82 124.937 25.6089C124.569 25.3945 124.137 25.2873 123.642 25.2873C123.147 25.2873 122.712 25.3945 122.347 25.6089C121.979 25.82 121.664 26.1048 121.406 26.4666C121.152 26.8251 120.958 27.2539 120.827 27.753C120.7 28.2522 120.636 28.7782 120.636 29.3309C120.636 29.9038 120.7 30.4365 120.827 30.9256C120.958 31.4147 121.145 31.8435 121.393 32.212C121.64 32.5806 121.955 32.872 122.33 33.0864C122.708 33.2974 123.147 33.4047 123.642 33.4047C124.137 33.4047 124.569 33.2975 124.937 33.0864C125.306 32.872 125.617 32.5806 125.875 32.212C126.132 31.8435 126.326 31.4147 126.454 30.9256C126.581 30.4365 126.648 29.9038 126.648 29.3309ZM130.012 29.3455C130.012 30.2132 129.878 31.0641 129.61 31.9017C129.346 32.7392 128.951 33.4862 128.425 34.1496C127.903 34.8129 127.24 35.3456 126.44 35.751C125.64 36.1563 124.706 36.3573 123.642 36.3573C122.574 36.3573 121.64 36.1563 120.844 35.751C120.044 35.3456 119.381 34.8129 118.856 34.1496C118.334 33.4863 117.939 32.7392 117.671 31.9017C117.403 31.0642 117.272 30.2132 117.272 29.3455C117.272 28.4812 117.403 27.6369 117.671 26.8061C117.939 25.9786 118.334 25.2383 118.856 24.585C119.381 23.9317 120.044 23.4091 120.844 23.0138C121.64 22.6185 122.574 22.4175 123.642 22.4175C124.706 22.4175 125.637 22.6185 126.427 23.0138C127.217 23.4091 127.88 23.9317 128.412 24.585C128.947 25.2383 129.346 25.9786 129.61 26.8061C129.878 27.6369 130.012 28.4812 130.012 29.3455Z" fill="#EE3023"/>
<path d="M140.625 36.0511V28.4631C140.625 27.4513 140.415 26.6674 139.993 26.1146C139.568 25.5652 138.982 25.2871 138.226 25.2871C137.693 25.2871 137.201 25.4245 136.753 25.7025C136.301 25.9772 135.909 26.2821 135.578 26.6138V36.0511H132.161V22.7477H135.277L135.441 23.7963C135.976 23.3575 136.575 23.0157 137.248 22.7779C137.918 22.5367 138.594 22.4194 139.273 22.4194C139.973 22.4194 140.615 22.5232 141.204 22.7343C141.794 22.9488 142.299 23.2837 142.721 23.7427C143.146 24.2017 143.47 24.8014 143.701 25.535C143.929 26.2721 144.046 27.1565 144.046 28.185V36.0511H140.625Z" fill="#EE3023"/>
<path d="M154.683 27.7997C154.647 27.3408 154.55 26.9387 154.392 26.6004C154.235 26.2587 154.041 25.984 153.81 25.7729C153.579 25.5585 153.331 25.4044 153.063 25.3005C152.792 25.2001 152.521 25.1498 152.243 25.1498C151.651 25.1498 151.089 25.3708 150.553 25.8131C150.018 26.2554 149.703 26.9153 149.609 27.7997H154.683ZM149.529 30.2553C149.602 31.3776 149.951 32.1884 150.58 32.6842C151.206 33.1801 152.019 33.4313 153.013 33.4313C153.475 33.4313 153.91 33.3878 154.315 33.3073C154.72 33.2237 155.082 33.1196 155.396 32.9891C155.711 32.8617 155.979 32.7311 156.2 32.6038C156.421 32.4732 156.585 32.3525 156.698 32.242L157.609 35.0326C157.478 35.123 157.271 35.247 156.986 35.4045C156.702 35.562 156.347 35.706 155.925 35.8467C155.503 35.9841 155.005 36.1013 154.436 36.2052C153.867 36.3056 153.241 36.3559 152.561 36.3559C151.694 36.3559 150.874 36.2185 150.091 35.9438C149.311 35.6658 148.625 35.237 148.039 34.6574C147.45 34.0778 146.982 33.3575 146.634 32.4932C146.282 31.6289 146.108 30.597 146.108 29.401C146.108 28.2787 146.269 27.2838 146.59 26.4194C146.911 25.5551 147.353 24.8281 147.912 24.2385C148.474 23.6522 149.127 23.1999 149.87 22.885C150.617 22.5735 151.41 22.416 152.257 22.416C153.104 22.416 153.883 22.5568 154.603 22.8314C155.319 23.1061 155.939 23.535 156.464 24.1145C156.986 24.6941 157.401 25.4445 157.703 26.3658C158.007 27.2837 158.158 28.3793 158.158 29.649V30.2553L149.529 30.2553Z" fill="#EE3023"/>
<path d="M28.6301 10.2651C38.6916 10.2651 46.845 18.43 46.845 28.5005C46.8447 38.5708 38.6915 46.7349 28.6301 46.7349C18.5688 46.7348 10.4116 38.5707 10.4114 28.5005C10.4114 18.43 18.5687 10.2652 28.6301 10.2651ZM35.1204 11.8735C31.3314 11.8869 27.1505 13.5116 24.0979 16.0376C20.9717 18.6306 18.5216 23.0031 18.5383 27.5425C18.562 34.4097 23.77 38.6842 28.7737 38.6675C34.9525 38.6474 38.6083 33.5687 38.595 28.9321C38.5782 24.299 36.0609 20.9487 30.5149 19.5952C30.5015 19.5382 30.4915 19.4145 30.4915 19.2974C30.4814 15.7965 33.1192 12.7078 36.4329 12.021C36.1216 11.9138 35.609 11.8735 35.1204 11.8735Z" fill="white"/>
<path d="M58.6105 36.0514L53.0409 22.748H56.6792L60.1536 31.5823L63.5208 22.748H66.9951L61.5895 36.0514H58.6105Z" fill="white"/>
<path d="M76.6884 29.3309C76.6884 28.7782 76.6249 28.2522 76.4943 27.753C76.3671 27.2539 76.173 26.8251 75.9152 26.4666C75.6575 26.1048 75.3462 25.82 74.978 25.6089C74.6099 25.3945 74.1781 25.2873 73.6827 25.2873C73.1873 25.2873 72.7522 25.3945 72.3874 25.6089C72.0192 25.82 71.7045 26.1048 71.4502 26.4666C71.1924 26.8251 70.9983 27.2539 70.8711 27.753C70.7406 28.2522 70.677 28.7782 70.677 29.3309C70.677 29.9038 70.7406 30.4365 70.8711 30.9256C70.9983 31.4147 71.1857 31.8435 71.4334 32.212C71.6811 32.5806 71.9957 32.872 72.374 33.0864C72.7489 33.2974 73.1873 33.4047 73.6827 33.4047C74.1781 33.4047 74.6099 33.2975 74.978 33.0864C75.3462 32.872 75.6575 32.5806 75.9152 32.212C76.173 31.8435 76.3671 31.4147 76.4943 30.9256C76.6248 30.4365 76.6884 29.9038 76.6884 29.3309ZM80.0523 29.3455C80.0523 30.2132 79.9184 31.0641 79.654 31.9017C79.3862 32.7392 78.9913 33.4862 78.4658 34.1496C77.9436 34.8129 77.2809 35.3456 76.4809 35.751C75.681 36.1563 74.7471 36.3573 73.6827 36.3573C72.615 36.3573 71.6811 36.1563 70.8845 35.751C70.0845 35.3456 69.4218 34.8129 68.8963 34.1496C68.3742 33.4863 67.9792 32.7392 67.7114 31.9017C67.447 31.0642 67.3131 30.2132 67.3131 29.3455C67.3131 28.4812 67.447 27.6369 67.7114 26.8061C67.9792 25.9786 68.3742 25.2383 68.8963 24.585C69.4218 23.9317 70.0845 23.4091 70.8845 23.0138C71.6811 22.6185 72.615 22.4175 73.6827 22.4175C74.7471 22.4175 75.6776 22.6185 76.4675 23.0138C77.2575 23.4091 77.9202 23.9317 78.4524 24.585C78.9879 25.2383 79.3862 25.9786 79.654 26.8061C79.9184 27.6369 80.0523 28.4812 80.0523 29.3455Z" fill="white"/>
<path d="M90.3247 25.6757C89.6653 25.4177 89.0527 25.2871 88.4837 25.2871C87.9013 25.2871 87.3959 25.4011 86.9775 25.6221C86.5558 25.8431 86.2077 26.1413 85.9332 26.5199C85.6587 26.8985 85.4546 27.3239 85.3173 27.7963C85.1801 28.2653 85.1098 28.7511 85.1098 29.2503C85.1098 29.8031 85.17 30.3323 85.2906 30.8416C85.4077 31.3474 85.5918 31.793 85.8395 32.1716C86.0838 32.5501 86.3951 32.855 86.77 33.0862C87.1449 33.314 87.5901 33.4312 88.1022 33.4312C88.5239 33.4312 88.9523 33.3141 89.3908 33.0862C89.8293 32.855 90.1406 32.5803 90.3247 32.2687L90.3247 25.6757ZM90.5991 36.051L90.4619 35.0326C90.1506 35.381 89.7389 35.6892 89.2235 35.9539C88.7113 36.2219 88.1055 36.3559 87.4093 36.3559C86.4955 36.3559 85.6855 36.1616 84.9927 35.7763C84.2931 35.3911 83.7074 34.8751 83.2321 34.2319C82.7568 33.5887 82.3919 32.8416 82.1442 31.994C81.8999 31.1498 81.7761 30.2654 81.7761 29.3441C81.7761 28.4798 81.9033 27.6322 82.1576 26.8047C82.4154 25.9772 82.8036 25.2368 83.3258 24.5836C83.8513 23.9303 84.504 23.4077 85.2939 23.0124C86.0805 22.617 87.0076 22.416 88.0687 22.416C88.7649 22.416 89.518 22.5466 90.3247 22.8013V17.6421H93.7421V36.051H90.5991Z" fill="white"/>
<path d="M103.368 29.8131C103 29.8325 102.619 29.8668 102.23 29.9103C101.842 29.9572 101.474 30.0175 101.123 30.0912C100.379 30.2385 99.8673 30.4899 99.5795 30.8484C99.295 31.2102 99.151 31.5988 99.151 32.0242C99.151 32.4631 99.3117 32.8182 99.6364 33.0862C99.9611 33.3509 100.416 33.4849 101.009 33.4849C101.454 33.4849 101.886 33.3944 102.301 33.2102C102.716 33.0259 103.074 32.7948 103.368 32.5201V29.8131ZM103.643 36.041L103.509 35.046C103.137 35.4547 102.669 35.7763 102.097 36.0075C101.524 36.2387 100.898 36.3559 100.215 36.3559C99.6431 36.3559 99.0908 36.2586 98.5687 36.0645C98.0398 35.8736 97.5746 35.5954 97.1696 35.237C96.7646 34.8785 96.4365 34.4396 96.1888 33.9137C95.9378 33.3877 95.814 32.7947 95.814 32.1314C95.814 31.4714 95.9411 30.8852 96.2022 30.3793C96.46 29.8734 96.8081 29.4479 97.2532 29.0962C97.6951 28.7478 98.2038 28.463 98.7762 28.2419C99.3452 28.0209 99.9477 27.8533 100.574 27.7427C101.015 27.6523 101.501 27.5852 102.026 27.5383C102.552 27.4913 102.99 27.4512 103.342 27.4143V27.2201C103.342 26.483 103.154 25.9604 102.773 25.6455C102.394 25.3339 101.872 25.1765 101.21 25.1765C100.821 25.1765 100.45 25.2234 100.098 25.3172C99.7468 25.4076 99.4356 25.5217 99.1578 25.6589C98.8799 25.7997 98.6356 25.937 98.4214 26.0744C98.2105 26.2117 98.0398 26.3356 97.9093 26.4462L96.7779 24.0475C96.9252 23.917 97.1495 23.7628 97.4541 23.5785C97.7586 23.3942 98.1235 23.2133 98.5586 23.0391C98.9904 22.8648 99.4757 22.7175 100.018 22.5969C100.56 22.4763 101.146 22.416 101.769 22.416C102.505 22.416 103.178 22.5133 103.783 22.7075C104.389 22.9018 104.915 23.2033 105.357 23.6187C105.795 24.0308 106.14 24.5534 106.391 25.1899C106.639 25.8231 106.762 26.5903 106.762 27.4914V36.041H103.643Z" fill="white"/>
<path d="M117.326 20.6774C117.216 20.624 117.001 20.5435 116.68 20.4428C116.355 20.3424 115.93 20.2921 115.395 20.2921C114.919 20.2921 114.518 20.4363 114.196 20.721C113.875 21.0057 113.714 21.4714 113.714 22.1146V22.7478H116.583V25.5083H113.741V36.0511H110.32V25.5083H108.557V22.7478H110.32V22.0308C110.32 21.1665 110.431 20.4362 110.652 19.8365C110.873 19.2402 111.181 18.7511 111.576 18.3759C111.971 17.9973 112.436 17.7192 112.968 17.545C113.504 17.3707 114.083 17.2837 114.709 17.2837C115.535 17.2837 116.218 17.3607 116.76 17.5183C117.303 17.6758 117.621 17.7796 117.711 17.8366L117.326 20.6774Z" fill="white"/>
<path d="M126.648 29.3309C126.648 28.7782 126.581 28.2522 126.454 27.753C126.326 27.2539 126.132 26.8251 125.875 26.4666C125.617 26.1048 125.306 25.82 124.937 25.6089C124.569 25.3945 124.137 25.2873 123.642 25.2873C123.147 25.2873 122.712 25.3945 122.347 25.6089C121.979 25.82 121.664 26.1048 121.406 26.4666C121.152 26.8251 120.958 27.2539 120.827 27.753C120.7 28.2522 120.636 28.7782 120.636 29.3309C120.636 29.9038 120.7 30.4365 120.827 30.9256C120.958 31.4147 121.145 31.8435 121.393 32.212C121.64 32.5806 121.955 32.872 122.33 33.0864C122.708 33.2974 123.147 33.4047 123.642 33.4047C124.137 33.4047 124.569 33.2975 124.937 33.0864C125.306 32.872 125.617 32.5806 125.875 32.212C126.132 31.8435 126.326 31.4147 126.454 30.9256C126.581 30.4365 126.648 29.9038 126.648 29.3309ZM130.012 29.3455C130.012 30.2132 129.878 31.0641 129.61 31.9017C129.346 32.7392 128.951 33.4862 128.425 34.1496C127.903 34.8129 127.24 35.3456 126.44 35.751C125.64 36.1563 124.706 36.3573 123.642 36.3573C122.574 36.3573 121.64 36.1563 120.844 35.751C120.044 35.3456 119.381 34.8129 118.856 34.1496C118.334 33.4863 117.939 32.7392 117.671 31.9017C117.403 31.0642 117.272 30.2132 117.272 29.3455C117.272 28.4812 117.403 27.6369 117.671 26.8061C117.939 25.9786 118.334 25.2383 118.856 24.585C119.381 23.9317 120.044 23.4091 120.844 23.0138C121.64 22.6185 122.574 22.4175 123.642 22.4175C124.706 22.4175 125.637 22.6185 126.427 23.0138C127.217 23.4091 127.88 23.9317 128.412 24.585C128.947 25.2383 129.346 25.9786 129.61 26.8061C129.878 27.6369 130.012 28.4812 130.012 29.3455Z" fill="white"/>
<path d="M140.625 36.0511V28.4631C140.625 27.4513 140.415 26.6674 139.993 26.1146C139.568 25.5652 138.982 25.2871 138.226 25.2871C137.693 25.2871 137.201 25.4245 136.753 25.7025C136.301 25.9772 135.909 26.2821 135.578 26.6138V36.0511H132.161V22.7477H135.277L135.441 23.7963C135.976 23.3575 136.575 23.0157 137.248 22.7779C137.918 22.5367 138.594 22.4194 139.273 22.4194C139.973 22.4194 140.615 22.5232 141.204 22.7343C141.794 22.9488 142.299 23.2837 142.721 23.7427C143.146 24.2017 143.47 24.8014 143.701 25.535C143.929 26.2721 144.046 27.1565 144.046 28.185V36.0511H140.625Z" fill="white"/>
<path d="M154.683 27.7997C154.647 27.3408 154.55 26.9387 154.392 26.6004C154.235 26.2587 154.041 25.984 153.81 25.7729C153.579 25.5585 153.331 25.4044 153.063 25.3005C152.792 25.2001 152.521 25.1498 152.243 25.1498C151.651 25.1498 151.089 25.3708 150.553 25.8131C150.018 26.2554 149.703 26.9153 149.609 27.7997H154.683ZM149.529 30.2553C149.602 31.3776 149.951 32.1884 150.58 32.6842C151.206 33.1801 152.019 33.4313 153.013 33.4313C153.475 33.4313 153.91 33.3878 154.315 33.3073C154.72 33.2237 155.082 33.1196 155.396 32.9891C155.711 32.8617 155.979 32.7311 156.2 32.6038C156.421 32.4732 156.585 32.3525 156.698 32.242L157.609 35.0326C157.478 35.123 157.271 35.247 156.986 35.4045C156.702 35.562 156.347 35.706 155.925 35.8467C155.503 35.9841 155.005 36.1013 154.436 36.2052C153.867 36.3056 153.241 36.3559 152.561 36.3559C151.694 36.3559 150.874 36.2185 150.091 35.9438C149.311 35.6658 148.625 35.237 148.039 34.6574C147.45 34.0778 146.982 33.3575 146.634 32.4932C146.282 31.6289 146.108 30.597 146.108 29.401C146.108 28.2787 146.269 27.2838 146.59 26.4194C146.911 25.5551 147.353 24.8281 147.912 24.2385C148.474 23.6522 149.127 23.1999 149.87 22.885C150.617 22.5735 151.41 22.416 152.257 22.416C153.104 22.416 153.883 22.5568 154.603 22.8314C155.319 23.1061 155.939 23.535 156.464 24.1145C156.986 24.6941 157.401 25.4445 157.703 26.3658C158.007 27.2837 158.158 28.3793 158.158 29.649V30.2553L149.529 30.2553Z" fill="white"/>
</g>
<defs>
<clipPath id="clip0_292_10378">
<rect width="168" height="57" fill="white"/>
</clipPath>
</defs>
</svg>
