<svg width="295" height="100" viewBox="0 0 290 100" fill="none" xmlns="http://www.w3.org/2000/svg">
<g clip-path="url(#clip0_271_8606)">
<path d="M82.2581 50C82.2581 67.6676 67.9408 81.9908 50.2732 81.9908C32.6057 81.9908 18.2825 67.6676 18.2825 50C18.2825 32.3325 32.6057 18.0093 50.2732 18.0093C67.9408 18.0093 82.2581 32.3325 82.2581 50Z" fill="#EE3023"/>
<path d="M50.526 67.838C41.7392 67.8678 32.594 60.3678 32.5528 48.3192C32.5234 40.3552 36.8257 32.6852 42.3152 28.1361C47.6754 23.7045 55.0163 20.8539 61.6695 20.8304C62.5276 20.8304 63.4269 20.9009 63.9735 21.0889C58.1548 22.2938 53.5234 27.7128 53.5411 33.8547C53.5411 34.0603 53.5586 34.2778 53.582 34.3777C63.3209 36.7522 67.7407 42.6297 67.7701 50.7581C67.7936 58.8925 61.3757 67.8027 50.526 67.838Z" fill="white"/>
<path d="M102.917 63.2478L93.1372 39.9086H99.526L105.627 55.4073L111.539 39.9086H117.64L108.148 63.2478H102.917Z" fill="#EE3023"/>
<path d="M134.661 51.4578C134.661 50.488 134.55 49.5652 134.32 48.6895C134.097 47.8138 133.756 47.0614 133.303 46.4326C132.851 45.7978 132.304 45.2982 131.658 44.9279C131.011 44.5517 130.253 44.3637 129.383 44.3637C128.513 44.3637 127.749 44.5518 127.109 44.9279C126.462 45.2981 125.91 45.7978 125.463 46.4326C125.01 47.0614 124.67 47.8138 124.446 48.6895C124.217 49.5652 124.105 50.488 124.105 51.4578C124.105 52.4628 124.217 53.3972 124.446 54.2553C124.67 55.1135 124.999 55.8658 125.434 56.5123C125.868 57.1588 126.421 57.6701 127.085 58.0463C127.743 58.4165 128.513 58.6047 129.383 58.6047C130.253 58.6047 131.011 58.4165 131.658 58.0463C132.304 57.6701 132.851 57.1588 133.303 56.5123C133.756 55.8658 134.097 55.1135 134.32 54.2553C134.549 53.3972 134.661 52.4628 134.661 51.4578ZM140.568 51.4833C140.568 53.0056 140.333 54.4984 139.869 55.9678C139.398 57.4371 138.705 58.7477 137.782 59.9115C136.865 61.0752 135.701 62.0098 134.297 62.721C132.892 63.4321 131.252 63.7847 129.383 63.7847C127.508 63.7847 125.869 63.432 124.47 62.721C123.065 62.0098 121.901 61.0753 120.979 59.9115C120.062 58.7478 119.368 57.4371 118.898 55.9678C118.434 54.4985 118.198 53.0056 118.198 51.4833C118.198 49.967 118.434 48.4858 118.898 47.0282C119.368 45.5765 120.062 44.2776 120.979 43.1315C121.901 41.9854 123.065 41.0685 124.47 40.375C125.869 39.6815 127.508 39.3289 129.383 39.3289C131.252 39.3289 132.886 39.6816 134.273 40.375C135.66 41.0685 136.824 41.9854 137.759 43.1315C138.699 44.2776 139.398 45.5765 139.869 47.0282C140.333 48.4858 140.568 49.967 140.568 51.4833Z" fill="#EE3023"/>
<path d="M158.606 45.0453C157.448 44.5928 156.372 44.3636 155.373 44.3636C154.35 44.3636 153.463 44.5636 152.728 44.9513C151.988 45.339 151.377 45.8623 150.895 46.5264C150.413 47.1906 150.054 47.937 149.813 48.7657C149.572 49.5886 149.449 50.4408 149.449 51.3165C149.449 52.2863 149.554 53.2149 149.766 54.1083C149.972 54.9958 150.295 55.7775 150.73 56.4416C151.159 57.1058 151.706 57.6406 152.364 58.0462C153.022 58.4458 153.804 58.6515 154.703 58.6515C155.444 58.6515 156.196 58.446 156.966 58.0462C157.736 57.6406 158.282 57.1587 158.606 56.6121L158.606 45.0453ZM159.088 63.2477L158.847 61.461C158.3 62.0722 157.577 62.6129 156.672 63.0772C155.773 63.5474 154.709 63.7825 153.486 63.7825C151.882 63.7825 150.46 63.4417 149.243 62.7657C148.015 62.0899 146.986 61.1847 146.151 60.0563C145.317 58.9278 144.676 57.6171 144.241 56.1302C143.812 54.649 143.595 53.0974 143.595 51.4811C143.595 49.9648 143.818 48.4777 144.265 47.026C144.717 45.5743 145.399 44.2754 146.316 43.1293C147.239 41.9832 148.385 41.0663 149.772 40.3728C151.153 39.6793 152.781 39.3266 154.644 39.3266C155.867 39.3266 157.189 39.5557 158.606 40.0025V30.9513H164.607V63.2477H159.088Z" fill="#EE3023"/>
<path d="M181.51 52.304C180.863 52.3381 180.193 52.3982 179.512 52.4746C178.83 52.5569 178.183 52.6627 177.566 52.7919C176.261 53.0504 175.362 53.4914 174.857 54.1202C174.357 54.755 174.104 55.4368 174.104 56.1832C174.104 56.9531 174.387 57.5762 174.957 58.0464C175.527 58.5107 176.326 58.7457 177.366 58.7457C178.148 58.7457 178.906 58.587 179.635 58.2638C180.364 57.9405 180.993 57.535 181.51 57.0531V52.304ZM181.992 63.2302L181.757 61.4845C181.104 62.2016 180.282 62.7658 179.277 63.1714C178.272 63.577 177.172 63.7826 175.973 63.7826C174.968 63.7826 173.999 63.612 173.082 63.2713C172.153 62.9365 171.336 62.4484 170.625 61.8196C169.914 61.1907 169.338 60.4208 168.903 59.498C168.462 58.5752 168.245 57.5349 168.245 56.3712C168.245 55.2134 168.468 54.1848 168.926 53.2973C169.379 52.4098 169.99 51.6634 170.772 51.0463C171.548 50.435 172.441 49.9355 173.446 49.5475C174.445 49.1599 175.503 48.8657 176.602 48.6718C177.378 48.5131 178.23 48.3954 179.153 48.3131C180.076 48.2307 180.846 48.1604 181.463 48.0956V47.7548C181.463 46.4618 181.134 45.5448 180.464 44.9924C179.8 44.4458 178.883 44.1696 177.719 44.1696C177.037 44.1696 176.385 44.2518 175.768 44.4165C175.151 44.5751 174.604 44.7752 174.116 45.016C173.628 45.2629 173.199 45.5038 172.823 45.7448C172.453 45.9858 172.153 46.2032 171.924 46.3972L169.937 42.1889C170.196 41.9599 170.59 41.6894 171.125 41.3661C171.659 41.0428 172.3 40.7254 173.064 40.4198C173.822 40.114 174.675 39.8556 175.627 39.644C176.579 39.4324 177.607 39.3267 178.701 39.3267C179.994 39.3267 181.175 39.4973 182.239 39.8381C183.303 40.1788 184.225 40.7079 185.001 41.4367C185.771 42.1596 186.376 43.0765 186.817 44.1932C187.252 45.304 187.47 46.6499 187.47 48.2309V63.2302H181.992Z" fill="#EE3023"/>
<path d="M206.019 36.2763C205.825 36.1825 205.449 36.0413 204.884 35.8648C204.314 35.6886 203.568 35.6003 202.628 35.6003C201.793 35.6003 201.088 35.8533 200.523 36.3527C199.959 36.8522 199.677 37.6692 199.677 38.7976V39.9085H204.714V44.7515H199.724V63.2477H193.717V44.7515H190.62V39.9085H193.717V38.6507C193.717 37.1343 193.911 35.8531 194.299 34.801C194.687 33.7549 195.228 32.8967 195.921 32.2385C196.615 31.5743 197.432 31.0865 198.366 30.7809C199.307 30.4751 200.324 30.3224 201.423 30.3224C202.874 30.3224 204.073 30.4576 205.026 30.734C205.978 31.0103 206.536 31.1924 206.695 31.2923L206.019 36.2763Z" fill="#EE3023"/>
<path d="M222.387 51.4578C222.387 50.488 222.27 49.5652 222.047 48.6895C221.823 47.8138 221.482 47.0614 221.03 46.4326C220.577 45.7978 220.031 45.2982 219.384 44.9279C218.738 44.5517 217.979 44.3637 217.109 44.3637C216.24 44.3637 215.476 44.5518 214.835 44.9279C214.188 45.2981 213.636 45.7978 213.183 46.4326C212.737 47.0614 212.396 47.8138 212.167 48.6895C211.943 49.5652 211.832 50.488 211.832 51.4578C211.832 52.4628 211.943 53.3972 212.167 54.2553C212.396 55.1135 212.725 55.8658 213.16 56.5123C213.595 57.1588 214.147 57.6701 214.806 58.0463C215.47 58.4165 216.24 58.6047 217.109 58.6047C217.979 58.6047 218.738 58.4165 219.384 58.0463C220.031 57.6701 220.577 57.1588 221.03 56.5123C221.482 55.8658 221.823 55.1135 222.047 54.2553C222.27 53.3972 222.387 52.4628 222.387 51.4578ZM228.294 51.4833C228.294 53.0056 228.059 54.4984 227.589 55.9678C227.125 57.4371 226.431 58.7477 225.508 59.9115C224.591 61.0752 223.428 62.0098 222.023 62.721C220.618 63.4321 218.978 63.7847 217.109 63.7847C215.235 63.7847 213.595 63.432 212.196 62.721C210.791 62.0098 209.628 61.0753 208.705 59.9115C207.788 58.7478 207.094 57.4371 206.624 55.9678C206.154 54.4985 205.925 53.0056 205.925 51.4833C205.925 49.967 206.154 48.4858 206.624 47.0282C207.094 45.5765 207.788 44.2776 208.705 43.1315C209.628 41.9854 210.791 41.0685 212.196 40.375C213.595 39.6815 215.235 39.3289 217.109 39.3289C218.978 39.3289 220.612 39.6816 221.999 40.375C223.387 41.0685 224.55 41.9854 225.485 43.1315C226.425 44.2776 227.125 45.5765 227.589 47.0282C228.059 48.4858 228.294 49.967 228.294 51.4833Z" fill="#EE3023"/>
<path d="M246.931 63.2478V49.9355C246.931 48.1605 246.561 46.7852 245.821 45.8154C245.074 44.8515 244.046 44.3637 242.717 44.3637C241.783 44.3637 240.919 44.6047 240.131 45.0925C239.338 45.5744 238.65 46.1092 238.068 46.6911V63.2478H232.068V39.9086H237.539L237.827 41.7483C238.768 40.9783 239.82 40.3788 241.001 39.9615C242.177 39.5384 243.364 39.3326 244.557 39.3326C245.785 39.3326 246.914 39.5148 247.948 39.8851C248.983 40.2613 249.87 40.849 250.611 41.6542C251.357 42.4594 251.927 43.5115 252.333 44.7986C252.732 46.0917 252.938 47.6433 252.938 49.4476V63.2478H246.931Z" fill="#EE3023"/>
<path d="M271.617 48.7717C271.552 47.9664 271.382 47.2611 271.105 46.6675C270.829 46.068 270.488 45.5861 270.083 45.2158C269.677 44.8396 269.242 44.5693 268.772 44.3871C268.296 44.2109 267.82 44.1226 267.332 44.1226C266.292 44.1226 265.304 44.5104 264.364 45.2864C263.424 46.0622 262.871 47.22 262.706 48.7717H271.617ZM262.565 53.0798C262.695 55.0487 263.306 56.4711 264.411 57.3409C265.51 58.2108 266.938 58.6515 268.684 58.6515C269.495 58.6515 270.259 58.5752 270.97 58.4341C271.681 58.2873 272.316 58.1048 272.869 57.8757C273.421 57.6522 273.891 57.4232 274.279 57.1998C274.667 56.9708 274.955 56.759 275.155 56.5651L276.754 61.4609C276.524 61.6196 276.16 61.8371 275.66 62.1133C275.161 62.3897 274.538 62.6423 273.797 62.8891C273.057 63.1301 272.181 63.3358 271.182 63.518C270.183 63.6942 269.083 63.7824 267.89 63.7824C266.368 63.7824 264.928 63.5415 263.553 63.0595C262.183 62.5717 260.979 61.8194 259.95 60.8026C258.916 59.7858 258.093 58.5222 257.481 57.0058C256.864 55.4894 256.559 53.6792 256.559 51.581C256.559 49.612 256.841 47.8665 257.405 46.3501C257.969 44.8337 258.745 43.5582 259.727 42.5238C260.714 41.4953 261.86 40.7018 263.165 40.1493C264.476 39.6028 265.869 39.3265 267.356 39.3265C268.843 39.3265 270.212 39.5735 271.476 40.0553C272.733 40.5373 273.821 41.2896 274.743 42.3064C275.66 43.3232 276.389 44.6397 276.918 46.256C277.453 47.8664 277.717 49.7884 277.717 52.0159V53.0797L262.565 53.0798Z" fill="#EE3023"/>
</g>
<defs>
<clipPath id="clip0_271_8606">
<rect width="295" height="100" fill="white"/>
</clipPath>
</defs>
</svg>
