<svg width="191" height="35" viewBox="0 0 191 35" fill="none" xmlns="http://www.w3.org/2000/svg">
<path d="M0.148132 16.8149C0.0493775 17.4055 0 18.0219 0 18.6565C0 19.3066 0.0493775 19.9308 0.150731 20.5317L2.01408 18.6746L0.148132 16.8149Z" fill="white"/>
<path d="M6.49188 17.3303C6.99605 15.2116 8.72686 13.9788 10.8761 13.9788C12.5211 13.9788 13.7634 14.6962 14.5274 15.8177L18.54 12.0983C17.3757 10.3785 14.7691 8.53955 10.5928 8.53955C6.86091 8.53955 3.71115 10.0858 1.8374 12.6811L6.39572 17.2242C6.42951 17.2552 6.46329 17.2915 6.49188 17.3303Z" fill="white"/>
<path d="M10.8763 23.3756C8.73483 23.3756 7.01181 22.1246 6.50245 20.0189C6.46866 20.0577 6.43228 20.0992 6.3959 20.1354L1.84277 24.6681C3.71392 27.2711 6.86628 28.8148 10.5956 28.8148C14.7719 28.8148 17.3759 26.9318 18.5428 25.2534L14.5276 21.4952C13.7635 22.5753 12.5239 23.3756 10.8763 23.3756Z" fill="white"/>
<path d="M5.90197 18.9363H9.21286C9.33501 19.6537 9.96392 20.1977 10.7176 20.1977C11.5622 20.1977 12.2457 19.5139 12.2457 18.6747C12.2457 17.8355 11.5622 17.1517 10.7176 17.1517C9.96392 17.1517 9.33501 17.6956 9.21286 18.4131H5.89937C5.85519 18.2499 5.76943 18.0997 5.64209 17.9728L1.25529 13.5981C0.912248 14.2145 0.634175 14.8828 0.42627 15.5925L3.51886 18.6747L0.431467 21.7543C0.639372 22.464 0.917446 23.1296 1.26049 23.7487L5.63949 19.3844C5.76943 19.2549 5.85779 19.0969 5.90197 18.9363Z" fill="#0166FF"/>
<path d="M24.2261 27.5457C22.5681 26.6314 21.2505 25.3934 20.2707 23.8289C19.291 22.2645 18.7998 20.568 18.7998 18.7394C18.7998 16.9134 19.2884 15.222 20.2707 13.6706C21.2505 12.1191 22.5681 10.8862 24.2261 9.97191C25.8842 9.0576 27.6929 8.60175 29.6525 8.60175C31.612 8.60175 33.4207 9.0576 35.0788 9.97191C36.7368 10.8862 38.0492 12.1191 39.016 13.6706C39.9827 15.222 40.4661 16.9134 40.4661 18.7394C40.4661 20.568 39.9827 22.2645 39.016 23.8289C38.0492 25.3934 36.7368 26.634 35.0788 27.5457C33.4207 28.46 31.612 28.9159 29.6525 28.9159C27.6929 28.9159 25.8842 28.46 24.2261 27.5457ZM32.0252 22.9638C32.7528 22.5261 33.3298 21.9304 33.7586 21.1793C34.1848 20.4281 34.3979 19.6148 34.3979 18.7394C34.3979 17.8639 34.1848 17.0558 33.7586 16.3176C33.3324 15.5795 32.7528 14.9915 32.0252 14.5538C31.2975 14.1161 30.5049 13.8959 29.6525 13.8959C28.7974 13.8959 28.0074 14.1161 27.2797 14.5538C26.5521 14.9915 25.9725 15.5795 25.5463 16.3176C25.1201 17.0558 24.907 17.8639 24.907 18.7394C24.907 19.6148 25.1201 20.4281 25.5463 21.1793C25.9725 21.9304 26.5521 22.5261 27.2797 22.9638C28.0074 23.4016 28.8 23.6217 29.6525 23.6217C30.5075 23.6217 31.2975 23.4042 32.0252 22.9638Z" fill="white"/>
<path d="M79.2586 23.6036C80.1006 23.2902 80.8335 22.8706 81.4624 22.3448L85.0045 25.9114C84.1495 26.7868 82.9749 27.5069 81.4806 28.0715C79.9862 28.6362 78.4971 28.9159 77.0158 28.9159C75.0303 28.9159 73.2345 28.4782 71.6284 27.6027C70.0198 26.7273 68.7516 25.5125 67.8238 23.961C66.8934 22.4096 66.4282 20.6561 66.4282 18.7031C66.4282 16.7761 66.8804 15.0407 67.7848 13.5022C68.6892 11.9637 69.9262 10.7619 71.4959 9.89679C73.0656 9.03429 74.8172 8.60175 76.7533 8.60175C78.8116 8.60175 80.584 9.07055 82.0653 10.0108C83.5466 10.9484 84.6901 12.3004 85.4931 14.0669C86.2962 15.8307 86.699 17.9287 86.699 20.3582H72.4549C72.7044 21.4849 73.2137 22.3862 73.9804 23.0623C74.747 23.7383 75.6826 24.075 76.7871 24.075C77.5953 24.0724 78.4166 23.917 79.2586 23.6036ZM74.0973 14.3466C73.3567 14.9475 72.8343 15.7608 72.5328 16.7865H80.597C80.3709 15.7608 79.9239 14.9475 79.2586 14.3466C78.5933 13.7457 77.7565 13.4452 76.7533 13.4452C75.7216 13.4452 74.838 13.7457 74.0973 14.3466Z" fill="white"/>
<path d="M92.0733 28.1466C90.4647 27.6338 89.0847 26.9137 87.9282 25.9865L90.3763 22.0806C91.3561 22.7566 92.4606 23.3083 93.6924 23.7331C94.9242 24.1579 96.0521 24.3703 97.0838 24.3703C98.6405 24.3703 99.4202 23.9066 99.4202 22.982C99.4202 22.5572 99.1447 22.2075 98.5912 21.9304C98.0376 21.6558 97.2086 21.3917 96.1041 21.143C94.5214 20.7674 93.235 20.3867 92.2423 19.9982C91.2495 19.6097 90.4283 19.0217 89.7734 18.2343C89.1185 17.4469 88.7936 16.4005 88.7936 15.0977C88.7936 13.8467 89.1133 12.733 89.7552 11.7565C90.3945 10.78 91.3119 10.0108 92.5047 9.44612C93.6976 8.88407 95.0854 8.60175 96.668 8.60175C98.048 8.60175 99.4254 8.82708 100.795 9.27776C102.165 9.72844 103.428 10.3293 104.581 11.0805L102.359 15.0615C101.429 14.4605 100.462 13.9736 99.4566 13.598C98.4508 13.2225 97.523 13.036 96.668 13.036C96.0391 13.036 95.5246 13.1733 95.1243 13.4478C94.7215 13.7224 94.5214 14.0746 94.5214 14.4994C94.5214 14.875 94.7215 15.1495 95.1243 15.3256C95.5246 15.5018 96.4186 15.7634 97.7985 16.113C99.2565 16.4627 100.493 16.8512 101.51 17.276C102.528 17.7008 103.386 18.3405 104.09 19.1901C104.795 20.0422 105.145 21.143 105.145 22.495C105.145 24.448 104.405 26.0072 102.923 27.1702C101.442 28.3331 99.4436 28.9159 96.9331 28.9159C95.3011 28.9159 93.682 28.6595 92.0733 28.1466Z" fill="white"/>
<path d="M112.339 27.5276C110.681 26.6029 109.364 25.3571 108.384 23.7901C107.404 22.2257 106.913 20.5421 106.913 18.7394C106.913 16.9367 107.409 15.2609 108.402 13.7068C109.395 12.1554 110.72 10.9147 112.378 9.99004C114.036 9.06537 115.832 8.60175 117.765 8.60175C119.372 8.60175 120.842 8.90738 122.173 9.52123C123.504 10.1351 124.66 10.9795 125.64 12.0569L121.419 15.5484C120.967 15.0718 120.401 14.6781 119.725 14.3647C119.047 14.0513 118.381 13.8959 117.727 13.8959C116.897 13.8959 116.126 14.1161 115.408 14.5538C114.691 14.9915 114.119 15.5795 113.693 16.3176C113.267 17.0558 113.054 17.851 113.054 18.7031C113.054 19.5786 113.267 20.3919 113.693 21.143C114.119 21.8941 114.699 22.495 115.427 22.9457C116.154 23.3964 116.934 23.6217 117.763 23.6217C118.441 23.6217 119.125 23.4586 119.816 23.1348C120.507 22.8084 121.079 22.3966 121.531 21.8967L125.752 25.3519C124.746 26.4786 123.566 27.3541 122.209 27.9809C120.853 28.6077 119.346 28.9185 117.688 28.9185C115.78 28.9159 113.997 28.4548 112.339 27.5276Z" fill="white"/>
<path d="M137.532 9.6507C138.636 8.94878 139.881 8.59912 141.261 8.59912V13.8933C139.302 13.8933 137.75 14.4191 136.607 15.4707C135.463 16.5222 134.891 17.9364 134.891 19.7132V28.4626H128.485V9.0498H134.891V12.5801C135.546 11.3291 136.425 10.3526 137.532 9.6507Z" fill="white"/>
<path d="M144.089 9.0498H150.495V28.4652H144.089V9.0498Z" fill="white"/>
<path d="M190.545 27.0769C189.968 27.6286 189.238 28.0715 188.359 28.4108C187.481 28.7475 186.626 28.9185 185.797 28.9185C183.962 28.9185 182.468 28.3357 181.314 27.1727C180.157 26.0098 179.58 24.5127 179.58 22.6841V14.1212H177.018V9.04981H179.578V3.7168H185.683V9.04981H189.713V14.1186H185.683V21.516C185.683 22.1428 185.851 22.6478 186.192 23.0363C186.53 23.4249 186.951 23.6191 187.455 23.6191C187.806 23.6191 188.146 23.5621 188.471 23.4508C188.798 23.3368 189.061 23.1814 189.261 22.9819L190.545 27.0769Z" fill="white"/>
<path d="M174.544 13.5022C173.778 11.9637 172.717 10.7619 171.361 9.89679C170.004 9.03429 168.471 8.60175 166.764 8.60175C165.456 8.60175 164.258 8.85817 163.164 9.37101C162.413 9.72326 161.737 10.1817 161.137 10.7412V9.12495H154.77V35H161.137V26.7791C161.74 27.3385 162.416 27.797 163.164 28.1492C164.258 28.6621 165.456 28.9185 166.764 28.9185C168.471 28.9185 170.004 28.4859 171.361 27.6234C172.717 26.7609 173.778 25.5513 174.544 23.9999C175.311 22.4484 175.693 20.6949 175.693 18.742C175.693 16.7865 175.311 15.0407 174.544 13.5022ZM168.214 22.2516C167.322 23.1659 166.184 23.6217 164.804 23.6217C163.497 23.6217 162.431 23.1659 161.602 22.2516C161.428 22.0599 161.275 21.8579 161.137 21.6429V15.8722C161.275 15.6598 161.428 15.4577 161.602 15.2661C162.431 14.3518 163.499 13.8959 164.804 13.8959C166.187 13.8959 167.322 14.3518 168.214 15.2661C169.105 16.1804 169.552 17.3381 169.552 18.7394C169.552 20.1665 169.105 21.3373 168.214 22.2516Z" fill="white"/>
<path d="M56.7945 2.24823V10.7412C56.1916 10.1817 55.5185 9.72325 54.7674 9.371C53.6759 8.85816 52.4753 8.60174 51.1681 8.60174C49.458 8.60174 47.9273 9.03429 46.5707 9.89679C45.2142 10.7593 44.1539 11.9611 43.3872 13.5022C42.6206 15.0407 42.2385 16.789 42.2385 18.742C42.2385 20.6949 42.6206 22.4484 43.3872 23.9999C44.1539 25.5513 45.2142 26.7609 46.5707 27.6234C47.9273 28.4859 49.458 28.9185 51.1681 28.9185C52.4727 28.9185 53.6733 28.6621 54.7674 28.1492C55.5185 27.797 56.1942 27.3385 56.7945 26.7791V28.5041H63.1616V2.24823H56.7945ZM56.3293 22.2516C55.5003 23.1659 54.4322 23.6217 53.1276 23.6217C51.745 23.6217 50.6093 23.1659 49.7179 22.2516C48.8265 21.3373 48.3795 20.1665 48.3795 18.7394C48.3795 17.3381 48.8239 16.1804 49.7179 15.2661C50.6093 14.3518 51.745 13.8959 53.1276 13.8959C54.4348 13.8959 55.5003 14.3518 56.3293 15.2661C56.5034 15.4577 56.6567 15.6623 56.7945 15.8747V21.6429C56.6567 21.8553 56.5034 22.0599 56.3293 22.2516Z" fill="white"/>
<path d="M144.918 5.69045C144.265 5.02738 143.938 4.23222 143.938 3.30497C143.938 2.40361 144.263 1.62917 144.918 0.976467C145.57 0.326352 146.373 0 147.327 0C148.231 0 149.008 0.331533 149.663 0.994598C150.315 1.65766 150.643 2.42692 150.643 3.30497C150.643 4.23222 150.315 5.02738 149.663 5.69045C149.008 6.35351 148.231 6.68504 147.327 6.68504C146.373 6.68504 145.57 6.35351 144.918 5.69045Z" fill="#0166FF"/>
</svg>
