<svg width="516" height="464" viewBox="0 0 516 464" fill="none" xmlns="http://www.w3.org/2000/svg">
<path d="M239.166 200.744C241.44 203.005 243.757 206.618 245.734 210.187C249.461 216.912 250.854 224.627 250.893 232.37C250.932 240.337 249.535 248.289 245.683 255.199C243.68 258.791 241.342 262.414 239.047 264.696L38.4268 464.143C22.8853 436.066 10.2657 405.899 0.802734 373.753L142.369 232.896L142.726 232.542L142.369 232.188L0.563477 91.2109C10.0266 59.064 22.6457 28.781 38.1865 0.820312L239.166 200.744Z" fill="url(#paint0_linear_260_8310)" fill-opacity="0.2" stroke="url(#paint1_linear_260_8310)"/>
<path d="M275.848 200.744C273.574 203.005 271.257 206.618 269.28 210.187C265.553 216.912 264.16 224.627 264.121 232.37C264.082 240.337 265.479 248.289 269.331 255.199C271.334 258.791 273.672 262.414 275.967 264.696L476.587 464.143C492.129 436.066 504.748 405.899 514.211 373.753L372.645 232.896L372.288 232.542L372.645 232.188L514.45 91.2109C504.987 59.064 492.368 28.781 476.827 0.820312L275.848 200.744Z" fill="url(#paint2_linear_260_8310)" fill-opacity="0.2" stroke="url(#paint3_linear_260_8310)"/>
<defs>
<linearGradient id="paint0_linear_260_8310" x1="251.655" y1="227.236" x2="0.201795" y2="227.236" gradientUnits="userSpaceOnUse">
<stop stop-color="#000F44"/>
<stop offset="1" stop-color="#000F44" stop-opacity="0"/>
</linearGradient>
<linearGradient id="paint1_linear_260_8310" x1="254.016" y1="226.63" x2="11.503" y2="226.63" gradientUnits="userSpaceOnUse">
<stop stop-color="#99AFFF"/>
<stop offset="0.240385" stop-color="#0036FF"/>
<stop offset="1" stop-color="#0036FF" stop-opacity="0"/>
</linearGradient>
<linearGradient id="paint2_linear_260_8310" x1="263.359" y1="227.236" x2="514.812" y2="227.236" gradientUnits="userSpaceOnUse">
<stop stop-color="#000F44"/>
<stop offset="1" stop-color="#000F44" stop-opacity="0"/>
</linearGradient>
<linearGradient id="paint3_linear_260_8310" x1="260.998" y1="226.63" x2="503.511" y2="226.63" gradientUnits="userSpaceOnUse">
<stop stop-color="#99AFFF"/>
<stop offset="0.240385" stop-color="#0036FF"/>
<stop offset="1" stop-color="#0036FF" stop-opacity="0"/>
</linearGradient>
</defs>
</svg>
