<svg width="40" height="40" viewBox="0 0 40 40" fill="none" xmlns="http://www.w3.org/2000/svg">
<circle cx="20" cy="20" r="20" fill="white"/>
<g clip-path="url(#clip0_1591_338)">
<path d="M20 8.7998C13.8145 8.7998 8.79999 13.8143 8.79999 19.9998C8.79999 25.2522 12.4162 29.6596 17.2945 30.8701V23.4225H14.9851V19.9998H17.2945V18.525C17.2945 14.713 19.0198 12.946 22.7624 12.946C23.472 12.946 24.6964 13.0854 25.1972 13.2243V16.3267C24.9329 16.2989 24.4737 16.285 23.9034 16.285C22.0671 16.285 21.3574 16.9807 21.3574 18.7893V19.9998H25.0158L24.3873 23.4225H21.3574V31.1178C26.9032 30.4481 31.2004 25.7261 31.2004 19.9998C31.2 13.8143 26.1855 8.7998 20 8.7998Z" fill="#0036FF"/>
</g>
<defs>
<clipPath id="clip0_1591_338">
<rect width="22.4" height="22.4" fill="white" transform="translate(8.79999 8.7998)"/>
</clipPath>
</defs>
</svg>
