<svg width="40" height="40" viewBox="0 0 40 40" fill="none" xmlns="http://www.w3.org/2000/svg">
<circle cx="20" cy="20" r="20" fill="white"/>
<g clip-path="url(#clip0_1591_332)">
<path d="M20 10.8167C22.9925 10.8167 23.3469 10.8298 24.5237 10.8823C25.6175 10.9304 26.2081 11.1142 26.6019 11.2673C27.1225 11.4686 27.4987 11.7136 27.8881 12.1029C28.2819 12.4967 28.5225 12.8686 28.7237 13.3892C28.8769 13.7829 29.0606 14.3779 29.1087 15.4673C29.1612 16.6486 29.1744 17.0029 29.1744 19.9911C29.1744 22.9836 29.1612 23.3379 29.1087 24.5148C29.0606 25.6086 28.8769 26.1992 28.7237 26.5929C28.5225 27.1136 28.2775 27.4898 27.8881 27.8792C27.4944 28.2729 27.1225 28.5136 26.6019 28.7148C26.2081 28.8679 25.6131 29.0517 24.5237 29.0998C23.3425 29.1523 22.9881 29.1654 20 29.1654C17.0075 29.1654 16.6531 29.1523 15.4762 29.0998C14.3825 29.0517 13.7919 28.8679 13.3981 28.7148C12.8775 28.5136 12.5012 28.2686 12.1119 27.8792C11.7181 27.4854 11.4775 27.1136 11.2762 26.5929C11.1231 26.1992 10.9394 25.6042 10.8912 24.5148C10.8387 23.3336 10.8256 22.9792 10.8256 19.9911C10.8256 16.9986 10.8387 16.6442 10.8912 15.4673C10.9394 14.3736 11.1231 13.7829 11.2762 13.3892C11.4775 12.8686 11.7225 12.4923 12.1119 12.1029C12.5056 11.7092 12.8775 11.4686 13.3981 11.2673C13.7919 11.1142 14.3869 10.9304 15.4762 10.8823C16.6531 10.8298 17.0075 10.8167 20 10.8167ZM20 8.7998C16.9594 8.7998 16.5787 8.81293 15.3844 8.86543C14.1944 8.91793 13.3762 9.11043 12.6675 9.38605C11.9281 9.6748 11.3025 10.0554 10.6812 10.6811C10.0556 11.3023 9.67499 11.9279 9.38624 12.6629C9.11061 13.3761 8.91811 14.1898 8.86561 15.3798C8.81311 16.5786 8.79999 16.9592 8.79999 19.9998C8.79999 23.0404 8.81311 23.4211 8.86561 24.6154C8.91811 25.8054 9.11061 26.6236 9.38624 27.3323C9.67499 28.0717 10.0556 28.6973 10.6812 29.3186C11.3025 29.9398 11.9281 30.3248 12.6631 30.6092C13.3762 30.8848 14.19 31.0773 15.38 31.1298C16.5744 31.1823 16.955 31.1954 19.9956 31.1954C23.0362 31.1954 23.4169 31.1823 24.6112 31.1298C25.8012 31.0773 26.6194 30.8848 27.3281 30.6092C28.0631 30.3248 28.6887 29.9398 29.31 29.3186C29.9312 28.6973 30.3162 28.0717 30.6006 27.3367C30.8762 26.6236 31.0687 25.8098 31.1212 24.6198C31.1737 23.4254 31.1869 23.0448 31.1869 20.0042C31.1869 16.9636 31.1737 16.5829 31.1212 15.3886C31.0687 14.1986 30.8762 13.3804 30.6006 12.6717C30.325 11.9279 29.9444 11.3023 29.3187 10.6811C28.6975 10.0598 28.0719 9.6748 27.3369 9.39043C26.6237 9.1148 25.81 8.9223 24.62 8.8698C23.4212 8.81293 23.0406 8.7998 20 8.7998Z" fill="#0036FF"/>
<path d="M20 14.2466C16.8238 14.2466 14.2469 16.8235 14.2469 19.9997C14.2469 23.176 16.8238 25.7528 20 25.7528C23.1763 25.7528 25.7531 23.176 25.7531 19.9997C25.7531 16.8235 23.1763 14.2466 20 14.2466ZM20 23.7316C17.9394 23.7316 16.2681 22.0603 16.2681 19.9997C16.2681 17.9391 17.9394 16.2678 20 16.2678C22.0606 16.2678 23.7319 17.9391 23.7319 19.9997C23.7319 22.0603 22.0606 23.7316 20 23.7316Z" fill="#0036FF"/>
<path d="M27.3238 14.0189C27.3238 14.7627 26.72 15.362 25.9806 15.362C25.2369 15.362 24.6375 14.7583 24.6375 14.0189C24.6375 13.2752 25.2413 12.6758 25.9806 12.6758C26.72 12.6758 27.3238 13.2795 27.3238 14.0189Z" fill="#0036FF"/>
</g>
<defs>
<clipPath id="clip0_1591_332">
<rect width="22.4" height="22.4" fill="white" transform="translate(8.79999 8.7998)"/>
</clipPath>
</defs>
</svg>
