<svg width="40" height="40" viewBox="0 0 40 40" fill="none" xmlns="http://www.w3.org/2000/svg">
<circle cx="20" cy="20" r="20" fill="white"/>
<g clip-path="url(#clip0_1591_328)">
<path d="M29.5419 8.7998H10.4537C9.53936 8.7998 8.79999 9.52168 8.79999 10.4142V29.5811C8.79999 30.4736 9.53936 31.1998 10.4537 31.1998H29.5419C30.4562 31.1998 31.2 30.4736 31.2 29.5854V10.4142C31.2 9.52168 30.4562 8.7998 29.5419 8.7998ZM15.4456 27.8879H12.1206V17.1954H15.4456V27.8879ZM13.7831 15.7386C12.7156 15.7386 11.8537 14.8767 11.8537 13.8136C11.8537 12.7504 12.7156 11.8886 13.7831 11.8886C14.8462 11.8886 15.7081 12.7504 15.7081 13.8136C15.7081 14.8723 14.8462 15.7386 13.7831 15.7386ZM27.8881 27.8879H24.5675V22.6904C24.5675 21.4523 24.5456 19.8554 22.8394 19.8554C21.1112 19.8554 20.8487 21.2073 20.8487 22.6029V27.8879H17.5325V17.1954H20.7175V18.6567H20.7612C21.2031 17.8167 22.2881 16.9286 23.9025 16.9286C27.2669 16.9286 27.8881 19.1423 27.8881 22.0211V27.8879Z" fill="#0036FF"/>
</g>
<defs>
<clipPath id="clip0_1591_328">
<rect width="22.4" height="22.4" fill="white" transform="translate(8.79999 8.7998)"/>
</clipPath>
</defs>
</svg>
