<svg width="8" height="9" viewBox="0 0 8 9" fill="none" xmlns="http://www.w3.org/2000/svg">
<path d="M3.5498 0C4.49135 0 5.39477 0.36986 6.06055 1.02832C6.72619 1.68666 7.10046 2.57973 7.10059 3.51074C7.10059 5.97139 4.94793 8.00695 3.99512 8.78711C3.85827 8.89916 3.78942 8.9547 3.6875 8.9834C3.60828 9.00569 3.49131 9.0057 3.41211 8.9834C3.31066 8.95474 3.24149 8.89848 3.10547 8.78711C2.15266 8.00695 0 5.97139 0 3.51074C6.74972e-05 2.57963 0.374322 1.68672 1.04004 1.02832C1.70571 0.370051 2.60847 9.35817e-05 3.5498 0ZM3.5498 1.52148C2.42967 1.52166 1.52166 2.42967 1.52148 3.5498C1.52148 4.67009 2.42956 5.57893 3.5498 5.5791C4.67019 5.5791 5.5791 4.67019 5.5791 3.5498C5.57893 2.42956 4.67009 1.52148 3.5498 1.52148Z" fill="white"/>
</svg>
