<svg width="9" height="9" viewBox="0 0 9 9" fill="none" xmlns="http://www.w3.org/2000/svg">
<path d="M3.25123 0.628609C3.09937 0.248951 2.73166 0 2.32275 0H0.947369C0.424151 0 0 0.424048 0 0.947266C0 5.39461 3.60539 8.99999 8.05273 8.99999C8.57595 8.99999 9 8.57581 9 8.05259L9.00023 6.67698C9.00023 6.26807 8.75135 5.90043 8.37169 5.74856L7.05346 5.22147C6.71243 5.08506 6.32414 5.14645 6.04197 5.38159L5.70176 5.66534C5.30443 5.99644 4.71982 5.97011 4.3541 5.60439L3.39611 4.64553C3.03039 4.27981 3.00337 3.69567 3.33447 3.29834L3.61816 2.95815C3.85331 2.67598 3.91525 2.28758 3.77883 1.94655L3.25123 0.628609Z" fill="white"/>
</svg>
