<svg width="616" height="198" viewBox="0 0 616 198" fill="none" xmlns="http://www.w3.org/2000/svg">
<path d="M28.4041 136.328C32.057 136.328 35.5236 136.552 38.8037 136.999C42.1583 137.372 45.6619 138.082 49.3147 139.126V148.64H33.5477C30.1184 148.64 27.3596 149.163 25.2722 150.208C23.185 151.178 21.6568 153.043 20.6877 155.804C19.7932 158.49 19.3456 162.37 19.3456 167.444C19.3456 172.443 19.7931 176.249 20.6877 178.861C21.6568 181.472 23.1849 183.226 25.2722 184.122C27.4341 185.017 30.2677 185.465 33.7716 185.465H50.2101V194.866C48.3464 195.463 46.1835 196.023 43.7234 196.545C41.2633 196.993 38.6538 197.329 35.8956 197.553C33.2119 197.851 30.5655 198 27.9564 198C24.3036 198 20.9117 197.515 17.7807 196.545C14.7241 195.575 12.0769 193.971 9.84044 191.732C7.60399 189.419 5.85175 186.323 4.58441 182.443C3.39164 178.488 2.79567 173.526 2.79564 167.556C2.79564 161.438 3.35477 156.363 4.47302 152.334C5.59128 148.304 7.23186 145.133 9.39379 142.82C11.6302 140.432 14.3513 138.753 17.5568 137.783C20.7624 136.813 24.3785 136.328 28.4041 136.328Z" fill="url(#paint0_linear_277_9313)"/>
<path fill-rule="evenodd" clip-rule="evenodd" d="M176.509 197.329H162.53L159.847 191.621C158.58 192.815 157.014 193.896 155.15 194.866C153.361 195.836 151.459 196.62 149.447 197.217C147.434 197.74 145.421 198 143.409 198C138.712 198 134.76 197.03 131.555 195.09C128.349 193.076 125.926 189.867 124.286 185.465C122.72 180.988 121.938 175.13 121.938 167.892C121.938 160.43 122.609 154.386 123.951 149.759C125.367 145.133 127.715 141.738 130.995 139.574C134.276 137.411 138.787 136.328 144.527 136.328C147.285 136.328 150.006 136.626 152.69 137.223C155.374 137.746 157.76 138.38 159.847 139.126V111.928H176.509V197.329ZM149.894 148.752C147.136 148.752 144.899 149.238 143.185 150.208C141.545 151.178 140.352 153.005 139.606 155.691C138.861 158.303 138.488 162.109 138.488 167.108C138.488 171.735 138.824 175.354 139.495 177.966C140.24 180.502 141.395 182.256 142.961 183.226C144.527 184.196 146.615 184.681 149.224 184.681C151.46 184.681 153.473 184.308 155.262 183.562C157.126 182.816 158.654 182.07 159.847 181.323V151.103C158.356 150.581 156.79 150.058 155.15 149.535C153.51 149.013 151.758 148.752 149.894 148.752Z" fill="url(#paint1_linear_277_9313)"/>
<path d="M432.462 136.328C436.114 136.328 439.581 136.552 442.861 136.999C446.216 137.372 449.719 138.082 453.372 139.126V148.64H437.605C434.176 148.64 431.417 149.163 429.33 150.208C427.242 151.178 425.714 153.043 424.745 155.804C423.851 158.49 423.403 162.37 423.403 167.444C423.403 172.443 423.851 176.249 424.745 178.861C425.714 181.472 427.242 183.226 429.33 184.122C431.491 185.017 434.325 185.465 437.829 185.465H454.268V194.866C452.404 195.463 450.241 196.023 447.781 196.545C445.321 196.993 442.711 197.329 439.953 197.553C437.269 197.851 434.623 198 432.014 198C428.361 198 424.969 197.515 421.838 196.545C418.781 195.575 416.134 193.971 413.898 191.732C411.661 189.419 409.909 186.323 408.642 182.443C407.449 178.488 406.853 173.526 406.853 167.556C406.853 161.438 407.412 156.363 408.53 152.334C409.649 148.304 411.289 145.133 413.451 142.82C415.688 140.432 418.409 138.753 421.614 137.783C424.82 136.813 428.436 136.328 432.462 136.328Z" fill="url(#paint2_linear_277_9313)"/>
<path fill-rule="evenodd" clip-rule="evenodd" d="M85.1251 136.328C90.1199 136.328 94.3698 136.813 97.8736 137.783C101.377 138.753 104.21 140.395 106.372 142.708C108.608 144.947 110.212 148.08 111.181 152.11C112.225 156.064 112.746 161.064 112.746 167.108C112.746 173.078 112.262 178.078 111.293 182.107C110.324 186.062 108.758 189.195 106.596 191.508C104.434 193.822 101.563 195.464 97.985 196.434C94.4812 197.404 90.1943 197.889 85.1251 197.889C80.2049 197.888 75.9928 197.404 72.489 196.434C68.9852 195.389 66.1147 193.672 63.8782 191.284C61.7164 188.897 60.1136 185.725 59.0699 181.77C58.1008 177.816 57.6164 172.928 57.6164 167.108C57.6164 160.99 58.1008 155.953 59.0699 151.998C60.1136 147.969 61.7162 144.834 63.8782 142.596C66.1147 140.282 68.9852 138.678 72.489 137.783C76.0673 136.813 80.2795 136.328 85.1251 136.328ZM85.1251 149.535C83.1869 149.535 81.5093 149.722 80.0929 150.095C78.7512 150.468 77.6327 151.252 76.7381 152.446C75.8438 153.565 75.1727 155.319 74.7255 157.706C74.3527 160.019 74.1664 163.154 74.1664 167.108C74.1664 170.988 74.3527 174.123 74.7255 176.511C75.1728 178.898 75.8436 180.689 76.7381 181.883C77.6327 183.002 78.7512 183.748 80.0929 184.122C81.5093 184.495 83.1869 184.681 85.1251 184.681C87.1377 184.681 88.8154 184.495 90.1572 184.122C91.5735 183.749 92.6919 183.002 93.512 181.883C94.4065 180.689 95.0784 178.898 95.5257 176.511C95.973 174.123 96.1962 170.988 96.1962 167.108C96.1962 163.154 95.973 160.019 95.5257 157.706C95.0784 155.318 94.4065 153.565 93.512 152.446C92.6919 151.252 91.5737 150.468 90.1572 150.095C88.8154 149.722 87.1377 149.535 85.1251 149.535Z" fill="url(#paint3_linear_277_9313)"/>
<path fill-rule="evenodd" clip-rule="evenodd" d="M213.636 136.328C219.6 136.328 224.371 136.925 227.95 138.119C231.528 139.312 234.1 141.402 235.666 144.387C237.306 147.372 238.125 151.588 238.125 157.035C238.125 161.064 237.306 164.272 235.666 166.66C234.1 168.973 231.864 170.652 228.956 171.697C226.049 172.667 222.619 173.153 218.668 173.153H203.572C203.721 176.212 204.168 178.674 204.914 180.54C205.734 182.33 207.187 183.636 209.274 184.457C211.436 185.203 214.53 185.576 218.556 185.576H236.113V195.314C233.205 195.911 230 196.508 226.496 197.105C223.067 197.627 218.966 197.888 214.195 197.889C207.56 197.889 202.267 197.031 198.316 195.314C194.365 193.524 191.494 190.389 189.705 185.912C187.99 181.435 187.133 175.242 187.133 167.332C187.133 159.199 187.953 152.893 189.594 148.416C191.234 143.939 193.992 140.806 197.868 139.015C201.745 137.224 207.001 136.328 213.636 136.328ZM213.636 148.305C211.101 148.305 209.088 148.753 207.597 149.648C206.106 150.469 205.026 151.961 204.355 154.125C203.684 156.289 203.348 159.348 203.348 163.302H216.991C219.227 163.302 220.867 162.855 221.91 161.96C222.954 161.065 223.476 159.459 223.476 157.146C223.476 154.983 223.141 153.266 222.47 151.998C221.799 150.655 220.755 149.722 219.339 149.2C217.922 148.603 216.021 148.305 213.636 148.305Z" fill="url(#paint4_linear_277_9313)"/>
<path fill-rule="evenodd" clip-rule="evenodd" d="M303.534 136.328C308.529 136.328 312.779 136.813 316.283 137.783C319.787 138.753 322.619 140.395 324.781 142.708C327.018 144.947 328.622 148.08 329.591 152.11C330.634 156.064 331.156 161.064 331.156 167.108C331.156 173.078 330.671 178.078 329.702 182.107C328.733 186.062 327.167 189.195 325.005 191.508C322.843 193.822 319.973 195.464 316.394 196.434C312.891 197.404 308.604 197.889 303.534 197.889C298.614 197.888 294.402 197.404 290.898 196.434C287.395 195.389 284.524 193.672 282.288 191.284C280.126 188.897 278.523 185.725 277.479 181.77C276.51 177.816 276.026 172.928 276.026 167.108C276.026 160.99 276.51 155.953 277.479 151.998C278.523 147.969 280.126 144.834 282.288 142.596C284.524 140.282 287.395 138.678 290.898 137.783C294.477 136.813 298.689 136.328 303.534 136.328ZM303.534 149.535C301.596 149.535 299.919 149.722 298.502 150.095C297.161 150.468 296.042 151.252 295.148 152.446C294.253 153.565 293.582 155.319 293.135 157.706C292.762 160.019 292.576 163.154 292.576 167.108C292.576 170.988 292.762 174.123 293.135 176.511C293.582 178.898 294.253 180.689 295.148 181.883C296.042 183.002 297.161 183.748 298.502 184.122C299.919 184.495 301.596 184.681 303.534 184.681C305.547 184.681 307.225 184.495 308.567 184.122C309.983 183.749 311.101 183.002 311.921 181.883C312.816 180.689 313.488 178.898 313.935 176.511C314.382 174.123 314.606 170.988 314.606 167.108C314.606 163.154 314.382 160.019 313.935 157.706C313.488 155.318 312.816 153.565 311.921 152.446C311.101 151.252 309.983 150.468 308.567 150.095C307.225 149.722 305.547 149.535 303.534 149.535Z" fill="url(#paint5_linear_277_9313)"/>
<path fill-rule="evenodd" clip-rule="evenodd" d="M488.177 136.328C494.141 136.328 498.912 136.925 502.49 138.119C506.069 139.312 508.641 141.402 510.207 144.387C511.846 147.372 512.666 151.588 512.666 157.035C512.666 161.064 511.846 164.272 510.207 166.66C508.641 168.973 506.404 170.652 503.497 171.697C500.59 172.667 497.16 173.153 493.209 173.153H478.112C478.261 176.212 478.709 178.674 479.454 180.54C480.275 182.33 481.728 183.636 483.815 184.457C485.977 185.203 489.071 185.576 493.096 185.576H510.653V195.314C507.746 195.911 504.54 196.508 501.037 197.105C497.607 197.627 493.507 197.888 488.736 197.889C482.101 197.889 476.807 197.031 472.856 195.314C468.905 193.524 466.035 190.389 464.246 185.912C462.531 181.435 461.674 175.242 461.674 167.332C461.674 159.199 462.494 152.893 464.134 148.416C465.774 143.939 468.532 140.806 472.409 139.015C476.285 137.224 481.542 136.328 488.177 136.328ZM488.177 148.305C485.642 148.305 483.629 148.753 482.138 149.648C480.647 150.469 479.566 151.961 478.895 154.125C478.224 156.289 477.889 159.348 477.888 163.302H491.531C493.767 163.302 495.407 162.855 496.451 161.96C497.495 161.065 498.017 159.459 498.017 157.146C498.017 154.983 497.681 153.266 497.01 151.998C496.339 150.655 495.296 149.722 493.879 149.2C492.463 148.603 490.562 148.305 488.177 148.305Z" fill="url(#paint6_linear_277_9313)"/>
<path d="M377.585 136.217C382.505 136.217 386.308 137.186 388.991 139.126C391.675 141.066 393.539 143.678 394.583 146.961C395.701 150.17 396.26 153.751 396.26 157.706V197.329H379.709V159.833C379.709 157.893 379.336 156.289 378.591 155.02C377.92 153.752 376.951 152.781 375.684 152.11C374.417 151.438 372.888 151.103 371.099 151.103C369.534 151.103 368.005 151.289 366.514 151.662C365.098 152.036 363.718 152.557 362.376 153.229C361.109 153.9 359.879 154.685 358.686 155.58V197.329H342.136V137.223H355.779L358.686 143.379C360.923 141.514 363.718 139.873 367.073 138.455C370.502 136.963 374.007 136.217 377.585 136.217Z" fill="url(#paint7_linear_277_9313)"/>
<path d="M614.652 69.5069C615.547 69.5069 616.143 69.7684 616.441 70.2906C616.814 70.7382 617 71.335 617 72.081V87.4153C617 89.579 616.553 91.2582 615.659 92.4521C614.764 93.646 613.683 94.4302 612.416 94.8032C611.148 95.1763 609.88 95.3629 608.613 95.3629C607.197 95.3629 605.967 95.2501 604.923 95.0262C603.896 94.806 603.375 94.6942 603.358 94.6907V89.4298C604.402 89.4298 605.147 89.2812 605.595 88.9828C606.116 88.6842 606.377 88.0865 606.377 87.1913V84.2816H605.258C604.588 84.2815 604.028 84.0949 603.581 83.7219C603.134 83.2742 602.91 82.6396 602.91 81.8189V72.081C602.911 70.3652 603.693 69.507 605.258 69.5069H614.652Z" fill="url(#paint8_linear_277_9313)"/>
<path d="M512.181 24.4001C515.834 24.4001 519.3 24.6235 522.581 25.0712C525.935 25.4443 529.439 26.1537 533.091 27.1983V36.7122H517.324C513.895 36.7122 511.136 37.2349 509.049 38.2796C506.962 39.2497 505.434 41.1153 504.465 43.876C503.57 46.5622 503.122 50.4421 503.122 55.5159C503.122 60.5153 503.57 64.3211 504.465 66.9327C505.434 69.5443 506.962 71.2981 509.049 72.1936C511.211 73.089 514.044 73.5369 517.548 73.5369H533.987V82.9382C532.123 83.5352 529.96 84.0948 527.5 84.6171C525.04 85.0648 522.431 85.4011 519.672 85.6249C516.989 85.9234 514.342 86.072 511.733 86.072C508.08 86.072 504.689 85.5871 501.558 84.6171C498.501 83.6471 495.854 82.043 493.617 79.8045C491.381 77.4913 489.629 74.3947 488.361 70.5146C487.168 66.56 486.572 61.5977 486.572 55.6284C486.572 49.5097 487.132 44.435 488.25 40.4056C489.368 36.3763 491.009 33.2048 493.171 30.8917C495.407 28.5041 498.128 26.8249 501.334 25.8549C504.539 24.8849 508.155 24.4001 512.181 24.4001Z" fill="url(#paint9_linear_277_9313)"/>
<path fill-rule="evenodd" clip-rule="evenodd" d="M567.896 24.4001C573.86 24.4001 578.631 24.9966 582.21 26.1905C585.788 27.3844 588.36 29.4744 589.926 32.4591C591.566 35.4438 592.385 39.6598 592.385 45.1068C592.385 49.1359 591.566 52.3444 589.926 54.7321C588.36 57.0452 586.124 58.7242 583.216 59.7689C580.309 60.7389 576.879 61.2248 572.928 61.2248H557.832C557.981 64.284 558.428 66.7463 559.174 68.6116C559.994 70.4024 561.447 71.7083 563.534 72.5291C565.696 73.2753 568.79 73.6484 572.816 73.6484H590.373V83.3864C587.465 83.9833 584.26 84.5799 580.756 85.1768C577.327 85.6991 573.226 85.9605 568.455 85.9605C561.82 85.9605 556.527 85.1026 552.576 83.3864C548.625 81.5955 545.754 78.4611 543.965 73.984C542.25 69.5069 541.393 63.3137 541.393 55.4044C541.393 47.2709 542.213 40.9652 543.854 36.4881C545.494 32.0113 548.252 28.8777 552.128 27.0868C556.005 25.2959 561.261 24.4001 567.896 24.4001ZM567.896 36.3766C565.361 36.3766 563.348 36.8245 561.857 37.72C560.366 38.5408 559.286 40.0333 558.615 42.1971C557.944 44.3609 557.608 47.4199 557.608 51.3743H571.251C573.487 51.3743 575.127 50.9272 576.171 50.032C577.214 49.1366 577.737 47.5314 577.737 45.2183C577.736 43.0545 577.401 41.3384 576.73 40.07C576.059 38.727 575.015 37.7941 573.599 37.2718C572.182 36.6749 570.281 36.3766 567.896 36.3766Z" fill="url(#paint10_linear_277_9313)"/>
<path d="M62.0632 17.4603H39.2504V85.4009H22.7004V17.4603H0V2.57413H62.0632V17.4603Z" fill="url(#paint11_linear_277_9313)"/>
<path d="M86.7664 31.4513C88.9283 29.6605 91.7242 28.0195 95.1533 26.5272C98.6572 25.0348 102.236 24.2886 105.889 24.2886C110.436 24.2887 114.052 25.1836 116.735 26.9742C119.419 28.765 121.358 31.2651 122.551 34.4736C123.743 37.6822 124.34 41.4132 124.34 45.6664V85.4009H107.789V47.7935C107.789 45.8534 107.417 44.2482 106.671 42.9797C105.926 41.7115 104.92 40.7784 103.653 40.1815C102.385 39.51 100.894 39.1749 99.1797 39.1748C97.6141 39.1748 96.0852 39.3982 94.5942 39.8459C93.1778 40.219 91.7983 40.7418 90.4564 41.4134C89.1892 42.0849 87.9591 42.8312 86.7664 43.6519V85.4009H70.2164V0.111491H86.7664V31.4513Z" fill="url(#paint12_linear_277_9313)"/>
<path d="M153.273 85.4009H136.723V25.2953H153.273V85.4009Z" fill="url(#paint13_linear_277_9313)"/>
<path d="M201.438 24.2886C206.358 24.2886 210.161 25.2582 212.844 27.1983C215.528 29.1383 217.392 31.7502 218.436 35.0332C219.554 38.2417 220.113 41.8233 220.113 45.7779V85.4009H203.562V47.905C203.562 45.9649 203.189 44.3608 202.444 43.0923C201.773 41.8238 200.804 40.8531 199.537 40.1815C198.269 39.51 196.741 39.1749 194.952 39.1748C193.387 39.1748 191.858 39.3614 190.367 39.7344C188.95 40.1075 187.571 40.6293 186.229 41.3008C184.962 41.9723 183.732 42.7565 182.539 43.6519V85.4009H165.989V25.2953H179.632L182.539 31.4513C184.775 29.5859 187.571 27.9438 190.926 26.5261C194.355 25.0337 197.859 24.2886 201.438 24.2886Z" fill="url(#paint14_linear_277_9313)"/>
<path d="M249.045 46.1146H256.089L269.286 25.2953H286.06L268.39 53.6129L287.848 85.4009H271.074L255.867 61.1123H249.045V85.4009H232.495V0H249.045V46.1146Z" fill="url(#paint15_linear_277_9313)"/>
<path d="M343.372 25.2953H357.463V38.6152H343.372V63.9105C343.372 65.5521 343.522 66.8959 343.82 67.9405C344.118 68.985 344.528 69.8432 345.05 70.5146C345.646 71.1116 346.318 71.5595 347.063 71.858C347.809 72.1564 348.555 72.343 349.3 72.4176L356.904 73.0888V85.4009H346.057C341.435 85.4009 337.67 84.7294 334.763 83.3864C331.93 82.0433 329.88 79.8045 328.612 76.6707C327.345 73.5368 326.786 69.3208 326.935 64.023L327.494 38.6152H318.1V27.982L328.053 25.2953L330.29 8.50609H343.372V25.2953Z" fill="url(#paint16_linear_277_9313)"/>
<path d="M388.289 70.0665L400.143 25.2953H413.785L425.639 70.0665L434.25 25.2953H451.359L435.704 85.4009H417.364L406.629 48.8002L395.558 85.4009H377.555L361.675 25.2953H378.784L388.289 70.0665Z" fill="url(#paint17_linear_277_9313)"/>
<path d="M475.645 85.4009H459.095V25.2953H475.645V85.4009Z" fill="url(#paint18_linear_277_9313)"/>
<path d="M151.484 0.895205C152.155 0.895207 152.678 1.11865 153.05 1.56634C153.423 2.01395 153.609 2.57388 153.61 3.24526V14.2151C153.609 15.7072 152.901 16.4536 151.484 16.4536H138.736C137.171 16.4535 136.388 15.707 136.388 14.2151V3.24526C136.388 1.6787 137.171 0.895351 138.736 0.895205H151.484Z" fill="url(#paint19_linear_277_9313)"/>
<path d="M473.857 0.895205C474.528 0.895205 475.05 1.11865 475.423 1.56634C475.795 2.01395 475.982 2.57388 475.982 3.24526V14.2151C475.982 15.7072 475.273 16.4536 473.857 16.4536H461.108C459.543 16.4535 458.76 15.707 458.76 14.2151V3.24526C458.76 1.6787 459.543 0.895353 461.108 0.895205H473.857Z" fill="url(#paint20_linear_277_9313)"/>
<defs>
<linearGradient id="paint0_linear_277_9313" x1="0" y1="198" x2="617" y2="198" gradientUnits="userSpaceOnUse">
<stop stop-color="#001E87" stop-opacity="0.5"/>
<stop offset="1" stop-color="#0036FF"/>
</linearGradient>
<linearGradient id="paint1_linear_277_9313" x1="0" y1="198" x2="617" y2="198" gradientUnits="userSpaceOnUse">
<stop stop-color="#001E87" stop-opacity="0.5"/>
<stop offset="1" stop-color="#0036FF"/>
</linearGradient>
<linearGradient id="paint2_linear_277_9313" x1="0" y1="198" x2="617" y2="198" gradientUnits="userSpaceOnUse">
<stop stop-color="#001E87" stop-opacity="0.5"/>
<stop offset="1" stop-color="#0036FF"/>
</linearGradient>
<linearGradient id="paint3_linear_277_9313" x1="0" y1="198" x2="617" y2="198" gradientUnits="userSpaceOnUse">
<stop stop-color="#001E87" stop-opacity="0.5"/>
<stop offset="1" stop-color="#0036FF"/>
</linearGradient>
<linearGradient id="paint4_linear_277_9313" x1="0" y1="198" x2="617" y2="198" gradientUnits="userSpaceOnUse">
<stop stop-color="#001E87" stop-opacity="0.5"/>
<stop offset="1" stop-color="#0036FF"/>
</linearGradient>
<linearGradient id="paint5_linear_277_9313" x1="0" y1="198" x2="617" y2="198" gradientUnits="userSpaceOnUse">
<stop stop-color="#001E87" stop-opacity="0.5"/>
<stop offset="1" stop-color="#0036FF"/>
</linearGradient>
<linearGradient id="paint6_linear_277_9313" x1="0" y1="198" x2="617" y2="198" gradientUnits="userSpaceOnUse">
<stop stop-color="#001E87" stop-opacity="0.5"/>
<stop offset="1" stop-color="#0036FF"/>
</linearGradient>
<linearGradient id="paint7_linear_277_9313" x1="0" y1="198" x2="617" y2="198" gradientUnits="userSpaceOnUse">
<stop stop-color="#001E87" stop-opacity="0.5"/>
<stop offset="1" stop-color="#0036FF"/>
</linearGradient>
<linearGradient id="paint8_linear_277_9313" x1="0" y1="198" x2="617" y2="198" gradientUnits="userSpaceOnUse">
<stop stop-color="#001E87" stop-opacity="0.5"/>
<stop offset="1" stop-color="#0036FF"/>
</linearGradient>
<linearGradient id="paint9_linear_277_9313" x1="0" y1="198" x2="617" y2="198" gradientUnits="userSpaceOnUse">
<stop stop-color="#001E87" stop-opacity="0.5"/>
<stop offset="1" stop-color="#0036FF"/>
</linearGradient>
<linearGradient id="paint10_linear_277_9313" x1="0" y1="198" x2="617" y2="198" gradientUnits="userSpaceOnUse">
<stop stop-color="#001E87" stop-opacity="0.5"/>
<stop offset="1" stop-color="#0036FF"/>
</linearGradient>
<linearGradient id="paint11_linear_277_9313" x1="0" y1="198" x2="617" y2="198" gradientUnits="userSpaceOnUse">
<stop stop-color="#001E87" stop-opacity="0.5"/>
<stop offset="1" stop-color="#0036FF"/>
</linearGradient>
<linearGradient id="paint12_linear_277_9313" x1="0" y1="198" x2="617" y2="198" gradientUnits="userSpaceOnUse">
<stop stop-color="#001E87" stop-opacity="0.5"/>
<stop offset="1" stop-color="#0036FF"/>
</linearGradient>
<linearGradient id="paint13_linear_277_9313" x1="0" y1="198" x2="617" y2="198" gradientUnits="userSpaceOnUse">
<stop stop-color="#001E87" stop-opacity="0.5"/>
<stop offset="1" stop-color="#0036FF"/>
</linearGradient>
<linearGradient id="paint14_linear_277_9313" x1="0" y1="198" x2="617" y2="198" gradientUnits="userSpaceOnUse">
<stop stop-color="#001E87" stop-opacity="0.5"/>
<stop offset="1" stop-color="#0036FF"/>
</linearGradient>
<linearGradient id="paint15_linear_277_9313" x1="0" y1="198" x2="617" y2="198" gradientUnits="userSpaceOnUse">
<stop stop-color="#001E87" stop-opacity="0.5"/>
<stop offset="1" stop-color="#0036FF"/>
</linearGradient>
<linearGradient id="paint16_linear_277_9313" x1="0" y1="198" x2="617" y2="198" gradientUnits="userSpaceOnUse">
<stop stop-color="#001E87" stop-opacity="0.5"/>
<stop offset="1" stop-color="#0036FF"/>
</linearGradient>
<linearGradient id="paint17_linear_277_9313" x1="0" y1="198" x2="617" y2="198" gradientUnits="userSpaceOnUse">
<stop stop-color="#001E87" stop-opacity="0.5"/>
<stop offset="1" stop-color="#0036FF"/>
</linearGradient>
<linearGradient id="paint18_linear_277_9313" x1="0" y1="198" x2="617" y2="198" gradientUnits="userSpaceOnUse">
<stop stop-color="#001E87" stop-opacity="0.5"/>
<stop offset="1" stop-color="#0036FF"/>
</linearGradient>
<linearGradient id="paint19_linear_277_9313" x1="0" y1="198" x2="617" y2="198" gradientUnits="userSpaceOnUse">
<stop stop-color="#001E87" stop-opacity="0.5"/>
<stop offset="1" stop-color="#0036FF"/>
</linearGradient>
<linearGradient id="paint20_linear_277_9313" x1="0" y1="198" x2="617" y2="198" gradientUnits="userSpaceOnUse">
<stop stop-color="#001E87" stop-opacity="0.5"/>
<stop offset="1" stop-color="#0036FF"/>
</linearGradient>
</defs>
</svg>
