<svg width="40" height="40" viewBox="0 0 40 40" fill="none" xmlns="http://www.w3.org/2000/svg">
<circle cx="20" cy="20" r="20" fill="white"/>
<g clip-path="url(#clip0_1591_342)">
<path d="M30.9769 15.52C30.9769 15.52 30.7581 13.9756 30.0844 13.2975C29.2312 12.405 28.2775 12.4006 27.84 12.3481C24.7075 12.1206 20.0044 12.1206 20.0044 12.1206H19.9956C19.9956 12.1206 15.2925 12.1206 12.16 12.3481C11.7225 12.4006 10.7687 12.405 9.91561 13.2975C9.24186 13.9756 9.02749 15.52 9.02749 15.52C9.02749 15.52 8.79999 17.3356 8.79999 19.1469V20.8444C8.79999 22.6556 9.02311 24.4712 9.02311 24.4712C9.02311 24.4712 9.24186 26.0156 9.91124 26.6937C10.7644 27.5862 11.8844 27.5556 12.3831 27.6519C14.1769 27.8225 20 27.875 20 27.875C20 27.875 24.7075 27.8662 27.84 27.6431C28.2775 27.5906 29.2312 27.5862 30.0844 26.6937C30.7581 26.0156 30.9769 24.4712 30.9769 24.4712C30.9769 24.4712 31.2 22.66 31.2 20.8444V19.1469C31.2 17.3356 30.9769 15.52 30.9769 15.52ZM17.6856 22.905V16.6094L23.7362 19.7681L17.6856 22.905Z" fill="#0036FF"/>
</g>
<defs>
<clipPath id="clip0_1591_342">
<rect width="22.4" height="22.4" fill="white" transform="translate(8.79999 8.7998)"/>
</clipPath>
</defs>
</svg>
